<?xml version="1.0" encoding="UTF-8"?>
<svg id="Capa_2" data-name="Capa 2" xmlns="http://www.w3.org/2000/svg" viewBox="0 0 32 32">
  <defs>
    <style>
      .cls-1 {
        fill: #d9703c;
      }

      .cls-1, .cls-2 {
        stroke-width: 0px;
      }

      .cls-2 {
        fill: #434dac;
      }
    </style>
  </defs>
  <g id="Capa_1-2" data-name="Capa 1">
    <rect class="cls-1" width="32" height="32"/>
    <path class="cls-2" d="m18.84,29.53v-8.97s-1.07,0-1.07,0c-.22,0-.4.03-.55.1-.15.07-.3.19-.44.38-.15.19-.31.46-.48.81s-.39.8-.65,1.36l-2.94,6.32H2.81s2.85-6.34,2.85-6.34c1.21-2.67,2.96-4.08,5.27-4.21-1.14-.04-2.16-.25-3.07-.63-.91-.38-1.69-.91-2.33-1.58-.64-.67-1.14-1.48-1.48-2.41-.35-.94-.52-1.98-.52-3.13,0-1.34.22-2.54.67-3.58.44-1.04,1.11-1.92,1.99-2.63.88-.71,1.98-1.25,3.3-1.62,1.32-.37,2.85-.55,4.61-.55h13.61v26.69h-8.86Zm0-15.4v-4.57s-3.82,0-3.82,0c-.86,0-1.51.19-1.95.58-.44.39-.66.96-.66,1.71s.22,1.31.66,1.7c.44.39,1.09.58,1.95.58h3.82Z"/>
  </g>
</svg>