<svg width="63" height="64" viewBox="0 0 63 64" fill="none" xmlns="http://www.w3.org/2000/svg">
<path fill-rule="evenodd" clip-rule="evenodd" d="M31.0671 26.7236C31.0671 25.5096 30.7494 24.4687 30.1155 23.5972C29.0589 22.1797 27.2674 21.4513 24.7343 21.4146H14.7002V41.8987H24.0557C25.1109 41.8987 26.0874 41.8082 26.9904 41.6231C27.8934 41.4367 28.6731 41.0955 29.3346 40.5941C29.9239 40.1566 30.423 39.6093 30.8046 38.9824C31.4228 38.019 31.7312 36.9296 31.7312 35.7156C31.7312 34.5382 31.4608 33.5368 30.924 32.7152C30.3806 31.8896 29.5813 31.2885 28.5221 30.9066C29.2204 30.5548 29.748 30.165 30.1076 29.7411C30.7508 28.9798 31.0671 27.9744 31.0671 26.7236ZM45.0688 24.9189H36.1701V22.3701H45.0688V24.9189ZM37.2069 32.8254C37.3539 31.8397 37.7109 31.0575 38.2779 30.4813C38.8449 29.9038 39.6469 29.6151 40.6746 29.6151C41.6235 29.6151 42.4149 29.8867 43.0594 30.4301C43.6946 30.9787 44.0543 31.7728 44.1278 32.8254H37.2069ZM44.284 27.0583C45.3563 27.5308 46.2396 28.2789 46.9352 29.3001C47.5691 30.2004 47.976 31.2452 48.1624 32.4317C48.2713 33.126 48.3146 34.1314 48.2963 35.4399H37.1085C37.1754 36.9572 37.7057 38.0229 38.7176 38.6332C39.3293 39.0139 40.0656 39.2042 40.9318 39.2042C41.8427 39.2042 42.5869 38.9732 43.1578 38.5112C43.4728 38.2592 43.7484 37.9127 43.9847 37.4677H48.0849C47.976 38.3642 47.4786 39.279 46.5979 40.2069C45.2224 41.6769 43.2956 42.4146 40.8216 42.4146C38.7767 42.4146 36.972 41.7951 35.4141 40.5508C33.8469 39.3105 33.0686 37.2866 33.0686 34.4871C33.0686 31.8621 33.7748 29.85 35.1818 28.4496C36.5953 27.0504 38.4236 26.3469 40.6733 26.3469C42.0107 26.3469 43.2129 26.5845 44.284 27.0583ZM18.8385 38.3432V32.8806H23.952C24.8406 32.8884 25.5336 33.0052 26.0284 33.2271C26.9104 33.6274 27.3501 34.3571 27.3501 35.4255C27.3501 36.6855 26.8946 37.5347 25.9851 37.9822C25.485 38.2224 24.7815 38.3432 23.8811 38.3432H18.8385ZM18.8385 24.9714V29.4917H23.889C24.7868 29.4917 25.5204 29.3211 26.0848 28.9824C26.6466 28.6438 26.9288 28.0427 26.9288 27.1843C26.9288 26.2288 26.5573 25.5988 25.8144 25.2904C25.1713 25.0791 24.3523 24.9714 23.3601 24.9714H18.8385Z" fill="white"/>
</svg>
