<svg width="62" height="62" viewBox="0 0 62 62" fill="none" xmlns="http://www.w3.org/2000/svg">
<g clip-path="url(#clip0_93_525)">
<path d="M0.5 31C0.5 14.1551 14.1551 0.5 31 0.5C47.8449 0.5 61.5 14.1551 61.5 31C61.5 47.8449 47.8449 61.5 31 61.5C14.1551 61.5 0.5 47.8449 0.5 31Z" fill="#D9703C" stroke="white"/>
<path fill-rule="evenodd" clip-rule="evenodd" d="M22.2113 19.8618C22.2113 21.8884 20.6859 23.5094 18.2356 23.5094H18.1904C15.8331 23.5094 14.3076 21.8884 14.3076 19.8618C14.3076 17.7912 15.8783 16.2154 18.2821 16.2154C20.6846 16.2154 22.1661 17.7912 22.2113 19.8618ZM21.7489 26.3911V47.4996H14.7222V26.3911H21.7489ZM47.0837 47.4996V35.3966C47.0837 28.9125 43.6181 25.8951 38.9952 25.8951C35.2649 25.8951 33.5961 27.9437 32.6635 29.3813V26.3911H25.6368C25.7298 28.3726 25.6368 47.4996 25.6368 47.4996H32.6635V35.7105C32.6635 35.0802 32.7087 34.4511 32.8947 33.9991C33.4023 32.7384 34.5584 31.4338 36.4985 31.4338C39.043 31.4338 40.0596 33.37 40.0596 36.2065V47.4996H47.0837Z" fill="white"/>
</g>
<defs>
<clipPath id="clip0_93_525">
<rect width="62" height="62" fill="white"/>
</clipPath>
</defs>
</svg>
