<svg width="63" height="63" viewBox="0 0 63 63" fill="none" xmlns="http://www.w3.org/2000/svg">
<g clip-path="url(#clip0_93_522)">
<path d="M0.5 31.5C0.5 14.379 14.379 0.5 31.5 0.5C48.621 0.5 62.5 14.379 62.5 31.5C62.5 48.621 48.621 62.5 31.5 62.5C14.379 62.5 0.5 48.621 0.5 31.5Z" fill="#D9703C" stroke="white"/>
<path fill-rule="evenodd" clip-rule="evenodd" d="M31.0668 26.3091C31.0668 25.095 30.7492 24.0542 30.1153 23.1827C29.0587 21.7652 27.2671 21.0368 24.734 21H14.7V41.4842H24.0555C25.1107 41.4842 26.0872 41.3936 26.9902 41.2086C27.8932 41.0222 28.6728 40.6809 29.3343 40.1796C29.9236 39.7421 30.4228 39.1948 30.8043 38.5678C31.4225 37.6044 31.731 36.5151 31.731 35.301C31.731 34.1237 31.4606 33.1223 30.9238 32.3006C30.3804 31.4751 29.5811 30.8739 28.5219 30.492C29.2201 30.1403 29.7478 29.7504 30.1074 29.3265C30.7505 28.5653 31.0668 27.5599 31.0668 26.3091ZM45.0686 24.5044H36.1698V21.9555H45.0686V24.5044ZM37.2067 32.4109C37.3537 31.4252 37.7107 30.6429 38.2777 30.0668C38.8447 29.4893 39.6466 29.2005 40.6743 29.2005C41.6233 29.2005 42.4147 29.4722 43.0591 30.0156C43.6944 30.5642 44.054 31.3583 44.1275 32.4109H37.2067ZM44.2837 26.6438C45.356 27.1163 46.2393 27.8644 46.935 28.8855C47.5689 29.7859 47.9758 30.8306 48.1621 32.0171C48.2711 32.7114 48.3144 33.7168 48.296 35.0254H37.1083C37.1752 36.5426 37.7055 37.6084 38.7174 38.2187C39.329 38.5993 40.0653 38.7896 40.9316 38.7896C41.8425 38.7896 42.5866 38.5586 43.1576 38.0966C43.4726 37.8446 43.7482 37.4981 43.9845 37.0532H48.0847C47.9758 37.9496 47.4783 38.8644 46.5976 39.7924C45.2221 41.2624 43.2954 42 40.8213 42C38.7765 42 36.9718 41.3805 35.4138 40.1363C33.8467 38.8959 33.0684 36.8721 33.0684 34.0725C33.0684 31.4475 33.7745 29.4354 35.1815 28.035C36.5951 26.6359 38.4234 25.9324 40.673 25.9324C42.0105 25.9324 43.2127 26.1699 44.2837 26.6438ZM18.8383 37.9286V32.466H23.9518C24.8403 32.4739 25.5333 32.5907 26.0281 32.8125C26.9101 33.2128 27.3498 33.9426 27.3498 35.0109C27.3498 36.2709 26.8944 37.1201 25.9848 37.5677C25.4848 37.8079 24.7813 37.9286 23.8809 37.9286H18.8383ZM18.8383 24.5569V29.0771H23.8888C24.7865 29.0771 25.5202 28.9065 26.0846 28.5679C26.6463 28.2293 26.9285 27.6281 26.9285 26.7698C26.9285 25.8143 26.5571 25.1843 25.8142 24.8758C25.1711 24.6645 24.3521 24.5569 23.3598 24.5569H18.8383Z" fill="white"/>
</g>
<defs>
<clipPath id="clip0_93_522">
<rect width="63" height="63" fill="white"/>
</clipPath>
</defs>
</svg>
