<svg width="65" height="65" viewBox="0 0 65 65" fill="none" xmlns="http://www.w3.org/2000/svg">
<g clip-path="url(#clip0_93_515)">
<path d="M32.2072 0.5C49.7186 0.5 63.9144 14.6958 63.9144 32.2072C63.9144 49.7186 49.7186 63.9144 32.2072 63.9144C14.6958 63.9144 0.5 49.7186 0.5 32.2072C0.5 14.6958 14.6958 0.5 32.2072 0.5Z" fill="#D9703C" stroke="white"/>
<path opacity="0.3" d="M50.3228 17.447H14.0923L15.4343 46.6328H48.9809L50.3228 17.447Z" fill="white"/>
<path opacity="0.3" d="M50.3228 17.447H14.0923L30.7814 29.9006H33.8847L50.3228 17.447Z" fill="white"/>
<path opacity="0.1" d="M17.1101 46.6333L32.2072 33.0459L47.3044 46.6333H17.1101Z" fill="white"/>
<path fill-rule="evenodd" clip-rule="evenodd" d="M17.1113 19.9634C17.1113 18.5746 15.9862 17.4473 14.5954 17.4473C13.2065 17.4473 12.0793 18.5746 12.0793 19.9634C12.0793 25.3214 12.0793 37.839 12.0793 43.6138C12.0793 45.2825 13.4319 46.6331 15.0985 46.6331C16.1694 46.6331 17.1113 46.6331 17.1113 46.6331C17.1113 46.6331 17.1113 27.0464 17.1113 19.9634ZM47.3036 19.9631C47.3036 18.5742 48.4307 17.447 49.8195 17.447H49.8235C51.2123 17.447 52.3355 18.5721 52.3355 19.9591C52.3355 25.3151 52.3355 37.8367 52.3355 43.6135C52.3355 45.2821 50.985 46.6328 49.3163 46.6328C48.2475 46.6328 47.3036 46.6328 47.3036 46.6328C47.3036 46.6328 47.3036 27.0461 47.3036 19.9631Z" fill="white"/>
<path fill-rule="evenodd" clip-rule="evenodd" d="M13.335 22.1408C12.7574 21.8067 12.3367 21.2593 12.1636 20.6152C11.9905 19.971 12.0811 19.2867 12.4152 18.709L12.4172 18.705C12.7513 18.1273 13.3008 17.7066 13.945 17.5336C14.589 17.3605 15.2754 17.4511 15.8531 17.7851L32.2071 27.2272L48.5652 17.7831C49.1429 17.4491 49.8273 17.3585 50.4713 17.5316C51.1154 17.7046 51.663 18.1253 51.9971 18.703L51.9991 18.705C52.3331 19.2827 52.4237 19.971 52.2506 20.6152C52.0776 21.2593 51.6549 21.8087 51.0772 22.1428L37.2391 30.1317L32.2071 33.0381L27.1752 30.1317L13.335 22.1408Z" fill="white"/>
</g>
<defs>
<clipPath id="clip0_93_515">
<rect width="64.4144" height="64.4144" fill="white"/>
</clipPath>
</defs>
</svg>
