<svg width="50" height="50" viewBox="0 0 50 50" fill="none" xmlns="http://www.w3.org/2000/svg">
<circle cx="26" cy="26" r="21" fill="white"/>
<path d="M47.4697 25C47.4697 12.5907 37.4093 2.53027 25 2.53027C12.5907 2.53027 2.53034 12.5907 2.53034 25C2.53034 37.4093 12.5907 47.4697 25 47.4697C37.4093 47.4697 47.4697 37.4093 47.4697 25ZM5.61031 25C5.61031 14.3129 14.313 5.61024 25 5.61024C35.6871 5.61024 44.3898 14.3129 44.3898 25C44.3898 35.687 35.6871 44.3897 25 44.3897C14.313 44.3897 5.61031 35.687 5.61031 25Z" fill="#D9703C" stroke="#D9703C"/>
<path d="M26.1215 13.551L26.1206 13.5502C25.9799 13.4177 25.779 13.2907 25.5643 13.2233C25.2093 13.1119 24.7811 13.1011 24.434 13.2276C24.2243 13.296 24.0288 13.4205 23.8911 13.5502L23.8901 13.551L15.1268 21.8457C15.1266 21.8459 15.1264 21.846 15.1263 21.8462C14.792 22.1612 14.6517 22.5527 14.6517 22.9367C14.6517 23.3208 14.7922 23.7125 15.1268 24.0276C15.728 24.5938 16.755 24.5938 17.3563 24.0276L23.416 18.3216L23.416 35.3373C23.416 36.1972 24.1681 36.8635 25.0058 36.8635C25.8571 36.8635 26.5957 36.1842 26.5957 35.2945L26.5957 18.3216L32.6554 24.0276C33.2566 24.5938 34.2836 24.5938 34.8849 24.0276C35.5031 23.4455 35.5032 22.4284 34.8853 21.8461C34.8851 21.846 34.885 21.8458 34.8849 21.8457L26.1215 13.551Z" fill="#D9703C" stroke="#D9703C"/>
</svg>
