<svg width="65" height="65" viewBox="0 0 65 65" fill="none" xmlns="http://www.w3.org/2000/svg">
<path opacity="0.3" d="M50.3228 17.4473H14.0923L30.7814 29.9008H33.8847L50.3228 17.4473Z" fill="white"/>
<path opacity="0.1" d="M17.1099 46.6333L32.207 33.0459L47.3041 46.6333H17.1099Z" fill="white"/>
<path fill-rule="evenodd" clip-rule="evenodd" d="M17.1116 19.9636C17.1116 18.5748 15.9865 17.4475 14.5957 17.4475C13.2068 17.4475 12.0796 18.5748 12.0796 19.9636C12.0796 25.3217 12.0796 37.8393 12.0796 43.614C12.0796 45.2827 13.4322 46.6333 15.0988 46.6333C16.1697 46.6333 17.1116 46.6333 17.1116 46.6333C17.1116 46.6333 17.1116 27.0466 17.1116 19.9636ZM47.3038 19.9633C47.3038 18.5744 48.4309 17.4473 49.8197 17.4473H49.8238C51.2126 17.4473 52.3358 18.5724 52.3358 19.9593C52.3358 25.3153 52.3358 37.837 52.3358 43.6137C52.3358 45.2823 50.9852 46.633 49.3165 46.633C48.2478 46.633 47.3038 46.633 47.3038 46.633C47.3038 46.633 47.3038 27.0464 47.3038 19.9633Z" fill="white"/>
<path fill-rule="evenodd" clip-rule="evenodd" d="M13.335 22.141C12.7574 21.8069 12.3367 21.2595 12.1636 20.6153C11.9905 19.9712 12.0811 19.2869 12.4152 18.7092L12.4172 18.7052C12.7513 18.1275 13.3008 17.7068 13.945 17.5338C14.589 17.3607 15.2754 17.4512 15.8531 17.7853L32.2071 27.2273L48.5652 17.7833C49.1429 17.4492 49.8273 17.3587 50.4713 17.5318C51.1154 17.7047 51.663 18.1255 51.9971 18.7032L51.9991 18.7052C52.3331 19.2829 52.4237 19.9712 52.2506 20.6153C52.0776 21.2595 51.6549 21.8089 51.0772 22.143L37.2391 30.1319L32.2071 33.0383L27.1752 30.1319L13.335 22.141Z" fill="white"/>
</svg>
