<svg width="69" height="71" viewBox="0 0 69 71" fill="none" xmlns="http://www.w3.org/2000/svg">
<mask id="path-1-inside-1_230_241" fill="white">
<path fill-rule="evenodd" clip-rule="evenodd" d="M47.3397 26.5404H10.8285C9.4598 26.5404 8.1595 27.1069 7.20138 28.0983C6.24326 29.0896 5.69576 30.4527 5.69576 31.8512C5.69894 32.949 6.02921 34.0191 6.64155 34.9156C7.2539 35.8121 8.11854 36.4915 9.11761 36.861V39.0385H5.88397C2.9925 39.0385 0.562988 41.5876 0.562988 44.7564C0.614316 47.9075 3.04383 50.4212 5.91818 50.4035H9.11761V59.2194C9.11761 65.5923 14.0793 70.7969 20.0675 70.7969H49.4955C55.4837 70.7969 60.4454 65.5746 60.4454 59.2194V50.4035H63.7132C66.5876 50.3858 69 47.8366 69 44.6856C69 44.7387 69 44.6325 69 44.6856C68.9487 41.5876 66.5534 38.95 63.7132 38.9322H60.4454V36.861C61.4451 36.4926 62.3105 35.8135 62.923 34.9168C63.5355 34.02 63.8653 32.9493 63.8672 31.8512C63.8672 30.4527 63.3197 29.0896 62.3616 28.0983C61.4035 27.1069 60.0861 26.5404 58.7344 26.5404H56.5102L61.7115 14.4142C62.7893 11.9358 61.8141 8.92637 59.5728 7.65178H59.5557C58.8713 7.26232 58.1014 7.06759 57.3144 7.06759C55.2784 7.06759 53.4306 8.43069 52.7291 10.5019L47.3397 26.5404ZM12.5395 37.162V59.2194C12.5395 63.6274 15.9271 67.2564 20.0675 67.2564H49.4955C53.6359 67.2564 57.0235 63.6097 57.0235 59.2194V37.162H12.5395ZM14.2504 51.3241V58.3874C14.2504 60.2639 14.969 62.0872 16.2693 63.4149C17.5573 64.7501 19.3051 65.5014 21.1283 65.5038H24.5331C25.4741 65.5038 26.244 64.7072 26.244 63.7336C26.244 62.7599 25.4741 61.9633 24.5331 61.9633H21.1283C20.2215 61.9633 19.3318 61.5916 18.6988 60.9189C18.0486 60.2462 17.6894 59.3433 17.6894 58.4051V51.3418C17.6894 50.3681 16.9194 49.5715 15.9784 49.5715C15.0374 49.5715 14.2675 50.3681 14.2675 51.3418L14.2504 51.3241ZM41.6252 40.7025C41.6252 39.7289 40.8553 38.9322 39.9143 38.9322H29.6487C28.7077 38.9322 27.9378 39.7289 27.9378 40.7025V46.0133C27.9378 46.9869 28.7077 47.7835 29.6487 47.7835H39.9143C40.8553 47.7835 41.6252 46.9869 41.6252 46.0133V40.7025ZM60.4454 42.4728H63.6961C64.7398 42.4728 65.561 43.5526 65.5782 44.6856C65.5782 45.8363 64.7569 46.8453 63.6961 46.863H60.4454V42.4728ZM9.11761 46.8453H5.90108C4.8403 46.8453 4.01906 45.8717 3.98484 44.7387C3.98484 43.5703 4.82319 42.5613 5.88397 42.5613H9.11761V46.8453ZM38.2033 42.4728V44.243H31.3596V42.4728H38.2033ZM58.7344 33.6215H10.8285C10.3666 33.6215 9.93886 33.4267 9.61378 33.1081C9.28871 32.7717 9.11761 32.3292 9.11761 31.8512C9.11761 31.3732 9.30582 30.9307 9.61378 30.5943C9.77309 30.4295 9.96258 30.2991 10.1712 30.211C10.3797 30.1228 10.6032 30.0786 10.8285 30.081H58.7344C59.1964 30.081 59.6241 30.2757 59.9492 30.5943C60.2743 30.9307 60.4454 31.3732 60.4454 31.8512C60.4454 32.3292 60.2572 32.7717 59.9492 33.1081C59.7899 33.273 59.6004 33.4033 59.3918 33.4914C59.1832 33.5796 58.9598 33.6238 58.7344 33.6215ZM52.7633 26.5404L58.5805 12.9626C58.9227 12.1482 58.666 11.1746 57.9303 10.7497C57.7407 10.6453 57.5292 10.5906 57.3144 10.5904C56.6984 10.5904 56.1681 11.033 55.9456 11.6526L50.9497 26.5227H52.7633V26.5404ZM34.0287 0.163586C34.0287 0.163586 30.5042 2.00465 29.7856 5.33274C29.3236 7.45705 29.854 10.3603 33.6694 13.7238C36.0134 15.7773 36.7148 17.3528 36.424 18.6451C36.0305 20.4685 34.0116 21.4067 34.0116 21.4067C33.8091 21.5087 33.628 21.651 33.4788 21.8255C33.3296 22 33.2152 22.2033 33.142 22.4237C33.0689 22.6441 33.0386 22.8772 33.0527 23.1098C33.0669 23.3423 33.1253 23.5697 33.2246 23.7788C33.3231 23.9884 33.4607 24.1757 33.6293 24.3301C33.798 24.4845 33.9945 24.6029 34.2075 24.6785C34.4205 24.7542 34.6458 24.7856 34.8706 24.7709C35.0953 24.7563 35.3151 24.6959 35.5172 24.5932C35.5172 24.5932 39.0417 22.7521 39.7603 19.424C40.2222 17.2997 39.6918 14.3788 35.8765 11.033C33.5325 8.97947 32.831 7.42165 33.1219 6.11165C33.5154 4.28829 35.5172 3.36775 35.5172 3.36775C35.7197 3.26579 35.9007 3.12347 36.05 2.94895C36.1992 2.77443 36.3136 2.57115 36.3867 2.35076C36.4599 2.13037 36.4902 1.89722 36.476 1.66467C36.4619 1.43212 36.4035 1.20476 36.3042 0.995608C36.2057 0.786091 36.0681 0.598765 35.8995 0.444374C35.7308 0.289982 35.5343 0.171564 35.3213 0.0959087C35.1083 0.0202538 34.883 -0.0111482 34.6582 0.00350315C34.4335 0.0181545 34.2137 0.0785716 34.0116 0.181289L34.0287 0.163586ZM44.3113 3.75721C44.3113 3.75721 42.0187 5.12031 41.5397 7.59867C41.2488 9.1388 41.5397 11.21 43.9349 13.6353C45.1155 14.8213 45.509 15.7242 45.3721 16.4854C45.201 17.4236 44.2942 17.9193 44.2942 17.9193C43.9253 18.1627 43.6606 18.5431 43.5544 18.9823C43.4483 19.4215 43.5088 19.8861 43.7235 20.2806C43.9382 20.675 44.2908 20.9694 44.7089 21.1031C45.1269 21.2368 45.5785 21.1998 45.9709 20.9995C45.9709 20.9995 48.2636 19.6364 48.7255 17.1404C49.0164 15.6002 48.7255 13.529 46.3302 11.1038C45.1668 9.91771 44.7562 9.01488 44.8931 8.27137C45.0642 7.33313 45.9709 6.83746 45.9709 6.83746C46.7922 6.35949 47.083 5.27963 46.6382 4.42991C46.1763 3.58019 45.1326 3.27924 44.3113 3.73951V3.75721ZM23.4723 3.77491C23.4723 3.77491 21.2481 5.12031 20.8032 7.61637C20.5295 9.1388 20.8203 11.21 23.113 13.6176C24.2422 14.8213 24.6357 15.7419 24.4988 16.5031C24.3277 17.4413 23.4723 17.937 23.4723 17.937C22.651 18.4327 22.3773 19.5125 22.8563 20.3622C23.3354 21.212 24.3791 21.4952 25.2003 20.9995C25.2003 20.9995 27.4245 19.6364 27.8694 17.1404C28.1431 15.6179 27.8522 13.5467 25.5596 11.1392C24.4304 9.93541 24.0369 9.01488 24.1738 8.27137C24.3448 7.33313 25.2003 6.83746 25.2003 6.83746C26.0216 6.34179 26.2953 5.26193 25.8162 4.41221C25.7034 4.21048 25.553 4.03387 25.3739 3.89253C25.1948 3.75119 24.9904 3.64793 24.7725 3.58869C24.5546 3.52945 24.3275 3.5154 24.1044 3.54737C23.8812 3.57933 23.6664 3.65666 23.4723 3.77491Z"/>
</mask>
<path fill-rule="evenodd" clip-rule="evenodd" d="M47.3397 26.5404H10.8285C9.4598 26.5404 8.1595 27.1069 7.20138 28.0983C6.24326 29.0896 5.69576 30.4527 5.69576 31.8512C5.69894 32.949 6.02921 34.0191 6.64155 34.9156C7.2539 35.8121 8.11854 36.4915 9.11761 36.861V39.0385H5.88397C2.9925 39.0385 0.562988 41.5876 0.562988 44.7564C0.614316 47.9075 3.04383 50.4212 5.91818 50.4035H9.11761V59.2194C9.11761 65.5923 14.0793 70.7969 20.0675 70.7969H49.4955C55.4837 70.7969 60.4454 65.5746 60.4454 59.2194V50.4035H63.7132C66.5876 50.3858 69 47.8366 69 44.6856C69 44.7387 69 44.6325 69 44.6856C68.9487 41.5876 66.5534 38.95 63.7132 38.9322H60.4454V36.861C61.4451 36.4926 62.3105 35.8135 62.923 34.9168C63.5355 34.02 63.8653 32.9493 63.8672 31.8512C63.8672 30.4527 63.3197 29.0896 62.3616 28.0983C61.4035 27.1069 60.0861 26.5404 58.7344 26.5404H56.5102L61.7115 14.4142C62.7893 11.9358 61.8141 8.92637 59.5728 7.65178H59.5557C58.8713 7.26232 58.1014 7.06759 57.3144 7.06759C55.2784 7.06759 53.4306 8.43069 52.7291 10.5019L47.3397 26.5404ZM12.5395 37.162V59.2194C12.5395 63.6274 15.9271 67.2564 20.0675 67.2564H49.4955C53.6359 67.2564 57.0235 63.6097 57.0235 59.2194V37.162H12.5395ZM14.2504 51.3241V58.3874C14.2504 60.2639 14.969 62.0872 16.2693 63.4149C17.5573 64.7501 19.3051 65.5014 21.1283 65.5038H24.5331C25.4741 65.5038 26.244 64.7072 26.244 63.7336C26.244 62.7599 25.4741 61.9633 24.5331 61.9633H21.1283C20.2215 61.9633 19.3318 61.5916 18.6988 60.9189C18.0486 60.2462 17.6894 59.3433 17.6894 58.4051V51.3418C17.6894 50.3681 16.9194 49.5715 15.9784 49.5715C15.0374 49.5715 14.2675 50.3681 14.2675 51.3418L14.2504 51.3241ZM41.6252 40.7025C41.6252 39.7289 40.8553 38.9322 39.9143 38.9322H29.6487C28.7077 38.9322 27.9378 39.7289 27.9378 40.7025V46.0133C27.9378 46.9869 28.7077 47.7835 29.6487 47.7835H39.9143C40.8553 47.7835 41.6252 46.9869 41.6252 46.0133V40.7025ZM60.4454 42.4728H63.6961C64.7398 42.4728 65.561 43.5526 65.5782 44.6856C65.5782 45.8363 64.7569 46.8453 63.6961 46.863H60.4454V42.4728ZM9.11761 46.8453H5.90108C4.8403 46.8453 4.01906 45.8717 3.98484 44.7387C3.98484 43.5703 4.82319 42.5613 5.88397 42.5613H9.11761V46.8453ZM38.2033 42.4728V44.243H31.3596V42.4728H38.2033ZM58.7344 33.6215H10.8285C10.3666 33.6215 9.93886 33.4267 9.61378 33.1081C9.28871 32.7717 9.11761 32.3292 9.11761 31.8512C9.11761 31.3732 9.30582 30.9307 9.61378 30.5943C9.77309 30.4295 9.96258 30.2991 10.1712 30.211C10.3797 30.1228 10.6032 30.0786 10.8285 30.081H58.7344C59.1964 30.081 59.6241 30.2757 59.9492 30.5943C60.2743 30.9307 60.4454 31.3732 60.4454 31.8512C60.4454 32.3292 60.2572 32.7717 59.9492 33.1081C59.7899 33.273 59.6004 33.4033 59.3918 33.4914C59.1832 33.5796 58.9598 33.6238 58.7344 33.6215ZM52.7633 26.5404L58.5805 12.9626C58.9227 12.1482 58.666 11.1746 57.9303 10.7497C57.7407 10.6453 57.5292 10.5906 57.3144 10.5904C56.6984 10.5904 56.1681 11.033 55.9456 11.6526L50.9497 26.5227H52.7633V26.5404ZM34.0287 0.163586C34.0287 0.163586 30.5042 2.00465 29.7856 5.33274C29.3236 7.45705 29.854 10.3603 33.6694 13.7238C36.0134 15.7773 36.7148 17.3528 36.424 18.6451C36.0305 20.4685 34.0116 21.4067 34.0116 21.4067C33.8091 21.5087 33.628 21.651 33.4788 21.8255C33.3296 22 33.2152 22.2033 33.142 22.4237C33.0689 22.6441 33.0386 22.8772 33.0527 23.1098C33.0669 23.3423 33.1253 23.5697 33.2246 23.7788C33.3231 23.9884 33.4607 24.1757 33.6293 24.3301C33.798 24.4845 33.9945 24.6029 34.2075 24.6785C34.4205 24.7542 34.6458 24.7856 34.8706 24.7709C35.0953 24.7563 35.3151 24.6959 35.5172 24.5932C35.5172 24.5932 39.0417 22.7521 39.7603 19.424C40.2222 17.2997 39.6918 14.3788 35.8765 11.033C33.5325 8.97947 32.831 7.42165 33.1219 6.11165C33.5154 4.28829 35.5172 3.36775 35.5172 3.36775C35.7197 3.26579 35.9007 3.12347 36.05 2.94895C36.1992 2.77443 36.3136 2.57115 36.3867 2.35076C36.4599 2.13037 36.4902 1.89722 36.476 1.66467C36.4619 1.43212 36.4035 1.20476 36.3042 0.995608C36.2057 0.786091 36.0681 0.598765 35.8995 0.444374C35.7308 0.289982 35.5343 0.171564 35.3213 0.0959087C35.1083 0.0202538 34.883 -0.0111482 34.6582 0.00350315C34.4335 0.0181545 34.2137 0.0785716 34.0116 0.181289L34.0287 0.163586ZM44.3113 3.75721C44.3113 3.75721 42.0187 5.12031 41.5397 7.59867C41.2488 9.1388 41.5397 11.21 43.9349 13.6353C45.1155 14.8213 45.509 15.7242 45.3721 16.4854C45.201 17.4236 44.2942 17.9193 44.2942 17.9193C43.9253 18.1627 43.6606 18.5431 43.5544 18.9823C43.4483 19.4215 43.5088 19.8861 43.7235 20.2806C43.9382 20.675 44.2908 20.9694 44.7089 21.1031C45.1269 21.2368 45.5785 21.1998 45.9709 20.9995C45.9709 20.9995 48.2636 19.6364 48.7255 17.1404C49.0164 15.6002 48.7255 13.529 46.3302 11.1038C45.1668 9.91771 44.7562 9.01488 44.8931 8.27137C45.0642 7.33313 45.9709 6.83746 45.9709 6.83746C46.7922 6.35949 47.083 5.27963 46.6382 4.42991C46.1763 3.58019 45.1326 3.27924 44.3113 3.73951V3.75721ZM23.4723 3.77491C23.4723 3.77491 21.2481 5.12031 20.8032 7.61637C20.5295 9.1388 20.8203 11.21 23.113 13.6176C24.2422 14.8213 24.6357 15.7419 24.4988 16.5031C24.3277 17.4413 23.4723 17.937 23.4723 17.937C22.651 18.4327 22.3773 19.5125 22.8563 20.3622C23.3354 21.212 24.3791 21.4952 25.2003 20.9995C25.2003 20.9995 27.4245 19.6364 27.8694 17.1404C28.1431 15.6179 27.8522 13.5467 25.5596 11.1392C24.4304 9.93541 24.0369 9.01488 24.1738 8.27137C24.3448 7.33313 25.2003 6.83746 25.2003 6.83746C26.0216 6.34179 26.2953 5.26193 25.8162 4.41221C25.7034 4.21048 25.553 4.03387 25.3739 3.89253C25.1948 3.75119 24.9904 3.64793 24.7725 3.58869C24.5546 3.52945 24.3275 3.5154 24.1044 3.54737C23.8812 3.57933 23.6664 3.65666 23.4723 3.77491Z" fill="white"/>
<path d="M47.3397 26.5404V27.5404H48.0586L48.2876 26.859L47.3397 26.5404ZM5.69576 31.8512L4.69576 31.8512L4.69577 31.8541L5.69576 31.8512ZM9.11761 36.861H10.1176V36.1647L9.46455 35.9232L9.11761 36.861ZM9.11761 39.0385V40.0385H10.1176V39.0385H9.11761ZM0.562988 44.7564H-0.437012V44.7645L-0.436879 44.7727L0.562988 44.7564ZM5.91818 50.4035L5.91818 49.4035L5.91203 49.4035L5.91818 50.4035ZM9.11761 50.4035H10.1176V49.4035H9.11761V50.4035ZM60.4454 50.4035V49.4035H59.4454V50.4035H60.4454ZM63.7132 50.4035L63.7132 51.4035L63.7194 51.4035L63.7132 50.4035ZM63.7132 38.9322L63.7195 37.9322H63.7132V38.9322ZM60.4454 38.9322H59.4454V39.9322H60.4454V38.9322ZM60.4454 36.861L60.0996 35.9227L59.4454 36.1638V36.861H60.4454ZM63.8672 31.8512L64.8672 31.853V31.8512L63.8672 31.8512ZM56.5102 26.5404L55.5912 26.1462L54.9932 27.5404H56.5102V26.5404ZM61.7115 14.4142L60.7944 14.0153L60.7924 14.02L61.7115 14.4142ZM59.5728 7.65178L60.0671 6.78251L59.8373 6.65178H59.5728V7.65178ZM59.5557 7.65178L59.0611 8.5209L59.2911 8.65178H59.5557V7.65178ZM52.7291 10.5019L51.7819 10.1811L51.7812 10.1834L52.7291 10.5019ZM12.5395 37.162V36.162H11.5395V37.162H12.5395ZM57.0235 37.162H58.0235V36.162H57.0235V37.162ZM14.2504 51.3241L14.9694 50.629L13.2504 48.8508V51.3241H14.2504ZM16.2693 63.4149L16.989 62.7206L16.9837 62.7152L16.2693 63.4149ZM21.1283 65.5038L21.127 66.5038H21.1283V65.5038ZM18.6988 60.9189L19.4271 60.2335L19.4179 60.2239L18.6988 60.9189ZM14.2675 51.3418L13.5485 52.0368L15.2675 53.815V51.3418H14.2675ZM60.4454 42.4728V41.4728H59.4454V42.4728H60.4454ZM65.5782 44.6856H66.5782V44.678L66.578 44.6705L65.5782 44.6856ZM63.6961 46.863V47.863H63.7045L63.7128 47.8629L63.6961 46.863ZM60.4454 46.863H59.4454V47.863H60.4454V46.863ZM9.11761 46.8453V47.8453H10.1176V46.8453H9.11761ZM3.98484 44.7387H2.98484V44.7538L2.98529 44.7689L3.98484 44.7387ZM9.11761 42.5613H10.1176V41.5613H9.11761V42.5613ZM38.2033 42.4728H39.2033V41.4728H38.2033V42.4728ZM38.2033 44.243V45.243H39.2033V44.243H38.2033ZM31.3596 44.243H30.3596V45.243H31.3596V44.243ZM31.3596 42.4728V41.4728H30.3596V42.4728H31.3596ZM58.7344 33.6215L58.7448 32.6215H58.7344V33.6215ZM9.61378 33.1081L8.89473 33.8031L8.90412 33.8128L8.91377 33.8222L9.61378 33.1081ZM9.61378 30.5943L8.89464 29.8995L8.88531 29.9091L8.87624 29.919L9.61378 30.5943ZM10.8285 30.081L10.8182 31.081H10.8285V30.081ZM59.9492 30.5943L60.6683 29.8994L60.6589 29.8897L60.6492 29.8802L59.9492 30.5943ZM59.9492 33.1081L60.6683 33.803L60.6777 33.7933L60.6867 33.7834L59.9492 33.1081ZM52.7633 26.5404H51.7633L53.6825 26.9342L52.7633 26.5404ZM58.5805 12.9626L59.4997 13.3564L59.5024 13.35L58.5805 12.9626ZM57.9303 10.7497L58.4304 9.88376L58.4215 9.87865L58.4126 9.87371L57.9303 10.7497ZM57.3144 10.5904L57.3154 9.59041H57.3144L57.3144 10.5904ZM55.9456 11.6526L55.0044 11.3147L55.001 11.3244L54.9977 11.3341L55.9456 11.6526ZM50.9497 26.5227L50.0018 26.2043L49.5588 27.5227H50.9497V26.5227ZM52.7633 26.5227H53.7633V25.5227H52.7633V26.5227ZM34.0287 0.163586L34.7477 0.85854L33.5657 -0.722773L34.0287 0.163586ZM29.7856 5.33274L30.7628 5.54523L30.7631 5.54379L29.7856 5.33274ZM33.6694 13.7238L33.0081 14.4739L33.0104 14.4759L33.6694 13.7238ZM36.424 18.6451L35.4483 18.4255L35.4465 18.4341L36.424 18.6451ZM34.0116 21.4067L33.5901 20.4998L33.5759 20.5065L33.5618 20.5135L34.0116 21.4067ZM33.2246 23.7788L34.1295 23.3532L34.1279 23.35L33.2246 23.7788ZM35.5172 24.5932L35.9702 25.4847L35.9802 25.4795L35.5172 24.5932ZM39.7603 19.424L38.7831 19.2115L38.7828 19.2129L39.7603 19.424ZM35.8765 11.033L36.5358 10.2811L36.5355 10.2808L35.8765 11.033ZM33.1219 6.11165L34.0981 6.32841L34.0994 6.32261L33.1219 6.11165ZM35.5172 3.36775L35.935 4.27629L35.9511 4.26889L35.9669 4.26091L35.5172 3.36775ZM36.3042 0.995608L35.3993 1.42123L35.4008 1.42441L36.3042 0.995608ZM34.0116 0.181289L33.2925 -0.513665L34.4646 1.07279L34.0116 0.181289ZM44.3113 3.75721L44.8224 4.61676L45.3113 4.32605V3.75721H44.3113ZM41.5397 7.59867L40.5578 7.40889L40.557 7.4131L41.5397 7.59867ZM43.9349 13.6353L43.2235 14.338L43.2262 14.3407L43.9349 13.6353ZM45.3721 16.4854L46.3559 16.6648L46.3563 16.6623L45.3721 16.4854ZM44.2942 17.9193L43.8146 17.0418L43.7781 17.0617L43.7435 17.0846L44.2942 17.9193ZM45.9709 20.9995L46.4254 21.8903L46.9709 21.6119V20.9995H45.9709ZM48.7255 17.1404L47.7429 16.9548L47.7422 16.9584L48.7255 17.1404ZM46.3302 11.1038L45.6163 11.804L45.6188 11.8065L46.3302 11.1038ZM44.8931 8.27137L45.8765 8.45242L45.8768 8.45077L44.8931 8.27137ZM45.9709 6.83746L46.4506 7.71492L46.4624 7.70849L46.474 7.70174L45.9709 6.83746ZM46.6382 4.42991L47.5241 3.96611L47.5205 3.95917L47.5168 3.95228L46.6382 4.42991ZM44.3113 3.73951L43.8224 2.86717L43.3113 3.15361V3.73951H44.3113ZM23.4723 3.77491L23.9898 4.63056L23.9925 4.62895L23.4723 3.77491ZM20.8032 7.61637L21.7875 7.79335L21.7877 7.79183L20.8032 7.61637ZM23.113 13.6176L23.8423 12.9334L23.8372 12.9279L23.113 13.6176ZM24.4988 16.5031L25.4826 16.6825L25.483 16.68L24.4988 16.5031ZM23.4723 17.937L22.9709 17.0717L22.9632 17.0762L22.9555 17.0808L23.4723 17.937ZM25.2003 20.9995L25.7171 21.8557L25.7228 21.8522L25.2003 20.9995ZM27.8694 17.1404L26.8851 16.9634L26.8849 16.9649L27.8694 17.1404ZM25.5596 11.1392L24.8303 11.8234L24.8354 11.8288L25.5596 11.1392ZM24.1738 8.27137L25.1572 8.45242L25.1575 8.45077L24.1738 8.27137ZM25.2003 6.83746L25.7017 7.70271L25.7094 7.69823L25.717 7.6936L25.2003 6.83746ZM25.8162 4.41221L24.9436 4.90051L24.9451 4.90332L25.8162 4.41221ZM47.3397 25.5404H10.8285V27.5404H47.3397V25.5404ZM10.8285 25.5404C9.1803 25.5404 7.62297 26.2231 6.48232 27.4033L7.92043 28.7932C8.69603 27.9907 9.7393 27.5404 10.8285 27.5404V25.5404ZM6.48232 27.4033C5.34146 28.5837 4.69576 30.1971 4.69576 31.8512H6.69576C6.69576 30.7084 7.14506 29.5955 7.92043 28.7932L6.48232 27.4033ZM4.69577 31.8541C4.69951 33.1498 5.08915 34.4158 5.81579 35.4796L7.46731 34.3516C6.96926 33.6224 6.69836 32.7482 6.69576 31.8483L4.69577 31.8541ZM5.81579 35.4796C6.54271 36.5439 7.57312 37.3559 8.77068 37.7989L9.46455 35.9232C8.66395 35.627 7.96509 35.0804 7.46731 34.3516L5.81579 35.4796ZM8.11761 36.861V39.0385H10.1176V36.861H8.11761ZM9.11761 38.0385H5.88397V40.0385H9.11761V38.0385ZM5.88397 38.0385C2.38041 38.0385 -0.437012 41.0971 -0.437012 44.7564H1.56299C1.56299 42.0782 3.60459 40.0385 5.88397 40.0385V38.0385ZM-0.436879 44.7727C-0.377703 48.4056 2.43752 51.425 5.92434 51.4035L5.91203 49.4035C3.65014 49.4175 1.60633 47.4093 1.56286 44.7401L-0.436879 44.7727ZM5.91818 51.4035H9.11761V49.4035H5.91818V51.4035ZM8.11761 50.4035V59.2194H10.1176V50.4035H8.11761ZM8.11761 59.2194C8.11761 66.0938 13.4775 71.7969 20.0675 71.7969V69.7969C14.6811 69.7969 10.1176 65.0909 10.1176 59.2194H8.11761ZM20.0675 71.7969H49.4955V69.7969H20.0675V71.7969ZM49.4955 71.7969C56.0865 71.7969 61.4454 66.0751 61.4454 59.2194H59.4454C59.4454 65.0742 54.8809 69.7969 49.4955 69.7969V71.7969ZM61.4454 59.2194V50.4035H59.4454V59.2194H61.4454ZM60.4454 51.4035H63.7132V49.4035H60.4454V51.4035ZM63.7194 51.4035C67.2037 51.382 70 48.3245 70 44.6856H68C68 47.3488 65.9715 49.3896 63.7071 49.4035L63.7194 51.4035ZM70 44.6856C70 44.6855 70 44.6854 70 44.6853C70 44.6852 70 44.6851 70 44.685C70 44.6849 70 44.6848 70 44.6847C70 44.6846 70 44.6845 70 44.6844C70 44.6843 70 44.6842 70 44.6841C70 44.684 70 44.6839 70 44.6838C70 44.6837 70 44.6836 70 44.6835C70 44.6834 70 44.6833 70 44.6832C70 44.6831 70 44.683 70 44.6829C70 44.6828 70 44.6827 70 44.6827C70 44.6826 70 44.6825 70 44.6824C70 44.6823 70 44.6822 70 44.6821C70 44.682 70 44.6819 70 44.6818C70 44.6818 70 44.6817 70 44.6816C70 44.6815 70 44.6814 70 44.6813C70 44.6812 70 44.6812 70 44.6811C70 44.681 70 44.6809 70 44.6808C70 44.6807 70 44.6806 70 44.6806C70 44.6805 70 44.6804 70 44.6803C70 44.6802 70 44.6802 70 44.6801C70 44.68 70 44.6799 70 44.6798C70 44.6798 70 44.6797 70 44.6796C70 44.6795 70 44.6794 70 44.6794C70 44.6793 70 44.6792 70 44.6791C70 44.6791 70 44.679 70 44.6789C70 44.6788 70 44.6788 70 44.6787C70 44.6786 70 44.6785 70 44.6785C70 44.6784 70 44.6783 70 44.6783C70 44.6782 70 44.6781 70 44.678C70 44.678 70 44.6779 70 44.6778C70 44.6778 70 44.6777 70 44.6776C70 44.6776 70 44.6775 70 44.6774C70 44.6774 70 44.6773 70 44.6772C70 44.6772 70 44.6771 70 44.677C70 44.677 70 44.6769 70 44.6768C70 44.6768 70 44.6767 70 44.6766C70 44.6766 70 44.6765 70 44.6765C70 44.6764 70 44.6763 70 44.6763C70 44.6762 70 44.6761 70 44.6761C70 44.676 70 44.676 70 44.6759C70 44.6758 70 44.6758 70 44.6757C70 44.6757 70 44.6756 70 44.6756C70 44.6755 70 44.6754 70 44.6754C70 44.6753 70 44.6753 70 44.6752C70 44.6752 70 44.6751 70 44.6751C70 44.675 70 44.675 70 44.6749C70 44.6748 70 44.6748 70 44.6747C70 44.6747 70 44.6746 70 44.6746C70 44.6745 70 44.6745 70 44.6744C70 44.6744 70 44.6743 70 44.6743C70 44.6742 70 44.6742 70 44.6741C70 44.6741 70 44.6741 70 44.674C70 44.674 70 44.6739 70 44.6739C70 44.6738 70 44.6738 70 44.6737C70 44.6737 70 44.6736 70 44.6736C70 44.6736 70 44.6735 70 44.6735C70 44.6734 70 44.6734 70 44.6733C70 44.6733 70 44.6733 70 44.6732C70 44.6732 70 44.6731 70 44.6731C70 44.673 70 44.673 70 44.673C70 44.6729 70 44.6729 70 44.6729C70 44.6728 70 44.6728 70 44.6727C70 44.6727 70 44.6727 70 44.6726C70 44.6726 70 44.6726 70 44.6725C70 44.6725 70 44.6724 70 44.6724C70 44.6724 70 44.6723 70 44.6723C70 44.6723 70 44.6722 70 44.6722C70 44.6722 70 44.6721 70 44.6721C70 44.6721 70 44.6721 70 44.672C70 44.672 70 44.672 70 44.6719C70 44.6719 70 44.6719 70 44.6718C70 44.6718 70 44.6718 70 44.6718C70 44.6717 70 44.6717 70 44.6717C70 44.6716 70 44.6716 70 44.6716C70 44.6716 70 44.6715 70 44.6715C70 44.6715 70 44.6715 70 44.6714C70 44.6714 70 44.6714 70 44.6714C70 44.6713 70 44.6713 70 44.6713C70 44.6713 70 44.6712 70 44.6712C70 44.6712 70 44.6712 70 44.6711C70 44.6711 70 44.6711 70 44.6711C70 44.6711 70 44.671 70 44.671C70 44.671 70 44.671 70 44.671C70 44.6709 70 44.6709 70 44.6709C70 44.6709 70 44.6709 70 44.6709C70 44.6708 70 44.6708 70 44.6708C70 44.6708 70 44.6708 70 44.6708C70 44.6707 70 44.6707 70 44.6707C70 44.6707 70 44.6707 70 44.6707C70 44.6706 70 44.6706 70 44.6706C70 44.6706 70 44.6706 70 44.6706C70 44.6706 70 44.6706 70 44.6705C70 44.6705 70 44.6705 70 44.6705C70 44.6705 70 44.6705 70 44.6705C70 44.6705 70 44.6705 70 44.6704C70 44.6704 70 44.6704 70 44.6704C70 44.6704 70 44.6704 70 44.6704C70 44.6704 70 44.6704 70 44.6704C70 44.6704 70 44.6704 70 44.6703C70 44.6703 70 44.6703 70 44.6703C70 44.6703 70 44.6703 70 44.6703C70 44.6703 70 44.6703 70 44.6703C70 44.6703 70 44.6703 70 44.6703C70 44.6703 70 44.6703 70 44.6703C70 44.6703 70 44.6703 70 44.6703C70 44.6703 70 44.6703 70 44.6703C70 44.6703 70 44.6703 70 44.6703C70 44.6703 70 44.6703 70 44.6703C69 44.6703 68 44.6703 68 44.6703C68 44.6703 68 44.6703 68 44.6703C68 44.6703 68 44.6703 68 44.6703C68 44.6703 68 44.6703 68 44.6703C68 44.6703 68 44.6703 68 44.6703C68 44.6703 68 44.6703 68 44.6703C68 44.6703 68 44.6703 68 44.6703C68 44.6703 68 44.6703 68 44.6703C68 44.6703 68 44.6703 68 44.6703C68 44.6703 68 44.6704 68 44.6704C68 44.6704 68 44.6704 68 44.6704C68 44.6704 68 44.6704 68 44.6704C68 44.6704 68 44.6704 68 44.6704C68 44.6704 68 44.6704 68 44.6705C68 44.6705 68 44.6705 68 44.6705C68 44.6705 68 44.6705 68 44.6705C68 44.6705 68 44.6705 68 44.6705C68 44.6706 68 44.6706 68 44.6706C68 44.6706 68 44.6706 68 44.6706C68 44.6706 68 44.6706 68 44.6707C68 44.6707 68 44.6707 68 44.6707C68 44.6707 68 44.6707 68 44.6707C68 44.6707 68 44.6708 68 44.6708C68 44.6708 68 44.6708 68 44.6708C68 44.6708 68 44.6709 68 44.6709C68 44.6709 68 44.6709 68 44.6709C68 44.6709 68 44.671 68 44.671C68 44.671 68 44.671 68 44.671C68 44.671 68 44.6711 68 44.6711C68 44.6711 68 44.6711 68 44.6711C68 44.6711 68 44.6712 68 44.6712C68 44.6712 68 44.6712 68 44.6712C68 44.6713 68 44.6713 68 44.6713C68 44.6713 68 44.6713 68 44.6714C68 44.6714 68 44.6714 68 44.6714C68 44.6715 68 44.6715 68 44.6715C68 44.6715 68 44.6715 68 44.6716C68 44.6716 68 44.6716 68 44.6716C68 44.6717 68 44.6717 68 44.6717C68 44.6717 68 44.6718 68 44.6718C68 44.6718 68 44.6718 68 44.6719C68 44.6719 68 44.6719 68 44.6719C68 44.672 68 44.672 68 44.672C68 44.672 68 44.6721 68 44.6721C68 44.6721 68 44.6721 68 44.6722C68 44.6722 68 44.6722 68 44.6722C68 44.6723 68 44.6723 68 44.6723C68 44.6723 68 44.6724 68 44.6724C68 44.6724 68 44.6725 68 44.6725C68 44.6725 68 44.6725 68 44.6726C68 44.6726 68 44.6726 68 44.6727C68 44.6727 68 44.6727 68 44.6728C68 44.6728 68 44.6728 68 44.6728C68 44.6729 68 44.6729 68 44.6729C68 44.673 68 44.673 68 44.673C68 44.6731 68 44.6731 68 44.6731C68 44.6732 68 44.6732 68 44.6732C68 44.6733 68 44.6733 68 44.6733C68 44.6734 68 44.6734 68 44.6734C68 44.6734 68 44.6735 68 44.6735C68 44.6735 68 44.6736 68 44.6736C68 44.6737 68 44.6737 68 44.6737C68 44.6738 68 44.6738 68 44.6738C68 44.6739 68 44.6739 68 44.6739C68 44.674 68 44.674 68 44.674C68 44.6741 68 44.6741 68 44.6741C68 44.6742 68 44.6742 68 44.6742C68 44.6743 68 44.6743 68 44.6744C68 44.6744 68 44.6744 68 44.6745C68 44.6745 68 44.6745 68 44.6746C68 44.6746 68 44.6747 68 44.6747C68 44.6747 68 44.6748 68 44.6748C68 44.6748 68 44.6749 68 44.6749C68 44.675 68 44.675 68 44.675C68 44.6751 68 44.6751 68 44.6752C68 44.6752 68 44.6752 68 44.6753C68 44.6753 68 44.6754 68 44.6754C68 44.6754 68 44.6755 68 44.6755C68 44.6756 68 44.6756 68 44.6756C68 44.6757 68 44.6757 68 44.6758C68 44.6758 68 44.6758 68 44.6759C68 44.6759 68 44.676 68 44.676C68 44.676 68 44.6761 68 44.6761C68 44.6762 68 44.6762 68 44.6763C68 44.6763 68 44.6763 68 44.6764C68 44.6764 68 44.6765 68 44.6765C68 44.6766 68 44.6766 68 44.6766C68 44.6767 68 44.6767 68 44.6768C68 44.6768 68 44.6769 68 44.6769C68 44.6769 68 44.677 68 44.677C68 44.6771 68 44.6771 68 44.6772C68 44.6772 68 44.6772 68 44.6773C68 44.6773 68 44.6774 68 44.6774C68 44.6775 68 44.6775 68 44.6776C68 44.6776 68 44.6777 68 44.6777C68 44.6777 68 44.6778 68 44.6778C68 44.6779 68 44.6779 68 44.678C68 44.678 68 44.6781 68 44.6781C68 44.6782 68 44.6782 68 44.6782C68 44.6783 68 44.6783 68 44.6784C68 44.6784 68 44.6785 68 44.6785C68 44.6786 68 44.6786 68 44.6787C68 44.6787 68 44.6788 68 44.6788C68 44.6789 68 44.6789 68 44.6789C68 44.679 68 44.679 68 44.6791C68 44.6791 68 44.6792 68 44.6792C68 44.6793 68 44.6793 68 44.6794C68 44.6794 68 44.6795 68 44.6795C68 44.6796 68 44.6796 68 44.6797C68 44.6797 68 44.6798 68 44.6798C68 44.6799 68 44.6799 68 44.68C68 44.68 68 44.6801 68 44.6801C68 44.6801 68 44.6802 68 44.6802C68 44.6803 68 44.6803 68 44.6804C68 44.6804 68 44.6805 68 44.6805C68 44.6806 68 44.6806 68 44.6807C68 44.6807 68 44.6808 68 44.6808C68 44.6809 68 44.6809 68 44.681C68 44.681 68 44.6811 68 44.6811C68 44.6812 68 44.6812 68 44.6813C68 44.6813 68 44.6814 68 44.6814C68 44.6815 68 44.6815 68 44.6816C68 44.6816 68 44.6817 68 44.6817C68 44.6818 68 44.6818 68 44.6819C68 44.6819 68 44.682 68 44.682C68 44.6821 68 44.6821 68 44.6822C68 44.6822 68 44.6823 68 44.6823C68 44.6824 68 44.6824 68 44.6825C68 44.6825 68 44.6826 68 44.6826C68 44.6827 68 44.6828 68 44.6828C68 44.6829 68 44.6829 68 44.683C68 44.683 68 44.6831 68 44.6831C68 44.6832 68 44.6832 68 44.6833C68 44.6833 68 44.6834 68 44.6834C68 44.6835 68 44.6835 68 44.6836C68 44.6836 68 44.6837 68 44.6837C68 44.6838 68 44.6838 68 44.6839C68 44.6839 68 44.684 68 44.684C68 44.6841 68 44.6841 68 44.6842C68 44.6842 68 44.6843 68 44.6843C68 44.6844 68 44.6844 68 44.6845C68 44.6846 68 44.6846 68 44.6847C68 44.6847 68 44.6848 68 44.6848C68 44.6849 68 44.6849 68 44.685C68 44.685 68 44.6851 68 44.6851C68 44.6852 68 44.6852 68 44.6853C68 44.6853 68 44.6854 68 44.6854C68 44.6855 68 44.6855 68 44.6856C68 44.6856 68 44.6857 68 44.6857C68 44.6858 68 44.6858 68 44.6859C68 44.686 68 44.686 68 44.6861C68 44.6861 68 44.6862 68 44.6862C68 44.6863 68 44.6863 68 44.6864C68 44.6864 68 44.6865 68 44.6865C68 44.6866 68 44.6866 68 44.6867C68 44.6867 68 44.6868 68 44.6868C68 44.6869 68 44.6869 68 44.687C68 44.687 68 44.6871 68 44.6871C68 44.6872 68 44.6872 68 44.6873C68 44.6873 68 44.6874 68 44.6875C68 44.6875 68 44.6876 68 44.6876C68 44.6877 68 44.6877 68 44.6878C68 44.6878 68 44.6879 68 44.6879C68 44.688 68 44.688 68 44.6881C68 44.6881 68 44.6882 68 44.6882C68 44.6883 68 44.6883 68 44.6884C68 44.6884 68 44.6885 68 44.6885C68 44.6886 68 44.6886 68 44.6887C68 44.6887 68 44.6888 68 44.6888C68 44.6889 68 44.6889 68 44.689C68 44.689 68 44.6891 68 44.6891C68 44.6892 68 44.6892 68 44.6893C68 44.6893 68 44.6894 68 44.6894C68 44.6895 68 44.6895 68 44.6896C68 44.6896 68 44.6897 68 44.6897C68 44.6898 68 44.6898 68 44.6899C68 44.6899 68 44.69 68 44.69C68 44.6901 68 44.6901 68 44.6902C68 44.6902 68 44.6903 68 44.6903C68 44.6904 68 44.6904 68 44.6905C68 44.6905 68 44.6906 68 44.6906C68 44.6907 68 44.6907 68 44.6908C68 44.6908 68 44.6909 68 44.6909C68 44.691 68 44.691 68 44.6911C68 44.6911 68 44.6912 68 44.6912C68 44.6913 68 44.6913 68 44.6914C68 44.6914 68 44.6915 68 44.6915C68 44.6916 68 44.6916 68 44.6917C68 44.6917 68 44.6918 68 44.6918C68 44.6919 68 44.6919 68 44.6919C68 44.692 68 44.692 68 44.6921C68 44.6921 68 44.6922 68 44.6922C68 44.6923 68 44.6923 68 44.6924C68 44.6924 68 44.6925 68 44.6925C68 44.6926 68 44.6926 68 44.6927C68 44.6927 68 44.6927 68 44.6928C68 44.6928 68 44.6929 68 44.6929C68 44.693 68 44.693 68 44.6931C68 44.6931 68 44.6932 68 44.6932C68 44.6933 68 44.6933 68 44.6933C68 44.6934 68 44.6934 68 44.6935C68 44.6935 68 44.6936 68 44.6936C68 44.6937 68 44.6937 68 44.6938C68 44.6938 68 44.6938 68 44.6939C68 44.6939 68 44.694 68 44.694C68 44.6941 68 44.6941 68 44.6942C68 44.6942 68 44.6942 68 44.6943C68 44.6943 68 44.6944 68 44.6944C68 44.6945 68 44.6945 68 44.6945C68 44.6946 68 44.6946 68 44.6947C68 44.6947 68 44.6948 68 44.6948C68 44.6948 68 44.6949 68 44.6949C68 44.695 68 44.695 68 44.6951C68 44.6951 68 44.6951 68 44.6952C68 44.6952 68 44.6953 68 44.6953C68 44.6953 68 44.6954 68 44.6954C68 44.6955 68 44.6955 68 44.6955C68 44.6956 68 44.6956 68 44.6957C68 44.6957 68 44.6957 68 44.6958C68 44.6958 68 44.6959 68 44.6959C68 44.6959 68 44.696 68 44.696C68 44.6961 68 44.6961 68 44.6961C68 44.6962 68 44.6962 68 44.6963C68 44.6963 68 44.6963 68 44.6964C68 44.6964 68 44.6964 68 44.6965C68 44.6965 68 44.6966 68 44.6966C68 44.6966 68 44.6967 68 44.6967C68 44.6967 68 44.6968 68 44.6968C68 44.6969 68 44.6969 68 44.6969C68 44.697 68 44.697 68 44.697C68 44.6971 68 44.6971 68 44.6971C68 44.6972 68 44.6972 68 44.6973C68 44.6973 68 44.6973 68 44.6974C68 44.6974 68 44.6974 68 44.6975C68 44.6975 68 44.6975 68 44.6976C68 44.6976 68 44.6976 68 44.6977C68 44.6977 68 44.6977 68 44.6978C68 44.6978 68 44.6978 68 44.6979C68 44.6979 68 44.6979 68 44.698C68 44.698 68 44.698 68 44.6981C68 44.6981 68 44.6981 68 44.6981C68 44.6982 68 44.6982 68 44.6982C68 44.6983 68 44.6983 68 44.6983C68 44.6984 68 44.6984 68 44.6984C68 44.6985 68 44.6985 68 44.6985C68 44.6985 68 44.6986 68 44.6986C68 44.6986 68 44.6987 68 44.6987C68 44.6987 68 44.6987 68 44.6988C68 44.6988 68 44.6988 68 44.6989C68 44.6989 68 44.6989 68 44.6989C68 44.699 68 44.699 68 44.699C68 44.699 68 44.6991 68 44.6991C68 44.6991 68 44.6992 68 44.6992C68 44.6992 68 44.6992 68 44.6993C68 44.6993 68 44.6993 68 44.6993C68 44.6994 68 44.6994 68 44.6994C68 44.6994 68 44.6995 68 44.6995C68 44.6995 68 44.6995 68 44.6995C68 44.6996 68 44.6996 68 44.6996C68 44.6996 68 44.6997 68 44.6997C68 44.6997 68 44.6997 68 44.6997C68 44.6998 68 44.6998 68 44.6998C68 44.6998 68 44.6999 68 44.6999C68 44.6999 68 44.6999 68 44.6999C68 44.7 68 44.7 68 44.7C68 44.7 68 44.7 68 44.7C68 44.7001 68 44.7001 68 44.7001C68 44.7001 68 44.7001 68 44.7002C68 44.7002 68 44.7002 68 44.7002C68 44.7002 68 44.7002 68 44.7003C68 44.7003 68 44.7003 68 44.7003C68 44.7003 68 44.7003 68 44.7004C68 44.7004 68 44.7004 68 44.7004C68 44.7004 68 44.7004 68 44.7004C68 44.7005 68 44.7005 68 44.7005C68 44.7005 68 44.7005 68 44.7005C68 44.7005 68 44.7006 68 44.7006C68 44.7006 68 44.7006 68 44.7006C68 44.7006 68 44.7006 68 44.7006C68 44.7006 68 44.7007 68 44.7007C68 44.7007 68 44.7007 68 44.7007C68 44.7007 68 44.7007 68 44.7007C68 44.7007 68 44.7007 68 44.7008C68 44.7008 68 44.7008 68 44.7008C68 44.7008 68 44.7008 68 44.7008C68 44.7008 68 44.7008 68 44.7008C68 44.7008 68 44.7008 68 44.7008C68 44.7008 68 44.7009 68 44.7009C68 44.7009 68 44.7009 68 44.7009C68 44.7009 68 44.7009 68 44.7009C68 44.7009 68 44.7009 68 44.7009C68 44.7009 68 44.7009 68 44.7009C68 44.7009 68 44.7009 68 44.7009C68 44.7009 68 44.7009 68 44.7009C68 44.7009 68 44.7009 68 44.7009C68 44.7009 69 44.7009 70 44.7009C70 44.7009 70 44.7009 70 44.7009C70 44.7009 70 44.7009 70 44.7009C70 44.7009 70 44.7009 70 44.7009C70 44.7009 70 44.7009 70 44.7009C70 44.7009 70 44.7009 70 44.7009C70 44.7009 70 44.7009 70 44.7009C70 44.7009 70 44.7009 70 44.7009C70 44.7009 70 44.7009 70 44.7008C70 44.7008 70 44.7008 70 44.7008C70 44.7008 70 44.7008 70 44.7008C70 44.7008 70 44.7008 70 44.7008C70 44.7008 70 44.7008 70 44.7008C70 44.7008 70 44.7007 70 44.7007C70 44.7007 70 44.7007 70 44.7007C70 44.7007 70 44.7007 70 44.7007C70 44.7007 70 44.7006 70 44.7006C70 44.7006 70 44.7006 70 44.7006C70 44.7006 70 44.7006 70 44.7006C70 44.7005 70 44.7005 70 44.7005C70 44.7005 70 44.7005 70 44.7005C70 44.7005 70 44.7004 70 44.7004C70 44.7004 70 44.7004 70 44.7004C70 44.7004 70 44.7003 70 44.7003C70 44.7003 70 44.7003 70 44.7003C70 44.7003 70 44.7002 70 44.7002C70 44.7002 70 44.7002 70 44.7002C70 44.7001 70 44.7001 70 44.7001C70 44.7001 70 44.7001 70 44.7C70 44.7 70 44.7 70 44.7C70 44.6999 70 44.6999 70 44.6999C70 44.6999 70 44.6998 70 44.6998C70 44.6998 70 44.6998 70 44.6998C70 44.6997 70 44.6997 70 44.6997C70 44.6996 70 44.6996 70 44.6996C70 44.6996 70 44.6995 70 44.6995C70 44.6995 70 44.6995 70 44.6994C70 44.6994 70 44.6994 70 44.6993C70 44.6993 70 44.6993 70 44.6993C70 44.6992 70 44.6992 70 44.6992C70 44.6991 70 44.6991 70 44.6991C70 44.699 70 44.699 70 44.699C70 44.6989 70 44.6989 70 44.6989C70 44.6988 70 44.6988 70 44.6988C70 44.6987 70 44.6987 70 44.6987C70 44.6986 70 44.6986 70 44.6986C70 44.6985 70 44.6985 70 44.6984C70 44.6984 70 44.6984 70 44.6983C70 44.6983 70 44.6982 70 44.6982C70 44.6982 70 44.6981 70 44.6981C70 44.698 70 44.698 70 44.698C70 44.6979 70 44.6979 70 44.6978C70 44.6978 70 44.6978 70 44.6977C70 44.6977 70 44.6976 70 44.6976C70 44.6975 70 44.6975 70 44.6975C70 44.6974 70 44.6974 70 44.6973C70 44.6973 70 44.6972 70 44.6972C70 44.6971 70 44.6971 70 44.697C70 44.697 70 44.6969 70 44.6969C70 44.6968 70 44.6968 70 44.6967C70 44.6967 70 44.6966 70 44.6966C70 44.6965 70 44.6965 70 44.6964C70 44.6964 70 44.6963 70 44.6963C70 44.6962 70 44.6962 70 44.6961C70 44.6961 70 44.696 70 44.696C70 44.6959 70 44.6958 70 44.6958C70 44.6957 70 44.6957 70 44.6956C70 44.6956 70 44.6955 70 44.6954C70 44.6954 70 44.6953 70 44.6953C70 44.6952 70 44.6952 70 44.6951C70 44.695 70 44.695 70 44.6949C70 44.6949 70 44.6948 70 44.6947C70 44.6947 70 44.6946 70 44.6945C70 44.6945 70 44.6944 70 44.6943C70 44.6943 70 44.6942 70 44.6942C70 44.6941 70 44.694 70 44.694C70 44.6939 70 44.6938 70 44.6938C70 44.6937 70 44.6936 70 44.6936C70 44.6935 70 44.6934 70 44.6933C70 44.6933 70 44.6932 70 44.6931C70 44.6931 70 44.693 70 44.6929C70 44.6929 70 44.6928 70 44.6927C70 44.6926 70 44.6926 70 44.6925C70 44.6924 70 44.6923 70 44.6923C70 44.6922 70 44.6921 70 44.692C70 44.692 70 44.6919 70 44.6918C70 44.6917 70 44.6917 70 44.6916C70 44.6915 70 44.6914 70 44.6913C70 44.6913 70 44.6912 70 44.6911C70 44.691 70 44.6909 70 44.6909C70 44.6908 70 44.6907 70 44.6906C70 44.6905 70 44.6904 70 44.6904C70 44.6903 70 44.6902 70 44.6901C70 44.69 70 44.6899 70 44.6899C70 44.6898 70 44.6897 70 44.6896C70 44.6895 70 44.6894 70 44.6893C70 44.6892 70 44.6892 70 44.6891C70 44.689 70 44.6889 70 44.6888C70 44.6887 70 44.6886 70 44.6885C70 44.6884 70 44.6883 70 44.6882C70 44.6882 70 44.6881 70 44.688C70 44.6879 70 44.6878 70 44.6877C70 44.6876 70 44.6875 70 44.6874C70 44.6873 70 44.6872 70 44.6871C70 44.687 70 44.6869 70 44.6868C70 44.6867 70 44.6866 70 44.6865C70 44.6864 70 44.6863 70 44.6862C70 44.6861 70 44.686 70 44.6859C70 44.6858 70 44.6857 70 44.6856H68C68 44.6857 68 44.6858 68 44.6859C68 44.686 68 44.6861 68 44.6862C68 44.6863 68 44.6864 68 44.6865C68 44.6866 68 44.6867 68 44.6868C68 44.6869 68 44.687 68 44.6871C68 44.6872 68 44.6873 68 44.6874C68 44.6875 68 44.6876 68 44.6877C68 44.6878 68 44.6879 68 44.688C68 44.6881 68 44.6882 68 44.6882C68 44.6883 68 44.6884 68 44.6885C68 44.6886 68 44.6887 68 44.6888C68 44.6889 68 44.689 68 44.6891C68 44.6892 68 44.6892 68 44.6893C68 44.6894 68 44.6895 68 44.6896C68 44.6897 68 44.6898 68 44.6899C68 44.6899 68 44.69 68 44.6901C68 44.6902 68 44.6903 68 44.6904C68 44.6904 68 44.6905 68 44.6906C68 44.6907 68 44.6908 68 44.6909C68 44.6909 68 44.691 68 44.6911C68 44.6912 68 44.6913 68 44.6913C68 44.6914 68 44.6915 68 44.6916C68 44.6917 68 44.6917 68 44.6918C68 44.6919 68 44.692 68 44.692C68 44.6921 68 44.6922 68 44.6923C68 44.6923 68 44.6924 68 44.6925C68 44.6926 68 44.6926 68 44.6927C68 44.6928 68 44.6929 68 44.6929C68 44.693 68 44.6931 68 44.6931C68 44.6932 68 44.6933 68 44.6933C68 44.6934 68 44.6935 68 44.6936C68 44.6936 68 44.6937 68 44.6938C68 44.6938 68 44.6939 68 44.694C68 44.694 68 44.6941 68 44.6942C68 44.6942 68 44.6943 68 44.6943C68 44.6944 68 44.6945 68 44.6945C68 44.6946 68 44.6947 68 44.6947C68 44.6948 68 44.6949 68 44.6949C68 44.695 68 44.695 68 44.6951C68 44.6952 68 44.6952 68 44.6953C68 44.6953 68 44.6954 68 44.6954C68 44.6955 68 44.6956 68 44.6956C68 44.6957 68 44.6957 68 44.6958C68 44.6958 68 44.6959 68 44.696C68 44.696 68 44.6961 68 44.6961C68 44.6962 68 44.6962 68 44.6963C68 44.6963 68 44.6964 68 44.6964C68 44.6965 68 44.6965 68 44.6966C68 44.6966 68 44.6967 68 44.6967C68 44.6968 68 44.6968 68 44.6969C68 44.6969 68 44.697 68 44.697C68 44.6971 68 44.6971 68 44.6972C68 44.6972 68 44.6973 68 44.6973C68 44.6974 68 44.6974 68 44.6975C68 44.6975 68 44.6975 68 44.6976C68 44.6976 68 44.6977 68 44.6977C68 44.6978 68 44.6978 68 44.6978C68 44.6979 68 44.6979 68 44.698C68 44.698 68 44.698 68 44.6981C68 44.6981 68 44.6982 68 44.6982C68 44.6982 68 44.6983 68 44.6983C68 44.6984 68 44.6984 68 44.6984C68 44.6985 68 44.6985 68 44.6986C68 44.6986 68 44.6986 68 44.6987C68 44.6987 68 44.6987 68 44.6988C68 44.6988 68 44.6988 68 44.6989C68 44.6989 68 44.6989 68 44.699C68 44.699 68 44.699 68 44.6991C68 44.6991 68 44.6991 68 44.6992C68 44.6992 68 44.6992 68 44.6993C68 44.6993 68 44.6993 68 44.6993C68 44.6994 68 44.6994 68 44.6994C68 44.6995 68 44.6995 68 44.6995C68 44.6995 68 44.6996 68 44.6996C68 44.6996 68 44.6996 68 44.6997C68 44.6997 68 44.6997 68 44.6998C68 44.6998 68 44.6998 68 44.6998C68 44.6998 68 44.6999 68 44.6999C68 44.6999 68 44.6999 68 44.7C68 44.7 68 44.7 68 44.7C68 44.7001 68 44.7001 68 44.7001C68 44.7001 68 44.7001 68 44.7002C68 44.7002 68 44.7002 68 44.7002C68 44.7002 68 44.7003 68 44.7003C68 44.7003 68 44.7003 68 44.7003C68 44.7003 68 44.7004 68 44.7004C68 44.7004 68 44.7004 68 44.7004C68 44.7004 68 44.7005 68 44.7005C68 44.7005 68 44.7005 68 44.7005C68 44.7005 68 44.7005 68 44.7006C68 44.7006 68 44.7006 68 44.7006C68 44.7006 68 44.7006 68 44.7006C68 44.7006 68 44.7007 68 44.7007C68 44.7007 68 44.7007 68 44.7007C68 44.7007 68 44.7007 68 44.7007C68 44.7007 68 44.7008 68 44.7008C68 44.7008 68 44.7008 68 44.7008C68 44.7008 68 44.7008 68 44.7008C68 44.7008 68 44.7008 68 44.7008C68 44.7008 68 44.7008 68 44.7008C68 44.7009 68 44.7009 68 44.7009C68 44.7009 68 44.7009 68 44.7009C68 44.7009 68 44.7009 68 44.7009C68 44.7009 68 44.7009 68 44.7009C68 44.7009 68 44.7009 68 44.7009C68 44.7009 68 44.7009 68 44.7009C68 44.7009 68 44.7009 68 44.7009C68 44.7009 68 44.7009 68 44.7009C69 44.7009 70 44.7009 70 44.7009C70 44.7009 70 44.7009 70 44.7009C70 44.7009 70 44.7009 70 44.7009C70 44.7009 70 44.7009 70 44.7009C70 44.7009 70 44.7009 70 44.7009C70 44.7009 70 44.7009 70 44.7009C70 44.7009 70 44.7009 70 44.7009C70 44.7009 70 44.7009 70 44.7009C70 44.7009 70 44.7008 70 44.7008C70 44.7008 70 44.7008 70 44.7008C70 44.7008 70 44.7008 70 44.7008C70 44.7008 70 44.7008 70 44.7008C70 44.7008 70 44.7008 70 44.7008C70 44.7007 70 44.7007 70 44.7007C70 44.7007 70 44.7007 70 44.7007C70 44.7007 70 44.7007 70 44.7007C70 44.7007 70 44.7006 70 44.7006C70 44.7006 70 44.7006 70 44.7006C70 44.7006 70 44.7006 70 44.7006C70 44.7006 70 44.7005 70 44.7005C70 44.7005 70 44.7005 70 44.7005C70 44.7005 70 44.7005 70 44.7004C70 44.7004 70 44.7004 70 44.7004C70 44.7004 70 44.7004 70 44.7004C70 44.7003 70 44.7003 70 44.7003C70 44.7003 70 44.7003 70 44.7003C70 44.7002 70 44.7002 70 44.7002C70 44.7002 70 44.7002 70 44.7002C70 44.7001 70 44.7001 70 44.7001C70 44.7001 70 44.7001 70 44.7C70 44.7 70 44.7 70 44.7C70 44.7 70 44.7 70 44.6999C70 44.6999 70 44.6999 70 44.6999C70 44.6999 70 44.6998 70 44.6998C70 44.6998 70 44.6998 70 44.6997C70 44.6997 70 44.6997 70 44.6997C70 44.6997 70 44.6996 70 44.6996C70 44.6996 70 44.6996 70 44.6995C70 44.6995 70 44.6995 70 44.6995C70 44.6995 70 44.6994 70 44.6994C70 44.6994 70 44.6994 70 44.6993C70 44.6993 70 44.6993 70 44.6993C70 44.6992 70 44.6992 70 44.6992C70 44.6992 70 44.6991 70 44.6991C70 44.6991 70 44.699 70 44.699C70 44.699 70 44.699 70 44.6989C70 44.6989 70 44.6989 70 44.6989C70 44.6988 70 44.6988 70 44.6988C70 44.6987 70 44.6987 70 44.6987C70 44.6987 70 44.6986 70 44.6986C70 44.6986 70 44.6985 70 44.6985C70 44.6985 70 44.6985 70 44.6984C70 44.6984 70 44.6984 70 44.6983C70 44.6983 70 44.6983 70 44.6982C70 44.6982 70 44.6982 70 44.6981C70 44.6981 70 44.6981 70 44.6981C70 44.698 70 44.698 70 44.698C70 44.6979 70 44.6979 70 44.6979C70 44.6978 70 44.6978 70 44.6978C70 44.6977 70 44.6977 70 44.6977C70 44.6976 70 44.6976 70 44.6976C70 44.6975 70 44.6975 70 44.6975C70 44.6974 70 44.6974 70 44.6974C70 44.6973 70 44.6973 70 44.6973C70 44.6972 70 44.6972 70 44.6971C70 44.6971 70 44.6971 70 44.697C70 44.697 70 44.697 70 44.6969C70 44.6969 70 44.6969 70 44.6968C70 44.6968 70 44.6967 70 44.6967C70 44.6967 70 44.6966 70 44.6966C70 44.6966 70 44.6965 70 44.6965C70 44.6964 70 44.6964 70 44.6964C70 44.6963 70 44.6963 70 44.6963C70 44.6962 70 44.6962 70 44.6961C70 44.6961 70 44.6961 70 44.696C70 44.696 70 44.6959 70 44.6959C70 44.6959 70 44.6958 70 44.6958C70 44.6957 70 44.6957 70 44.6957C70 44.6956 70 44.6956 70 44.6955C70 44.6955 70 44.6955 70 44.6954C70 44.6954 70 44.6953 70 44.6953C70 44.6953 70 44.6952 70 44.6952C70 44.6951 70 44.6951 70 44.6951C70 44.695 70 44.695 70 44.6949C70 44.6949 70 44.6948 70 44.6948C70 44.6948 70 44.6947 70 44.6947C70 44.6946 70 44.6946 70 44.6945C70 44.6945 70 44.6945 70 44.6944C70 44.6944 70 44.6943 70 44.6943C70 44.6942 70 44.6942 70 44.6942C70 44.6941 70 44.6941 70 44.694C70 44.694 70 44.6939 70 44.6939C70 44.6938 70 44.6938 70 44.6938C70 44.6937 70 44.6937 70 44.6936C70 44.6936 70 44.6935 70 44.6935C70 44.6934 70 44.6934 70 44.6933C70 44.6933 70 44.6933 70 44.6932C70 44.6932 70 44.6931 70 44.6931C70 44.693 70 44.693 70 44.6929C70 44.6929 70 44.6928 70 44.6928C70 44.6927 70 44.6927 70 44.6927C70 44.6926 70 44.6926 70 44.6925C70 44.6925 70 44.6924 70 44.6924C70 44.6923 70 44.6923 70 44.6922C70 44.6922 70 44.6921 70 44.6921C70 44.692 70 44.692 70 44.6919C70 44.6919 70 44.6919 70 44.6918C70 44.6918 70 44.6917 70 44.6917C70 44.6916 70 44.6916 70 44.6915C70 44.6915 70 44.6914 70 44.6914C70 44.6913 70 44.6913 70 44.6912C70 44.6912 70 44.6911 70 44.6911C70 44.691 70 44.691 70 44.6909C70 44.6909 70 44.6908 70 44.6908C70 44.6907 70 44.6907 70 44.6906C70 44.6906 70 44.6905 70 44.6905C70 44.6904 70 44.6904 70 44.6903C70 44.6903 70 44.6902 70 44.6902C70 44.6901 70 44.6901 70 44.69C70 44.69 70 44.6899 70 44.6899C70 44.6898 70 44.6898 70 44.6897C70 44.6897 70 44.6896 70 44.6896C70 44.6895 70 44.6895 70 44.6894C70 44.6894 70 44.6893 70 44.6893C70 44.6892 70 44.6892 70 44.6891C70 44.6891 70 44.689 70 44.689C70 44.6889 70 44.6889 70 44.6888C70 44.6888 70 44.6887 70 44.6887C70 44.6886 70 44.6886 70 44.6885C70 44.6885 70 44.6884 70 44.6884C70 44.6883 70 44.6883 70 44.6882C70 44.6882 70 44.6881 70 44.6881C70 44.688 70 44.688 70 44.6879C70 44.6879 70 44.6878 70 44.6878C70 44.6877 70 44.6877 70 44.6876C70 44.6876 70 44.6875 70 44.6875C70 44.6874 70 44.6873 70 44.6873C70 44.6872 70 44.6872 70 44.6871C70 44.6871 70 44.687 70 44.687C70 44.6869 70 44.6869 70 44.6868C70 44.6868 70 44.6867 70 44.6867C70 44.6866 70 44.6866 70 44.6865C70 44.6865 70 44.6864 70 44.6864C70 44.6863 70 44.6863 70 44.6862C70 44.6862 70 44.6861 70 44.6861C70 44.686 70 44.686 70 44.6859C70 44.6858 70 44.6858 70 44.6857C70 44.6857 70 44.6856 70 44.6856C70 44.6855 70 44.6855 70 44.6854C70 44.6854 70 44.6853 70 44.6853C70 44.6852 70 44.6852 70 44.6851C70 44.6851 70 44.685 70 44.685C70 44.6849 70 44.6849 70 44.6848C70 44.6848 70 44.6847 70 44.6847C70 44.6846 70 44.6846 70 44.6845C70 44.6844 70 44.6844 70 44.6843C70 44.6843 70 44.6842 70 44.6842C70 44.6841 70 44.6841 70 44.684C70 44.684 70 44.6839 70 44.6839C70 44.6838 70 44.6838 70 44.6837C70 44.6837 70 44.6836 70 44.6836C70 44.6835 70 44.6835 70 44.6834C70 44.6834 70 44.6833 70 44.6833C70 44.6832 70 44.6832 70 44.6831C70 44.6831 70 44.683 70 44.683C70 44.6829 70 44.6829 70 44.6828C70 44.6828 70 44.6827 70 44.6826C70 44.6826 70 44.6825 70 44.6825C70 44.6824 70 44.6824 70 44.6823C70 44.6823 70 44.6822 70 44.6822C70 44.6821 70 44.6821 70 44.682C70 44.682 70 44.6819 70 44.6819C70 44.6818 70 44.6818 70 44.6817C70 44.6817 70 44.6816 70 44.6816C70 44.6815 70 44.6815 70 44.6814C70 44.6814 70 44.6813 70 44.6813C70 44.6812 70 44.6812 70 44.6811C70 44.6811 70 44.681 70 44.681C70 44.6809 70 44.6809 70 44.6808C70 44.6808 70 44.6807 70 44.6807C70 44.6806 70 44.6806 70 44.6805C70 44.6805 70 44.6804 70 44.6804C70 44.6803 70 44.6803 70 44.6802C70 44.6802 70 44.6801 70 44.6801C70 44.6801 70 44.68 70 44.68C70 44.6799 70 44.6799 70 44.6798C70 44.6798 70 44.6797 70 44.6797C70 44.6796 70 44.6796 70 44.6795C70 44.6795 70 44.6794 70 44.6794C70 44.6793 70 44.6793 70 44.6792C70 44.6792 70 44.6791 70 44.6791C70 44.679 70 44.679 70 44.6789C70 44.6789 70 44.6789 70 44.6788C70 44.6788 70 44.6787 70 44.6787C70 44.6786 70 44.6786 70 44.6785C70 44.6785 70 44.6784 70 44.6784C70 44.6783 70 44.6783 70 44.6782C70 44.6782 70 44.6782 70 44.6781C70 44.6781 70 44.678 70 44.678C70 44.6779 70 44.6779 70 44.6778C70 44.6778 70 44.6777 70 44.6777C70 44.6777 70 44.6776 70 44.6776C70 44.6775 70 44.6775 70 44.6774C70 44.6774 70 44.6773 70 44.6773C70 44.6772 70 44.6772 70 44.6772C70 44.6771 70 44.6771 70 44.677C70 44.677 70 44.6769 70 44.6769C70 44.6769 70 44.6768 70 44.6768C70 44.6767 70 44.6767 70 44.6766C70 44.6766 70 44.6766 70 44.6765C70 44.6765 70 44.6764 70 44.6764C70 44.6763 70 44.6763 70 44.6763C70 44.6762 70 44.6762 70 44.6761C70 44.6761 70 44.676 70 44.676C70 44.676 70 44.6759 70 44.6759C70 44.6758 70 44.6758 70 44.6758C70 44.6757 70 44.6757 70 44.6756C70 44.6756 70 44.6756 70 44.6755C70 44.6755 70 44.6754 70 44.6754C70 44.6754 70 44.6753 70 44.6753C70 44.6752 70 44.6752 70 44.6752C70 44.6751 70 44.6751 70 44.675C70 44.675 70 44.675 70 44.6749C70 44.6749 70 44.6748 70 44.6748C70 44.6748 70 44.6747 70 44.6747C70 44.6747 70 44.6746 70 44.6746C70 44.6745 70 44.6745 70 44.6745C70 44.6744 70 44.6744 70 44.6744C70 44.6743 70 44.6743 70 44.6742C70 44.6742 70 44.6742 70 44.6741C70 44.6741 70 44.6741 70 44.674C70 44.674 70 44.674 70 44.6739C70 44.6739 70 44.6739 70 44.6738C70 44.6738 70 44.6738 70 44.6737C70 44.6737 70 44.6737 70 44.6736C70 44.6736 70 44.6735 70 44.6735C70 44.6735 70 44.6734 70 44.6734C70 44.6734 70 44.6734 70 44.6733C70 44.6733 70 44.6733 70 44.6732C70 44.6732 70 44.6732 70 44.6731C70 44.6731 70 44.6731 70 44.673C70 44.673 70 44.673 70 44.6729C70 44.6729 70 44.6729 70 44.6728C70 44.6728 70 44.6728 70 44.6728C70 44.6727 70 44.6727 70 44.6727C70 44.6726 70 44.6726 70 44.6726C70 44.6725 70 44.6725 70 44.6725C70 44.6725 70 44.6724 70 44.6724C70 44.6724 70 44.6723 70 44.6723C70 44.6723 70 44.6723 70 44.6722C70 44.6722 70 44.6722 70 44.6722C70 44.6721 70 44.6721 70 44.6721C70 44.6721 70 44.672 70 44.672C70 44.672 70 44.672 70 44.6719C70 44.6719 70 44.6719 70 44.6719C70 44.6718 70 44.6718 70 44.6718C70 44.6718 70 44.6717 70 44.6717C70 44.6717 70 44.6717 70 44.6716C70 44.6716 70 44.6716 70 44.6716C70 44.6715 70 44.6715 70 44.6715C70 44.6715 70 44.6715 70 44.6714C70 44.6714 70 44.6714 70 44.6714C70 44.6713 70 44.6713 70 44.6713C70 44.6713 70 44.6713 70 44.6712C70 44.6712 70 44.6712 70 44.6712C70 44.6712 70 44.6711 70 44.6711C70 44.6711 70 44.6711 70 44.6711C70 44.6711 70 44.671 70 44.671C70 44.671 70 44.671 70 44.671C70 44.671 70 44.6709 70 44.6709C70 44.6709 70 44.6709 70 44.6709C70 44.6709 70 44.6708 70 44.6708C70 44.6708 70 44.6708 70 44.6708C70 44.6708 70 44.6707 70 44.6707C70 44.6707 70 44.6707 70 44.6707C70 44.6707 70 44.6707 70 44.6707C70 44.6706 70 44.6706 70 44.6706C70 44.6706 70 44.6706 70 44.6706C70 44.6706 70 44.6706 70 44.6705C70 44.6705 70 44.6705 70 44.6705C70 44.6705 70 44.6705 70 44.6705C70 44.6705 70 44.6705 70 44.6705C70 44.6704 70 44.6704 70 44.6704C70 44.6704 70 44.6704 70 44.6704C70 44.6704 70 44.6704 70 44.6704C70 44.6704 70 44.6704 70 44.6704C70 44.6704 70 44.6703 70 44.6703C70 44.6703 70 44.6703 70 44.6703C70 44.6703 70 44.6703 70 44.6703C70 44.6703 70 44.6703 70 44.6703C70 44.6703 70 44.6703 70 44.6703C70 44.6703 70 44.6703 70 44.6703C70 44.6703 70 44.6703 70 44.6703C70 44.6703 70 44.6703 70 44.6703C70 44.6703 70 44.6703 70 44.6703C70 44.6703 69 44.6703 68 44.6703C68 44.6703 68 44.6703 68 44.6703C68 44.6703 68 44.6703 68 44.6703C68 44.6703 68 44.6703 68 44.6703C68 44.6703 68 44.6703 68 44.6703C68 44.6703 68 44.6703 68 44.6703C68 44.6703 68 44.6703 68 44.6703C68 44.6703 68 44.6703 68 44.6703C68 44.6703 68 44.6703 68 44.6703C68 44.6703 68 44.6703 68 44.6703C68 44.6704 68 44.6704 68 44.6704C68 44.6704 68 44.6704 68 44.6704C68 44.6704 68 44.6704 68 44.6704C68 44.6704 68 44.6704 68 44.6704C68 44.6705 68 44.6705 68 44.6705C68 44.6705 68 44.6705 68 44.6705C68 44.6705 68 44.6705 68 44.6705C68 44.6706 68 44.6706 68 44.6706C68 44.6706 68 44.6706 68 44.6706C68 44.6706 68 44.6706 68 44.6707C68 44.6707 68 44.6707 68 44.6707C68 44.6707 68 44.6707 68 44.6708C68 44.6708 68 44.6708 68 44.6708C68 44.6708 68 44.6708 68 44.6709C68 44.6709 68 44.6709 68 44.6709C68 44.6709 68 44.6709 68 44.671C68 44.671 68 44.671 68 44.671C68 44.671 68 44.6711 68 44.6711C68 44.6711 68 44.6711 68 44.6711C68 44.6712 68 44.6712 68 44.6712C68 44.6712 68 44.6713 68 44.6713C68 44.6713 68 44.6713 68 44.6714C68 44.6714 68 44.6714 68 44.6714C68 44.6715 68 44.6715 68 44.6715C68 44.6715 68 44.6716 68 44.6716C68 44.6716 68 44.6716 68 44.6717C68 44.6717 68 44.6717 68 44.6718C68 44.6718 68 44.6718 68 44.6718C68 44.6719 68 44.6719 68 44.6719C68 44.672 68 44.672 68 44.672C68 44.6721 68 44.6721 68 44.6721C68 44.6721 68 44.6722 68 44.6722C68 44.6722 68 44.6723 68 44.6723C68 44.6723 68 44.6724 68 44.6724C68 44.6724 68 44.6725 68 44.6725C68 44.6726 68 44.6726 68 44.6726C68 44.6727 68 44.6727 68 44.6727C68 44.6728 68 44.6728 68 44.6729C68 44.6729 68 44.6729 68 44.673C68 44.673 68 44.673 68 44.6731C68 44.6731 68 44.6732 68 44.6732C68 44.6733 68 44.6733 68 44.6733C68 44.6734 68 44.6734 68 44.6735C68 44.6735 68 44.6736 68 44.6736C68 44.6736 68 44.6737 68 44.6737C68 44.6738 68 44.6738 68 44.6739C68 44.6739 68 44.674 68 44.674C68 44.6741 68 44.6741 68 44.6741C68 44.6742 68 44.6742 68 44.6743C68 44.6743 68 44.6744 68 44.6744C68 44.6745 68 44.6745 68 44.6746C68 44.6746 68 44.6747 68 44.6747C68 44.6748 68 44.6748 68 44.6749C68 44.675 68 44.675 68 44.6751C68 44.6751 68 44.6752 68 44.6752C68 44.6753 68 44.6753 68 44.6754C68 44.6754 68 44.6755 68 44.6756C68 44.6756 68 44.6757 68 44.6757C68 44.6758 68 44.6758 68 44.6759C68 44.676 68 44.676 68 44.6761C68 44.6761 68 44.6762 68 44.6763C68 44.6763 68 44.6764 68 44.6765C68 44.6765 68 44.6766 68 44.6766C68 44.6767 68 44.6768 68 44.6768C68 44.6769 68 44.677 68 44.677C68 44.6771 68 44.6772 68 44.6772C68 44.6773 68 44.6774 68 44.6774C68 44.6775 68 44.6776 68 44.6776C68 44.6777 68 44.6778 68 44.6778C68 44.6779 68 44.678 68 44.678C68 44.6781 68 44.6782 68 44.6783C68 44.6783 68 44.6784 68 44.6785C68 44.6785 68 44.6786 68 44.6787C68 44.6788 68 44.6788 68 44.6789C68 44.679 68 44.6791 68 44.6791C68 44.6792 68 44.6793 68 44.6794C68 44.6794 68 44.6795 68 44.6796C68 44.6797 68 44.6798 68 44.6798C68 44.6799 68 44.68 68 44.6801C68 44.6802 68 44.6802 68 44.6803C68 44.6804 68 44.6805 68 44.6806C68 44.6806 68 44.6807 68 44.6808C68 44.6809 68 44.681 68 44.6811C68 44.6812 68 44.6812 68 44.6813C68 44.6814 68 44.6815 68 44.6816C68 44.6817 68 44.6818 68 44.6818C68 44.6819 68 44.682 68 44.6821C68 44.6822 68 44.6823 68 44.6824C68 44.6825 68 44.6826 68 44.6827C68 44.6827 68 44.6828 68 44.6829C68 44.683 68 44.6831 68 44.6832C68 44.6833 68 44.6834 68 44.6835C68 44.6836 68 44.6837 68 44.6838C68 44.6839 68 44.684 68 44.6841C68 44.6842 68 44.6843 68 44.6844C68 44.6845 68 44.6846 68 44.6847C68 44.6848 68 44.6849 68 44.685C68 44.6851 68 44.6852 68 44.6853C68 44.6854 68 44.6855 68 44.6856H70ZM69.9999 44.669C69.9411 41.1218 67.1925 37.9539 63.7195 37.9323L63.707 39.9322C65.9143 39.946 67.9563 42.0534 68.0001 44.7022L69.9999 44.669ZM63.7132 37.9322H60.4454V39.9322H63.7132V37.9322ZM61.4454 38.9322V36.861H59.4454V38.9322H61.4454ZM60.7912 37.7994C61.9899 37.3576 63.0214 36.5456 63.7488 35.4808L62.0972 34.3527C61.5995 35.0814 60.9004 35.6276 60.0996 35.9227L60.7912 37.7994ZM63.7488 35.4808C64.4758 34.4163 64.8649 33.1493 64.8672 31.853L62.8672 31.8495C62.8656 32.7493 62.5952 33.6236 62.0972 34.3527L63.7488 35.4808ZM64.8672 31.8512C64.8672 30.1971 64.2215 28.5837 63.0807 27.4033L61.6426 28.7932C62.4179 29.5955 62.8672 30.7084 62.8672 31.8512L64.8672 31.8512ZM63.0807 27.4033C61.9387 26.2218 60.3638 25.5404 58.7344 25.5404V27.5404C59.8084 27.5404 60.8682 27.9921 61.6426 28.7932L63.0807 27.4033ZM58.7344 25.5404H56.5102V27.5404H58.7344V25.5404ZM57.4293 26.9346L62.6305 14.8084L60.7924 14.02L55.5912 26.1462L57.4293 26.9346ZM62.6285 14.813C63.9006 11.888 62.7732 8.32136 60.0671 6.78251L59.0785 8.52105C60.8551 9.53137 61.6781 11.9836 60.7944 14.0153L62.6285 14.813ZM59.5728 6.65178H59.5557V8.65178H59.5728V6.65178ZM60.0503 6.78266C59.2086 6.30367 58.2671 6.06759 57.3144 6.06759V8.06759C57.9357 8.06759 58.5341 8.22098 59.0611 8.5209L60.0503 6.78266ZM57.3144 6.06759C54.8195 6.06759 52.611 7.73326 51.782 10.1811L53.6763 10.8227C54.2502 9.12813 55.7372 8.06759 57.3144 8.06759V6.06759ZM51.7812 10.1834L46.3918 26.2219L48.2876 26.859L53.677 10.8204L51.7812 10.1834ZM11.5395 37.162V59.2194H13.5395V37.162H11.5395ZM11.5395 59.2194C11.5395 64.116 15.3132 68.2564 20.0675 68.2564V66.2564C16.541 66.2564 13.5395 63.1387 13.5395 59.2194H11.5395ZM20.0675 68.2564H49.4955V66.2564H20.0675V68.2564ZM49.4955 68.2564C54.2511 68.2564 58.0235 64.0968 58.0235 59.2194H56.0235C56.0235 63.1225 53.0207 66.2564 49.4955 66.2564V68.2564ZM58.0235 59.2194V37.162H56.0235V59.2194H58.0235ZM57.0235 36.162H12.5395V38.162H57.0235V36.162ZM13.2504 51.3241V58.3874H15.2504V51.3241H13.2504ZM13.2504 58.3874C13.2504 60.5148 14.0642 62.5925 15.5548 64.1146L16.9837 62.7152C15.8738 61.5819 15.2504 60.0129 15.2504 58.3874H13.2504ZM15.5496 64.1092C17.0221 65.6355 19.0275 66.501 21.127 66.5038L21.1296 64.5038C19.5827 64.5018 18.0926 63.8646 16.989 62.7206L15.5496 64.1092ZM21.1283 66.5038H24.5331V64.5038H21.1283V66.5038ZM24.5331 66.5038C26.0582 66.5038 27.244 65.2271 27.244 63.7336H25.244C25.244 64.1873 24.8899 64.5038 24.5331 64.5038V66.5038ZM27.244 63.7336C27.244 62.24 26.0582 60.9633 24.5331 60.9633V62.9633C24.8899 62.9633 25.244 63.2798 25.244 63.7336H27.244ZM24.5331 60.9633H21.1283V62.9633H24.5331V60.9633ZM21.1283 60.9633C20.4906 60.9633 19.8666 60.7006 19.427 60.2335L17.9706 61.6042C18.7971 62.4825 19.9525 62.9633 21.1283 62.9633V60.9633ZM19.4179 60.2239C18.951 59.7409 18.6894 59.0885 18.6894 58.4051H16.6894C16.6894 59.5981 17.1463 60.7514 17.9797 61.6138L19.4179 60.2239ZM18.6894 58.4051V51.3418H16.6894V58.4051H18.6894ZM18.6894 51.3418C18.6894 49.8482 17.5036 48.5715 15.9784 48.5715V50.5715C16.3353 50.5715 16.6894 50.888 16.6894 51.3418H18.6894ZM15.9784 48.5715C14.4533 48.5715 13.2675 49.8482 13.2675 51.3418H15.2675C15.2675 50.888 15.6216 50.5715 15.9784 50.5715V48.5715ZM14.9865 50.6467L14.9694 50.629L13.5314 52.0191L13.5485 52.0368L14.9865 50.6467ZM42.6252 40.7025C42.6252 39.209 41.4394 37.9322 39.9143 37.9322V39.9322C40.2711 39.9322 40.6252 40.2487 40.6252 40.7025H42.6252ZM39.9143 37.9322H29.6487V39.9322H39.9143V37.9322ZM29.6487 37.9322C28.1236 37.9322 26.9378 39.209 26.9378 40.7025H28.9378C28.9378 40.2487 29.2919 39.9322 29.6487 39.9322V37.9322ZM26.9378 40.7025V46.0133H28.9378V40.7025H26.9378ZM26.9378 46.0133C26.9378 47.5068 28.1236 48.7835 29.6487 48.7835V46.7835C29.2919 46.7835 28.9378 46.467 28.9378 46.0133H26.9378ZM29.6487 48.7835H39.9143V46.7835H29.6487V48.7835ZM39.9143 48.7835C41.4394 48.7835 42.6252 47.5068 42.6252 46.0133H40.6252C40.6252 46.467 40.2711 46.7835 39.9143 46.7835V48.7835ZM42.6252 46.0133V40.7025H40.6252V46.0133H42.6252ZM60.4454 43.4728H63.6961V41.4728H60.4454V43.4728ZM63.6961 43.4728C63.8536 43.4728 64.0557 43.5532 64.2492 43.7889C64.4442 44.0264 64.5731 44.3615 64.5783 44.7007L66.578 44.6705C66.5661 43.8767 66.2758 43.1054 65.795 42.5198C65.3127 41.9323 64.5823 41.4728 63.6961 41.4728V43.4728ZM64.5782 44.6856C64.5782 45.433 64.0623 45.8568 63.6794 45.8631L63.7128 47.8629C65.4515 47.8339 66.5782 46.2395 66.5782 44.6856H64.5782ZM63.6961 45.863H60.4454V47.863H63.6961V45.863ZM61.4454 46.863V42.4728H59.4454V46.863H61.4454ZM9.11761 45.8453H5.90108V47.8453H9.11761V45.8453ZM5.90108 45.8453C5.51285 45.8453 5.00659 45.4436 4.98438 44.7085L2.98529 44.7689C3.03153 46.2997 4.16775 47.8453 5.90108 47.8453V45.8453ZM4.98484 44.7387C4.98484 43.9747 5.51259 43.5613 5.88397 43.5613V41.5613C4.13379 41.5613 2.98484 43.1659 2.98484 44.7387H4.98484ZM5.88397 43.5613H9.11761V41.5613H5.88397V43.5613ZM8.11761 42.5613V46.8453H10.1176V42.5613H8.11761ZM37.2033 42.4728V44.243H39.2033V42.4728H37.2033ZM38.2033 43.243H31.3596V45.243H38.2033V43.243ZM32.3596 44.243V42.4728H30.3596V44.243H32.3596ZM31.3596 43.4728H38.2033V41.4728H31.3596V43.4728ZM58.7344 32.6215H10.8285V34.6215H58.7344V32.6215ZM10.8285 32.6215C10.6555 32.6215 10.4723 32.5493 10.3138 32.394L8.91377 33.8222C9.40542 34.3042 10.0776 34.6215 10.8285 34.6215V32.6215ZM10.3328 32.4131C10.1979 32.2735 10.1176 32.0845 10.1176 31.8512H8.11761C8.11761 32.5739 8.37953 33.27 8.89473 33.8031L10.3328 32.4131ZM10.1176 31.8512C10.1176 31.6403 10.2003 31.4346 10.3513 31.2696L8.87624 29.919C8.41137 30.4267 8.11761 31.1061 8.11761 31.8512H10.1176ZM10.3329 31.2892C10.3998 31.22 10.4775 31.1672 10.5604 31.1321L9.78188 29.2899C9.44766 29.4311 9.14635 29.639 8.89464 29.8995L10.3329 31.2892ZM10.5604 31.1321C10.6433 31.0971 10.7308 31.08 10.8182 31.0809L10.8389 29.081C10.4757 29.0773 10.1162 29.1486 9.78188 29.2899L10.5604 31.1321ZM10.8285 31.081H58.7344V29.081H10.8285V31.081ZM58.7344 31.081C58.9075 31.081 59.0907 31.1531 59.2492 31.3085L60.6492 29.8802C60.1576 29.3983 59.4853 29.081 58.7344 29.081V31.081ZM59.2302 31.2893C59.3651 31.4289 59.4454 31.6179 59.4454 31.8512H61.4454C61.4454 31.1285 61.1835 30.4324 60.6683 29.8994L59.2302 31.2893ZM59.4454 31.8512C59.4454 32.0621 59.3627 32.2678 59.2117 32.4328L60.6867 33.7834C61.1516 33.2757 61.4454 32.5963 61.4454 31.8512H59.4454ZM59.2301 32.4132C59.1632 32.4825 59.0855 32.5353 59.0025 32.5703L59.7811 34.4126C60.1153 34.2713 60.4166 34.0635 60.6683 33.803L59.2301 32.4132ZM59.0025 32.5703C58.9197 32.6053 58.8322 32.6224 58.7448 32.6215L58.7241 34.6214C59.0873 34.6252 59.4468 34.5538 59.7811 34.4126L59.0025 32.5703ZM53.6825 26.9342L59.4997 13.3564L57.6613 12.5687L51.8441 26.1466L53.6825 26.9342ZM59.5024 13.35C60.0062 12.1509 59.6733 10.6015 58.4304 9.88376L57.4302 11.6157C57.6587 11.7477 57.8391 12.1455 57.6586 12.5752L59.5024 13.35ZM58.4126 9.87371C58.0767 9.6888 57.6999 9.5908 57.3154 9.59041L57.3134 11.5904C57.3585 11.5905 57.4046 11.6019 57.448 11.6258L58.4126 9.87371ZM57.3144 9.59041C56.1874 9.59041 55.3368 10.3888 55.0044 11.3147L56.8868 11.9904C56.9993 11.6771 57.2095 11.5904 57.3144 11.5904L57.3144 9.59041ZM54.9977 11.3341L50.0018 26.2043L51.8977 26.8412L56.8936 11.971L54.9977 11.3341ZM50.9497 27.5227H52.7633V25.5227H50.9497V27.5227ZM51.7633 26.5227V26.5404H53.7633V26.5227H51.7633ZM34.0287 0.163586C33.5657 -0.722773 33.5654 -0.722617 33.5651 -0.722453C33.565 -0.722389 33.5646 -0.722219 33.5644 -0.722091C33.5639 -0.721835 33.5634 -0.72155 33.5628 -0.721236C33.5616 -0.720608 33.5601 -0.719864 33.5585 -0.719006C33.5553 -0.717288 33.5512 -0.715109 33.5463 -0.712469C33.5364 -0.70719 33.5232 -0.700065 33.5069 -0.691105C33.4744 -0.67319 33.4293 -0.647906 33.3733 -0.615332C33.2613 -0.550235 33.1051 -0.455712 32.9174 -0.332352C32.5433 -0.0863873 32.0379 0.278317 31.5066 0.757759C30.4583 1.70389 29.2297 3.16932 28.8081 5.12169L30.7631 5.54379C31.0601 4.16807 31.9531 3.04893 32.8466 2.2425C33.2863 1.84567 33.7069 1.5421 34.0161 1.33886C34.1701 1.23762 34.2949 1.16231 34.3784 1.11372C34.4202 1.08945 34.4515 1.07193 34.4709 1.06125C34.4806 1.05592 34.4873 1.0523 34.4909 1.05041C34.4926 1.04946 34.4936 1.04895 34.4937 1.04887C34.4938 1.04883 34.4937 1.0489 34.4933 1.04908C34.4932 1.04917 34.4929 1.04929 34.4927 1.04943C34.4925 1.0495 34.4923 1.04963 34.4922 1.04967C34.492 1.0498 34.4917 1.04994 34.0287 0.163586ZM28.8084 5.12025C28.252 7.67885 28.9881 10.93 33.0081 14.4739L34.3307 12.9736C30.72 9.79057 30.3952 7.23525 30.7628 5.54523L28.8084 5.12025ZM33.0104 14.4759C35.3103 16.4908 35.6085 17.7141 35.4484 18.4255L37.3996 18.8647C37.8212 16.9915 36.7164 15.0637 34.3284 12.9716L33.0104 14.4759ZM35.4465 18.4341C35.3163 19.0372 34.9005 19.5487 34.4293 19.942C34.2017 20.132 33.9825 20.2765 33.8213 20.3726C33.7413 20.4202 33.6775 20.4549 33.6364 20.4763C33.6159 20.487 33.6012 20.4944 33.5931 20.4983C33.5891 20.5003 33.5868 20.5014 33.5863 20.5016C33.586 20.5018 33.5862 20.5017 33.5868 20.5014C33.5871 20.5012 33.5876 20.501 33.5881 20.5008C33.5884 20.5006 33.5887 20.5005 33.589 20.5003C33.5892 20.5003 33.5895 20.5001 33.5896 20.5001C33.5898 20.5 33.5901 20.4998 34.0116 21.4067C34.433 22.3135 34.4333 22.3134 34.4336 22.3133C34.4337 22.3132 34.4341 22.3131 34.4343 22.3129C34.4348 22.3127 34.4352 22.3125 34.4358 22.3123C34.4368 22.3118 34.438 22.3112 34.4393 22.3106C34.4419 22.3094 34.4449 22.3079 34.4485 22.3062C34.4556 22.3028 34.4647 22.2985 34.4755 22.2931C34.4973 22.2824 34.5264 22.2678 34.5618 22.2493C34.6327 22.2123 34.7296 22.1595 34.8451 22.0906C35.0747 21.9538 35.3848 21.7497 35.7111 21.4773C36.3478 20.9457 37.1381 20.0763 37.4015 18.856L35.4465 18.4341ZM33.5618 20.5135C33.2392 20.676 32.9531 20.9015 32.7188 21.1756L34.2389 22.4754C34.303 22.4004 34.3789 22.3413 34.4613 22.2998L33.5618 20.5135ZM32.7188 21.1756C32.4845 21.4497 32.3063 21.767 32.1929 22.1088L34.0912 22.7386C34.124 22.6396 34.1747 22.5504 34.2389 22.4754L32.7188 21.1756ZM32.1929 22.1088C32.0795 22.4505 32.0327 22.8112 32.0546 23.1705L34.0509 23.049C34.0444 22.9432 34.0583 22.8376 34.0912 22.7386L32.1929 22.1088ZM32.0546 23.1705C32.0765 23.5299 32.1667 23.8823 32.3212 24.2076L34.1279 23.35C34.0838 23.2571 34.0573 23.1548 34.0509 23.049L32.0546 23.1705ZM32.3197 24.2045C32.473 24.5304 32.688 24.8242 32.9541 25.0677L34.3045 23.5924C34.2333 23.5272 34.1732 23.4463 34.1295 23.3532L32.3197 24.2045ZM32.9541 25.0677C33.2203 25.3113 33.5322 25.4999 33.8728 25.6209L34.5422 23.7362C34.4567 23.7059 34.3757 23.6576 34.3045 23.5924L32.9541 25.0677ZM33.8728 25.6209C34.2134 25.7418 34.5747 25.7923 34.9356 25.7688L34.8055 23.7731C34.7169 23.7788 34.6275 23.7665 34.5422 23.7362L33.8728 25.6209ZM34.9356 25.7688C35.2965 25.7453 35.6481 25.6483 35.9702 25.4847L35.0642 23.7017C34.982 23.7434 34.8941 23.7673 34.8055 23.7731L34.9356 25.7688ZM35.5172 24.5932C35.9802 25.4795 35.9805 25.4794 35.9808 25.4792C35.9809 25.4791 35.9813 25.479 35.9815 25.4788C35.982 25.4786 35.9825 25.4783 35.9831 25.478C35.9843 25.4773 35.9857 25.4766 35.9874 25.4757C35.9906 25.474 35.9947 25.4718 35.9996 25.4692C36.0095 25.4639 36.0226 25.4568 36.0389 25.4478C36.0715 25.4299 36.1166 25.4046 36.1726 25.3721C36.2846 25.307 36.4408 25.2125 36.6285 25.0891C37.0026 24.8431 37.508 24.4784 38.0393 23.999C39.0876 23.0528 40.3162 21.5874 40.7378 19.6351L38.7828 19.2129C38.4858 20.5887 37.5928 21.7078 36.6993 22.5142C36.2596 22.9111 35.839 23.2146 35.5298 23.4179C35.3758 23.5191 35.251 23.5944 35.1675 23.643C35.1257 23.6673 35.0944 23.6848 35.075 23.6955C35.0653 23.7008 35.0586 23.7044 35.055 23.7063C35.0533 23.7073 35.0523 23.7078 35.0521 23.7079C35.0521 23.7079 35.0522 23.7078 35.0525 23.7077C35.0527 23.7076 35.0529 23.7075 35.0532 23.7073C35.0533 23.7072 35.0536 23.7071 35.0537 23.7071C35.0539 23.7069 35.0542 23.7068 35.5172 24.5932ZM40.7375 19.6365C41.2935 17.0794 40.5593 13.8094 36.5358 10.2811L35.2172 11.7848C38.8244 14.9481 39.151 17.52 38.7831 19.2115L40.7375 19.6365ZM36.5355 10.2808C34.2354 8.26577 33.936 7.05877 34.0981 6.32841L32.1457 5.8949C31.7261 7.78452 32.8296 9.69317 35.2175 11.7851L36.5355 10.2808ZM34.0994 6.32261C34.2298 5.71845 34.6424 5.21157 35.1073 4.82415C35.3322 4.63672 35.5488 4.49472 35.7079 4.40049C35.7867 4.35377 35.8497 4.31986 35.8901 4.29894C35.9103 4.2885 35.9247 4.28138 35.9325 4.27758C35.9364 4.27568 35.9386 4.27463 35.9391 4.27441C35.9393 4.2743 35.9391 4.2744 35.9384 4.27472C35.9381 4.27487 35.9376 4.27508 35.937 4.27535C35.9368 4.27548 35.9364 4.27562 35.9361 4.27578C35.9359 4.27586 35.9357 4.27599 35.9356 4.27603C35.9353 4.27616 35.935 4.27629 35.5172 3.36775C35.0994 2.45921 35.0991 2.45936 35.0988 2.4595C35.0987 2.45955 35.0983 2.4597 35.0981 2.45981C35.0976 2.46002 35.0971 2.46025 35.0966 2.4605C35.0956 2.46098 35.0944 2.46153 35.0931 2.46214C35.0905 2.46335 35.0874 2.4648 35.0838 2.46649C35.0767 2.46987 35.0676 2.4742 35.0568 2.47949C35.035 2.49007 35.006 2.5045 34.9707 2.5228C34.9001 2.55934 34.8036 2.61159 34.6887 2.67966C34.4601 2.81502 34.1516 3.01711 33.8269 3.28774C33.1925 3.81642 32.4075 4.6815 32.1444 5.90069L34.0994 6.32261ZM35.9669 4.26091C36.2895 4.09847 36.5757 3.8729 36.81 3.59881L35.2899 2.29909C35.2258 2.37404 35.1498 2.43311 35.0675 2.47459L35.9669 4.26091ZM36.81 3.59881C37.0443 3.32479 37.2225 3.00746 37.3359 2.66566L35.4376 2.03586C35.4048 2.13483 35.354 2.22407 35.2899 2.29909L36.81 3.59881ZM37.3359 2.66566C37.4493 2.3239 37.4961 1.96321 37.4742 1.60389L35.4779 1.72545C35.4843 1.83124 35.4705 1.93685 35.4376 2.03586L37.3359 2.66566ZM37.4742 1.60389C37.4523 1.24457 37.3621 0.892186 37.2076 0.566801L35.4008 1.42441C35.4449 1.51733 35.4715 1.61968 35.4779 1.72545L37.4742 1.60389ZM37.2091 0.569987C37.0558 0.244008 36.8407 -0.049708 36.5746 -0.293266L35.2243 1.18201C35.2955 1.24724 35.3555 1.32817 35.3993 1.42123L37.2091 0.569987ZM36.5746 -0.293266C36.3085 -0.536893 35.9966 -0.72546 35.656 -0.846415L34.9866 1.03823C35.0721 1.06859 35.1531 1.11686 35.2243 1.18201L36.5746 -0.293266ZM35.656 -0.846415C35.3154 -0.967399 34.9541 -1.0179 34.5932 -0.994379L34.7233 1.00139C34.8119 0.995609 34.9012 1.00791 34.9866 1.03823L35.656 -0.846415ZM34.5932 -0.994379C34.2323 -0.970854 33.8806 -0.873882 33.5586 -0.710212L34.4646 1.07279C34.5468 1.03103 34.6346 1.00716 34.7233 1.00139L34.5932 -0.994379ZM34.7306 0.876242L34.7477 0.85854L33.3096 -0.531368L33.2925 -0.513665L34.7306 0.876242ZM44.3113 3.75721C43.8003 2.89766 43.8 2.89784 43.7997 2.89803C43.7996 2.8981 43.7992 2.89829 43.799 2.89843C43.7985 2.89871 43.798 2.89901 43.7975 2.89933C43.7964 2.89998 43.7952 2.90071 43.7938 2.90152C43.7911 2.90316 43.7879 2.90514 43.784 2.90747C43.7764 2.91212 43.7666 2.91817 43.7547 2.92559C43.731 2.94044 43.6991 2.96084 43.66 2.98674C43.5818 3.03849 43.4744 3.11251 43.3463 3.2084C43.091 3.39952 42.7484 3.6813 42.3885 4.05117C41.6762 4.78315 40.8473 5.91155 40.5578 7.40889L42.5215 7.78846C42.7111 6.80743 43.268 6.0151 43.8218 5.44594C44.095 5.16524 44.3554 4.95134 44.5449 4.80944C44.6393 4.73882 44.7148 4.68698 44.7638 4.65451C44.7883 4.63829 44.8061 4.62699 44.8162 4.62065C44.8213 4.61749 44.8244 4.61558 44.8255 4.61492C44.826 4.6146 44.826 4.61459 44.8255 4.61489C44.8253 4.61505 44.8249 4.61528 44.8244 4.61559C44.8241 4.61574 44.8238 4.61592 44.8235 4.61612C44.8233 4.61621 44.823 4.61638 44.823 4.61642C44.8227 4.61659 44.8224 4.61676 44.3113 3.75721ZM40.557 7.4131C40.1988 9.31008 40.623 11.705 43.2235 14.338L44.6464 12.9326C42.4563 10.715 42.2988 8.96751 42.5223 7.78424L40.557 7.4131ZM43.2262 14.3407C44.3594 15.4792 44.4327 16.0592 44.3879 16.3084L46.3563 16.6623C46.5853 15.3891 45.8716 14.1634 44.6437 12.9298L43.2262 14.3407ZM44.3883 16.306C44.3535 16.4969 44.2353 16.6784 44.0719 16.8372C43.9946 16.9124 43.9198 16.9698 43.8667 17.0068C43.8407 17.025 43.8213 17.0372 43.8114 17.0433C43.8064 17.0463 43.804 17.0477 43.8044 17.0475C43.8046 17.0474 43.8055 17.0469 43.8072 17.0459C43.808 17.0454 43.8091 17.0449 43.8103 17.0442C43.8109 17.0438 43.8116 17.0435 43.8123 17.0431C43.8127 17.0429 43.813 17.0427 43.8134 17.0425C43.8136 17.0424 43.8139 17.0422 43.814 17.0421C43.8143 17.042 43.8146 17.0418 44.2942 17.9193C44.7739 18.7967 44.7742 18.7966 44.7745 18.7964C44.7746 18.7963 44.7749 18.7962 44.7752 18.796C44.7756 18.7958 44.776 18.7956 44.7765 18.7953C44.7775 18.7948 44.7784 18.7942 44.7795 18.7936C44.7816 18.7925 44.7839 18.7912 44.7865 18.7897C44.7916 18.7869 44.7977 18.7834 44.8045 18.7795C44.8183 18.7715 44.8355 18.7614 44.8557 18.749C44.896 18.7243 44.9489 18.6905 45.0105 18.6475C45.1327 18.5623 45.2954 18.4371 45.4661 18.2712C45.7989 17.9476 46.2196 17.412 46.3559 16.6648L44.3883 16.306ZM43.7435 17.0846C43.1582 17.4709 42.7466 18.0683 42.5824 18.7474L44.5264 19.2173C44.5746 19.018 44.6925 18.8546 44.845 18.7539L43.7435 17.0846ZM42.5824 18.7474C42.4184 19.426 42.5111 20.1449 42.8452 20.7587L44.6018 19.8025C44.5065 19.6273 44.4782 19.417 44.5264 19.2173L42.5824 18.7474ZM42.8452 20.7587C43.1798 21.3733 43.7347 21.8414 44.4042 22.0555L45.0136 20.1506C44.8469 20.0973 44.6967 19.9767 44.6018 19.8025L42.8452 20.7587ZM44.4042 22.0555C45.0745 22.27 45.799 22.2099 46.4254 21.8903L45.5165 20.1088C45.358 20.1896 45.1792 20.2036 45.0136 20.1506L44.4042 22.0555ZM45.9709 20.9995C46.482 21.8591 46.4823 21.8589 46.4826 21.8587C46.4827 21.8586 46.4831 21.8584 46.4833 21.8583C46.4838 21.858 46.4843 21.8577 46.4848 21.8574C46.4859 21.8567 46.4871 21.856 46.4885 21.8552C46.4912 21.8535 46.4945 21.8515 46.4984 21.8492C46.5061 21.8445 46.5159 21.8384 46.5278 21.831C46.5516 21.8161 46.5836 21.7956 46.6228 21.7696C46.7012 21.7177 46.8086 21.6435 46.9368 21.5472C47.1922 21.3555 47.5348 21.0726 47.8941 20.7009C48.6054 19.9649 49.4298 18.8301 49.7088 17.3223L47.7422 16.9584C47.5593 17.9466 47.0064 18.7414 46.456 19.311C46.1843 19.5921 45.9249 19.806 45.736 19.9478C45.642 20.0184 45.5668 20.0702 45.5179 20.1025C45.4935 20.1187 45.4758 20.13 45.4658 20.1362C45.4608 20.1394 45.4577 20.1413 45.4567 20.1419C45.4562 20.1422 45.4562 20.1422 45.4567 20.1419C45.457 20.1417 45.4574 20.1415 45.4579 20.1412C45.4582 20.141 45.4585 20.1408 45.4588 20.1406C45.459 20.1405 45.4592 20.1404 45.4593 20.1403C45.4596 20.1402 45.4599 20.14 45.9709 20.9995ZM49.7082 17.3259C50.0664 15.429 49.6422 13.034 47.0417 10.4011L45.6188 11.8065C47.8089 14.024 47.9664 15.7715 47.7429 16.9548L49.7082 17.3259ZM47.0441 10.4035C45.9117 9.24905 45.8357 8.6742 45.8765 8.45242L43.9096 8.09032C43.6767 9.35556 44.4219 10.5864 45.6164 11.804L47.0441 10.4035ZM45.8768 8.45077C45.9117 8.2598 46.0299 8.07837 46.1933 7.91956C46.2706 7.84433 46.3453 7.78695 46.3985 7.7499C46.4245 7.73174 46.4439 7.71951 46.4538 7.71343C46.4587 7.71042 46.4612 7.70901 46.4608 7.70923C46.4606 7.70935 46.4597 7.70988 46.458 7.71082C46.4572 7.71129 46.4561 7.71187 46.4549 7.71256C46.4543 7.7129 46.4536 7.71327 46.4529 7.71366C46.4525 7.71386 46.4522 7.71406 46.4518 7.71427C46.4516 7.71438 46.4513 7.71454 46.4512 7.71459C46.4509 7.71476 46.4506 7.71492 45.9709 6.83746C45.4913 5.96 45.491 5.96017 45.4907 5.96034C45.4906 5.9604 45.4903 5.96057 45.49 5.96069C45.4896 5.96093 45.4891 5.96118 45.4887 5.96144C45.4877 5.96196 45.4867 5.96251 45.4857 5.96309C45.4836 5.96426 45.4812 5.96556 45.4787 5.967C45.4735 5.96988 45.4675 5.97331 45.4606 5.97728C45.4469 5.98522 45.4297 5.99538 45.4095 6.00775C45.3691 6.03244 45.3163 6.06627 45.2547 6.10924C45.1325 6.19445 44.9698 6.31962 44.7991 6.48559C44.4663 6.80918 44.0456 7.3447 43.9093 8.09197L45.8768 8.45077ZM46.474 7.70174C47.7774 6.94311 48.2062 5.26897 47.5241 3.96611L45.7523 4.89371C45.9599 5.29029 45.807 5.77587 45.4679 5.97318L46.474 7.70174ZM47.5168 3.95228C46.7932 2.62136 45.1382 2.12975 43.8224 2.86717L44.8003 4.61185C45.127 4.42873 45.5593 4.53901 45.7596 4.90754L47.5168 3.95228ZM43.3113 3.73951V3.75721H45.3113V3.73951H43.3113ZM23.4723 3.77491C22.9547 2.91927 22.9544 2.91946 22.9541 2.91966C22.954 2.91973 22.9536 2.91993 22.9534 2.92008C22.9529 2.92037 22.9524 2.92068 22.9518 2.92101C22.9507 2.92168 22.9495 2.92243 22.9482 2.92327C22.9454 2.92494 22.9421 2.92696 22.9383 2.92932C22.9307 2.93404 22.921 2.94014 22.9093 2.94761C22.8859 2.96255 22.8545 2.98299 22.8161 3.0089C22.7395 3.06068 22.6345 3.13461 22.5095 3.23042C22.2603 3.42137 21.9267 3.70293 21.5772 4.0734C20.884 4.80815 20.0866 5.93814 19.8187 7.44092L21.7877 7.79183C21.9647 6.79855 22.5018 6.00781 23.032 5.44584C23.2941 5.16795 23.5443 4.95716 23.7261 4.81785C23.8165 4.74852 23.8888 4.69784 23.9355 4.66629C23.9589 4.65054 23.9757 4.63964 23.9851 4.63365C23.9898 4.63066 23.9926 4.6289 23.9934 4.62838C23.9938 4.62812 23.9938 4.62817 23.9932 4.62853C23.9929 4.62871 23.9925 4.62897 23.9919 4.62931C23.9916 4.62948 23.9913 4.62966 23.991 4.62987C23.9908 4.62998 23.9905 4.63015 23.9904 4.6302C23.9901 4.63037 23.9898 4.63055 23.4723 3.77491ZM19.819 7.4394C19.4836 9.30467 19.8975 11.691 22.3888 14.3072L23.8372 12.9279C21.7432 10.729 21.5753 8.97293 21.7875 7.79335L19.819 7.4394ZM22.3837 14.3017C23.4713 15.4612 23.5621 16.0623 23.5146 16.3261L25.483 16.68C25.7094 15.4214 25.0131 14.1814 23.8423 12.9334L22.3837 14.3017ZM23.5151 16.3237C23.4771 16.5316 23.357 16.7183 23.2055 16.8736C23.1329 16.9481 23.0635 17.0043 23.015 17.0401C22.9912 17.0577 22.9738 17.0693 22.9653 17.0748C22.9611 17.0776 22.9592 17.0787 22.96 17.0782C22.9604 17.078 22.9615 17.0773 22.9633 17.0762C22.9642 17.0757 22.9653 17.075 22.9665 17.0743C22.9672 17.0739 22.9679 17.0735 22.9686 17.0731C22.969 17.0729 22.9693 17.0727 22.9697 17.0724C22.9699 17.0723 22.9702 17.0721 22.9703 17.0721C22.9706 17.0719 22.9709 17.0717 23.4723 17.937C23.9736 18.8022 23.9739 18.802 23.9743 18.8019C23.9744 18.8018 23.9747 18.8016 23.9749 18.8015C23.9753 18.8012 23.9758 18.801 23.9763 18.8007C23.9772 18.8001 23.9782 18.7996 23.9793 18.7989C23.9813 18.7977 23.9837 18.7963 23.9862 18.7948C23.9912 18.7918 23.9972 18.7883 24.0039 18.7842C24.0173 18.776 24.034 18.7655 24.0535 18.7529C24.0924 18.7276 24.1432 18.6932 24.2022 18.6496C24.3195 18.5632 24.4746 18.4369 24.6373 18.2701C24.9563 17.943 25.3494 17.4128 25.4826 16.6825L23.5151 16.3237ZM22.9555 17.0808C21.6577 17.8642 21.2485 19.5466 21.9852 20.8533L23.7274 19.8711C23.506 19.4784 23.6444 19.0011 23.989 18.7931L22.9555 17.0808ZM21.9852 20.8533C22.7336 22.1807 24.3998 22.6507 25.717 21.8557L24.6836 20.1434C24.3584 20.3397 23.9372 20.2432 23.7274 19.8711L21.9852 20.8533ZM25.2003 20.9995C25.7228 21.8522 25.7232 21.852 25.7235 21.8518C25.7236 21.8517 25.7239 21.8515 25.7242 21.8513C25.7246 21.8511 25.7251 21.8507 25.7257 21.8504C25.7268 21.8497 25.728 21.849 25.7293 21.8481C25.7321 21.8465 25.7353 21.8444 25.7391 21.842C25.7467 21.8373 25.7563 21.8311 25.768 21.8236C25.7913 21.8085 25.8226 21.7879 25.8609 21.7618C25.9374 21.7095 26.0421 21.6349 26.1669 21.5383C26.4156 21.3458 26.7488 21.0621 27.0977 20.6897C27.7896 19.9514 28.5862 18.8176 28.8538 17.3158L26.8849 16.9649C26.7077 17.9592 26.1698 18.755 25.6383 19.3222C25.3756 19.6026 25.1249 19.8157 24.9427 19.9568C24.852 20.027 24.7795 20.0784 24.7326 20.1104C24.7092 20.1264 24.6923 20.1375 24.6828 20.1436C24.6781 20.1467 24.6752 20.1485 24.6743 20.149C24.6739 20.1493 24.6739 20.1493 24.6745 20.1489C24.6748 20.1487 24.6752 20.1485 24.6758 20.1482C24.676 20.148 24.6763 20.1478 24.6767 20.1476C24.6768 20.1475 24.6771 20.1473 24.6772 20.1473C24.6775 20.1471 24.6778 20.1469 25.2003 20.9995ZM28.8536 17.3173C29.189 15.4521 28.7751 13.0658 26.2838 10.4496L24.8354 11.8288C26.9294 14.0277 27.0972 15.7838 26.8851 16.9634L28.8536 17.3173ZM26.2889 10.455C25.1971 9.29111 25.1129 8.69319 25.1572 8.45242L23.1903 8.09032C22.9609 9.33657 23.6637 10.5797 24.8303 11.8233L26.2889 10.455ZM25.1575 8.45077C25.1954 8.24285 25.3156 8.0561 25.4671 7.90081C25.5397 7.82638 25.6091 7.77011 25.6576 7.73432C25.6814 7.71677 25.6988 7.70512 25.7073 7.69961C25.7115 7.69688 25.7134 7.69575 25.7126 7.69624C25.7122 7.69649 25.7111 7.69715 25.7093 7.69822C25.7084 7.69876 25.7073 7.6994 25.706 7.70015C25.7054 7.70052 25.7047 7.70092 25.704 7.70135C25.7036 7.70156 25.7032 7.70178 25.7029 7.70201C25.7027 7.70212 25.7024 7.7023 25.7023 7.70235C25.702 7.70253 25.7017 7.70271 25.2003 6.83746C24.699 5.97221 24.6987 5.97239 24.6983 5.97258C24.6982 5.97264 24.6979 5.97283 24.6977 5.97296C24.6972 5.97321 24.6968 5.97348 24.6963 5.97375C24.6954 5.9743 24.6944 5.97488 24.6933 5.9755C24.6912 5.97673 24.6889 5.9781 24.6864 5.9796C24.6813 5.98261 24.6754 5.98617 24.6687 5.99027C24.6553 5.99848 24.6386 6.00892 24.6191 6.02157C24.5802 6.04683 24.5294 6.08124 24.4704 6.12481C24.3531 6.21129 24.198 6.33758 24.0353 6.50435C23.7163 6.83145 23.3232 7.36166 23.19 8.09197L25.1575 8.45077ZM25.717 7.6936C27.0149 6.91027 27.4241 5.22783 26.6873 3.9211L24.9451 4.90332C25.1666 5.29603 25.0282 5.7733 24.6836 5.98132L25.717 7.6936ZM26.6889 3.92391C26.5128 3.60912 26.2769 3.33121 25.9933 3.10746L24.7545 4.67759C24.8292 4.73652 24.894 4.81185 24.9436 4.90051L26.6889 3.92391ZM25.9933 3.10746C25.7096 2.88364 25.384 2.71866 25.0348 2.62372L24.5101 4.55366C24.5967 4.57719 24.6799 4.61874 24.7545 4.67759L25.9933 3.10746ZM25.0348 2.62372C24.6856 2.52876 24.321 2.50614 23.9626 2.55747L24.2462 4.53726C24.3341 4.52467 24.4236 4.53014 24.5101 4.55366L25.0348 2.62372ZM23.9626 2.55747C23.6043 2.60879 23.2609 2.73279 22.9521 2.92087L23.9925 4.62895C24.072 4.58053 24.1582 4.54986 24.2462 4.53726L23.9626 2.55747Z" fill="#D9703C" mask="url(#path-1-inside-1_230_241)"/>
</svg>
