<svg width="109" height="109" viewBox="0 0 109 109" fill="none" xmlns="http://www.w3.org/2000/svg">
<path d="M30.52 8.71997C18.5053 8.71997 8.71997 18.5053 8.71997 30.52V78.48C8.71997 90.4947 18.5053 100.28 30.52 100.28H78.48C90.4947 100.28 100.28 90.4947 100.28 78.48V30.52C100.28 18.5053 90.4947 8.71997 78.48 8.71997H30.52ZM30.52 13.08H78.48C88.1388 13.08 95.92 20.8611 95.92 30.52V78.48C95.92 88.1388 88.1388 95.92 78.48 95.92H30.52C20.8611 95.92 13.08 88.1388 13.08 78.48V30.52C13.08 20.8611 20.8611 13.08 30.52 13.08ZM46.0695 26.16C43.7741 26.16 41.6414 27.3695 40.462 29.3363L36.4596 35.9998C36.0622 36.6581 35.3555 37.06 34.5904 37.06H23.98C21.5971 37.06 19.62 39.0371 19.62 41.42V76.3C19.62 78.6829 21.5971 80.66 23.98 80.66H85.02C87.4029 80.66 89.38 78.6829 89.38 76.3V41.42C89.38 39.0371 87.4029 37.06 85.02 37.06H74.4095C73.6398 37.06 72.9349 36.662 72.5403 36.004V35.9998L68.538 29.3363C67.3586 27.3695 65.2247 26.16 62.9304 26.16H46.0695ZM26.16 30.52C24.9566 30.52 23.98 31.4966 23.98 32.7V34.88H32.7V32.7C32.7 31.4966 31.7233 30.52 30.52 30.52H26.16ZM46.0695 30.52H62.9304C63.6969 30.52 64.4051 30.9179 64.7996 31.5759V31.5802L68.7977 38.2436C69.9771 40.2103 72.1141 41.42 74.4095 41.42H85.02V76.3H23.98V41.42H34.5904C36.8847 41.42 39.0167 40.2123 40.198 38.2479L40.2022 38.2436L44.2003 31.5802V31.5759C44.5948 30.9181 45.2998 30.52 46.0695 30.52ZM54.5 43.6C46.0979 43.6 39.24 50.4579 39.24 58.86C39.24 67.262 46.0979 74.12 54.5 74.12C62.902 74.12 69.76 67.262 69.76 58.86C69.76 50.4579 62.902 43.6 54.5 43.6ZM74.12 43.6C73.5418 43.6 72.9873 43.8296 72.5785 44.2385C72.1696 44.6473 71.94 45.2018 71.94 45.78C71.94 46.3581 72.1696 46.9126 72.5785 47.3215C72.9873 47.7303 73.5418 47.96 74.12 47.96C74.6981 47.96 75.2526 47.7303 75.6615 47.3215C76.0703 46.9126 76.3 46.3581 76.3 45.78C76.3 45.2018 76.0703 44.6473 75.6615 44.2385C75.2526 43.8296 74.6981 43.6 74.12 43.6ZM54.5 47.96C60.5457 47.96 65.4 52.8142 65.4 58.86C65.4 64.9057 60.5457 69.76 54.5 69.76C48.4542 69.76 43.6 64.9057 43.6 58.86C43.6 52.8142 48.4542 47.96 54.5 47.96Z" fill="white"/>
</svg>
