<svg width="96" height="65" viewBox="0 0 96 65" fill="none" xmlns="http://www.w3.org/2000/svg">
<path d="M48 1C44.1959 1 40.3919 1.9836 36.9844 3.94494C36.8089 4.03644 36.6537 4.16238 36.5283 4.31518C36.4029 4.46798 36.3098 4.64449 36.2546 4.83407C36.1994 5.02366 36.1833 5.22242 36.2071 5.41838C36.231 5.61435 36.2944 5.80347 36.3936 5.97438C36.4927 6.14529 36.6255 6.29445 36.784 6.41288C36.9425 6.53132 37.1233 6.61658 37.3157 6.66355C37.5081 6.71051 37.7081 6.71821 37.9036 6.68617C38.099 6.65413 38.286 6.58302 38.4531 6.47712C41.3555 4.80649 44.6482 3.92695 48 3.92695C51.3518 3.92695 54.6445 4.80649 57.5469 6.47712C57.714 6.58302 57.901 6.65413 58.0964 6.68617C58.2919 6.71821 58.4919 6.71051 58.6843 6.66355C58.8767 6.61658 59.0575 6.53132 59.216 6.41288C59.3745 6.29445 59.5073 6.14529 59.6064 5.97438C59.7056 5.80347 59.769 5.61435 59.7929 5.41838C59.8167 5.22242 59.8006 5.02366 59.7454 4.83407C59.6902 4.64449 59.5971 4.46798 59.4717 4.31518C59.3463 4.16238 59.1911 4.03644 59.0156 3.94494C55.667 2.01635 51.8677 1.00065 48 1ZM48 6.85475C45.2094 6.85475 42.4188 7.57488 39.9219 9.01222C39.7546 9.10833 39.6081 9.23632 39.4905 9.38888C39.3729 9.54145 39.2866 9.7156 39.2365 9.9014C39.1865 10.0872 39.1736 10.281 39.1987 10.4717C39.2238 10.6625 39.2864 10.8464 39.3828 11.0131C39.4793 11.1797 39.6077 11.3258 39.7608 11.443C39.9139 11.5602 40.0887 11.6462 40.2751 11.6961C40.4615 11.7459 40.656 11.7587 40.8474 11.7337C41.0388 11.7087 41.2234 11.6464 41.3906 11.5503C43.3999 10.3935 45.6795 9.78448 48 9.78448C50.3205 9.78448 52.6001 10.3935 54.6094 11.5503C54.9471 11.7444 55.3484 11.7968 55.7249 11.6961C56.1014 11.5953 56.4224 11.3496 56.6172 11.0131C56.8119 10.6765 56.8646 10.2766 56.7635 9.9014C56.6624 9.52616 56.4159 9.20632 56.0781 9.01222C53.6223 7.59857 50.8361 6.85446 48 6.85475ZM48 12.7095C46.2258 12.7095 44.4486 13.1691 42.8594 14.0824C42.5216 14.2765 42.2751 14.5964 42.174 14.9716C42.0729 15.3468 42.1256 15.7467 42.3203 16.0833C42.5151 16.4199 42.8361 16.6655 43.2126 16.7663C43.5891 16.867 43.9904 16.8146 44.3281 16.6205C45.4443 15.9776 46.7108 15.6391 48 15.6391C49.2892 15.6391 50.5557 15.9776 51.6719 16.6205C52.0096 16.8146 52.4109 16.867 52.7874 16.7663C53.1639 16.6655 53.4849 16.4199 53.6797 16.0833C53.8744 15.7467 53.9271 15.3468 53.826 14.9716C53.7249 14.5964 53.4784 14.2765 53.1406 14.0824C51.5778 13.1828 49.8048 12.7093 48 12.7095ZM22.9578 19.8728C10.8406 19.8757 1 29.7761 1 41.9364C1 54.0938 10.8406 64 22.9578 64C22.9598 64 22.9617 64 22.9637 64C31.879 63.9854 39.7368 58.4702 43.1061 50.2648H52.8939C56.2603 58.4702 64.121 63.9854 73.0363 64C73.0383 64 73.0402 64 73.0422 64C85.1594 64 95 54.0938 95 41.9364C95 29.7761 85.1594 19.8786 73.0422 19.8786C73.0353 19.8786 73.0285 19.8786 73.0216 19.8786C72.7484 19.8786 72.4811 19.8991 72.2109 19.9108C72.1095 19.8893 72.0061 19.8785 71.9024 19.8786H24.0976C23.9819 19.8778 23.8665 19.8906 23.7539 19.9167C23.5042 19.902 23.2545 19.8845 23.0019 19.8757C22.9872 19.8755 22.9725 19.8726 22.9578 19.8728ZM22.9519 22.8001H22.9578C23.2956 22.8119 23.6334 22.8294 23.9713 22.8587C24.1593 22.8751 24.3488 22.8552 24.5294 22.8001H71.5352C71.6884 22.8409 71.8471 22.8567 72.0053 22.847C72.3519 22.8236 72.7014 22.806 73.0481 22.8031C83.5614 22.8031 92.0625 31.3451 92.0625 41.9335C92.0625 52.5218 83.5584 61.0697 73.0422 61.0697C64.9934 61.058 57.8259 55.9556 55.1381 48.3122C55.0373 48.0267 54.8501 47.7793 54.6023 47.6042C54.3545 47.4291 54.0583 47.3349 53.7546 47.3345H42.2454C41.9422 47.3355 41.6467 47.43 41.3995 47.605C41.1523 47.7801 40.9655 48.0271 40.8648 48.3122C38.1741 55.9556 31.0066 61.058 22.9578 61.0697C12.4416 61.0697 3.9375 52.5218 3.9375 41.9335C3.9375 31.3451 12.4386 22.8031 22.9519 22.8001ZM73.1538 27.645C70.3338 27.645 68.022 29.9664 68.022 32.7796C68.0251 34.1374 68.5659 35.4392 69.5269 36.4018C70.4879 37.3644 71.7913 37.91 73.1538 37.92C74.491 37.875 75.7583 37.3141 76.6882 36.3555C77.6182 35.3969 78.138 34.1158 78.138 32.7825C78.138 31.4492 77.6182 30.168 76.6882 29.2095C75.7583 28.2509 74.491 27.6899 73.1538 27.645ZM73.1538 30.5723C74.3729 30.5723 75.3393 31.5354 75.3393 32.7796C75.3393 33.358 75.1087 33.9127 74.6983 34.3217C74.2879 34.7307 73.7313 34.9605 73.1509 34.9605C72.5705 34.9605 72.0138 34.7307 71.6034 34.3217C71.193 33.9127 70.9624 33.358 70.9624 32.7796C70.9624 31.5354 71.9348 30.5723 73.1538 30.5723ZM21.7975 31.2983C21.409 31.3045 21.0387 31.4638 20.7679 31.7414C20.497 32.0191 20.3475 32.3924 20.3522 32.7796V40.4698H12.7148C12.3252 40.4698 11.9516 40.624 11.6762 40.8985C11.4007 41.173 11.246 41.5453 11.246 41.9335C11.246 42.3216 11.4007 42.6939 11.6762 42.9684C11.9516 43.2429 12.3252 43.3971 12.7148 43.3971H20.3522V51.0874C20.3522 51.4755 20.507 51.8478 20.7824 52.1223C21.0579 52.3968 21.4315 52.551 21.821 52.551C22.2105 52.551 22.5841 52.3968 22.8596 52.1223C23.135 51.8478 23.2897 51.4755 23.2897 51.0874V43.3971H30.9272C31.3168 43.3971 31.6904 43.2429 31.9658 42.9684C32.2413 42.6939 32.396 42.3216 32.396 41.9335C32.396 41.5453 32.2413 41.173 31.9658 40.8985C31.6904 40.624 31.3168 40.4698 30.9272 40.4698H23.2897V32.7796C23.2921 32.5839 23.2551 32.3897 23.1809 32.2086C23.1067 32.0274 22.9967 31.8629 22.8576 31.7248C22.7185 31.5867 22.553 31.4778 22.3709 31.4045C22.1888 31.3313 21.9938 31.2952 21.7975 31.2983ZM42.125 36.0202C41.7355 36.0202 41.3619 36.1744 41.0864 36.4489C40.811 36.7234 40.6563 37.0957 40.6563 37.4838C40.6563 37.872 40.811 38.2443 41.0864 38.5188C41.3619 38.7933 41.7355 38.9475 42.125 38.9475H45.0625C45.452 38.9475 45.8256 38.7933 46.1011 38.5188C46.3765 38.2443 46.5313 37.872 46.5313 37.4838C46.5313 37.0957 46.3765 36.7234 46.1011 36.4489C45.8256 36.1744 45.452 36.0202 45.0625 36.0202H42.125ZM50.9375 36.0202C50.548 36.0202 50.1744 36.1744 49.8989 36.4489C49.6235 36.7234 49.4688 37.0957 49.4688 37.4838C49.4688 37.872 49.6235 38.2443 49.8989 38.5188C50.1744 38.7933 50.548 38.9475 50.9375 38.9475H53.875C54.2645 38.9475 54.6381 38.7933 54.9136 38.5188C55.189 38.2443 55.3438 37.872 55.3438 37.4838C55.3438 37.0957 55.189 36.7234 54.9136 36.4489C54.6381 36.1744 54.2645 36.0202 53.875 36.0202H50.9375ZM64.0476 36.7988C61.2276 36.7988 58.9187 39.1203 58.9187 41.9335C58.9217 43.2908 59.4622 44.5921 60.4225 45.5546C61.3829 46.5172 62.6856 47.0631 64.0476 47.0739C65.3847 47.0289 66.652 46.468 67.582 45.5094C68.5119 44.5508 69.0318 43.2697 69.0318 41.9364C69.0318 40.6031 68.5119 39.3219 67.582 38.3634C66.652 37.4048 65.3847 36.8438 64.0476 36.7988ZM82.2601 36.7988C80.8976 36.8089 79.5941 37.3545 78.6331 38.3171C77.6721 39.2797 77.1313 40.5815 77.1283 41.9393C77.1283 44.7496 79.4371 47.0739 82.2571 47.0739C85.0771 47.0739 87.386 44.7525 87.386 41.9393C87.3829 40.582 86.8425 39.2807 85.8822 38.3181C84.9218 37.3556 83.6221 36.8096 82.2601 36.7988ZM64.0476 39.7262C65.2666 39.7262 66.2331 40.6893 66.2331 41.9335C66.2331 42.5119 66.0025 43.0666 65.5921 43.4756C65.1817 43.8846 64.625 44.1144 64.0446 44.1144C63.4642 44.1144 62.9076 43.8846 62.4972 43.4756C62.0868 43.0666 61.8562 42.5119 61.8562 41.9335C61.8562 40.6893 62.8256 39.7262 64.0476 39.7262ZM82.2601 39.7262C83.4791 39.7262 84.4485 40.6923 84.4485 41.9393C84.4485 43.1805 83.4791 44.1466 82.2571 44.1466C81.967 44.1478 81.6796 44.0913 81.4117 43.9805C81.1437 43.8697 80.9006 43.7068 80.6966 43.5013C80.4925 43.2958 80.3317 43.0518 80.2233 42.7836C80.115 42.5154 80.0615 42.2284 80.0658 41.9393C80.0658 40.6952 81.0381 39.7262 82.2601 39.7262ZM73.1538 45.9527C70.3338 45.9527 68.022 48.2712 68.022 51.0874C68.0258 52.4447 68.567 53.7457 69.5279 54.7077C70.4888 55.6696 71.7918 56.2149 73.1538 56.2249C75.9738 56.2249 78.2768 53.9006 78.2768 51.0874C78.2768 48.2712 75.9738 45.9527 73.1538 45.9527ZM73.1538 48.8801C74.3729 48.8801 75.3393 49.8432 75.3393 51.0874C75.3393 51.6658 75.1087 52.2205 74.6983 52.6295C74.2879 53.0385 73.7313 53.2682 73.1509 53.2682C72.5705 53.2682 72.0138 53.0385 71.6034 52.6295C71.193 52.2205 70.9624 51.6658 70.9624 51.0874C70.9624 49.8432 71.9348 48.8801 73.1538 48.8801Z" fill="white" stroke="#D9703C"/>
</svg>
