<svg width="77" height="72" viewBox="0 0 77 72" fill="none" xmlns="http://www.w3.org/2000/svg">
<mask id="path-1-outside-1_230_226" maskUnits="userSpaceOnUse" x="0" y="0" width="77" height="72" fill="black">
<rect fill="white" width="77" height="72"/>
<path d="M69.9817 1H6.45166C5.00629 1.00182 3.62057 1.65009 2.59854 2.80259C1.5765 3.95508 1.00162 5.51767 1 7.14754L1 50.2623C1.00162 51.8922 1.5765 53.4548 2.59854 54.6072C3.62057 55.7597 5.00629 56.408 6.45166 56.4098H32.4016V61.1639H24.5814C24.0473 61.1634 23.5267 61.3526 23.0934 61.7048C22.6601 62.0569 22.3363 62.5541 22.1679 63.1256L20.9563 67.2239C20.8288 67.6552 20.794 68.1144 20.8548 68.5638C20.9156 69.0132 21.0702 69.4398 21.3059 69.8086C21.5416 70.1774 21.8517 70.4777 22.2105 70.6848C22.5694 70.892 22.9667 71 23.3698 71H53.0635C53.4666 71 53.864 70.892 54.2228 70.6848C54.5816 70.4777 54.8917 70.1774 55.1274 69.8086C55.3631 69.4398 55.5177 69.0132 55.5785 68.5638C55.6393 68.1144 55.6045 67.6552 55.4771 67.2239L54.2655 63.1256C54.097 62.5541 53.7732 62.0569 53.3399 61.7048C52.9066 61.3527 52.386 61.1634 51.8519 61.1639H44.0318V56.4098H62.3494V67.3115C62.3503 68.2894 62.6952 69.227 63.3085 69.9185C63.9217 70.61 64.7531 70.9989 65.6203 71H72.1623C73.0296 70.9989 73.861 70.61 74.4742 69.9185C75.0874 69.227 75.4324 68.2894 75.4333 67.3115V7.14754C75.4317 5.51767 74.8568 3.95508 73.8348 2.80259C72.8128 1.65009 71.427 1.00182 69.9817 1ZM51.8519 63.623C51.9282 63.6229 52.0026 63.6499 52.0645 63.7002C52.1264 63.7506 52.1727 63.8216 52.1968 63.9033L53.4083 68.0016C53.4265 68.0632 53.4315 68.1288 53.4228 68.193C53.4141 68.2572 53.392 68.3182 53.3583 68.3708C53.3247 68.4235 53.2804 68.4664 53.2291 68.496C53.1778 68.5256 53.1211 68.541 53.0635 68.541H23.3698C23.3123 68.541 23.2555 68.5256 23.2042 68.496C23.153 68.4664 23.1087 68.4235 23.075 68.3708C23.0413 68.3182 23.0192 68.2572 23.0105 68.193C23.0018 68.1288 23.0068 68.0632 23.025 68.0016L24.2366 63.9033C24.2606 63.8216 24.3069 63.7506 24.3687 63.7003C24.4306 63.65 24.505 63.6229 24.5813 63.623H51.8519ZM34.5822 61.1639V56.4098H41.8511V61.1639H34.5822ZM62.3494 37.9672V49.0328H7.54199V8.37705H68.8913V34.2787H65.6203C64.7531 34.2798 63.9217 34.6687 63.3085 35.3602C62.6952 36.0517 62.3503 36.9893 62.3494 37.9672ZM73.2527 67.3115C73.2524 67.6375 73.1374 67.95 72.933 68.1805C72.7286 68.411 72.4514 68.5406 72.1623 68.541H65.6203C65.3313 68.5406 65.0541 68.411 64.8497 68.1805C64.6453 67.95 64.5303 67.6375 64.53 67.3115V37.9672C64.5303 37.6412 64.6453 37.3287 64.8497 37.0982C65.0541 36.8677 65.3313 36.7381 65.6203 36.7377H72.1623C72.4514 36.7381 72.7286 36.8677 72.933 37.0982C73.1374 37.3287 73.2524 37.6412 73.2527 37.9672V67.3115ZM73.2527 34.4902C72.9026 34.35 72.5338 34.2785 72.1623 34.2787H71.072V7.14754C71.072 6.82146 70.9571 6.50873 70.7527 6.27815C70.5482 6.04757 70.2708 5.91803 69.9817 5.91803H6.45166C6.16249 5.91803 5.88516 6.04757 5.68068 6.27815C5.4762 6.50873 5.36133 6.82146 5.36133 7.14754V50.2623C5.36133 50.5884 5.4762 50.9011 5.68068 51.1317C5.88516 51.3623 6.16249 51.4918 6.45166 51.4918H62.3494V53.9508H6.45166C5.58443 53.9497 4.753 53.5608 4.13978 52.8693C3.52656 52.1778 3.18163 51.2402 3.18066 50.2623V7.14754C3.18163 6.16962 3.52656 5.23206 4.13978 4.54056C4.753 3.84906 5.58443 3.4601 6.45166 3.45902H69.9817C70.8489 3.4601 71.6803 3.84906 72.2936 4.54056C72.9068 5.23206 73.2517 6.16962 73.2527 7.14754V34.4902ZM67.8839 40.7328C67.9112 40.8068 67.9448 40.8776 67.9842 40.9443C68.0646 41.0787 68.1673 41.1945 68.2866 41.2852C68.3457 41.3297 68.4085 41.3676 68.4741 41.3984C68.5399 41.4285 68.608 41.4516 68.6776 41.4672C68.8186 41.5001 68.9641 41.5001 69.1051 41.4672C69.1747 41.4516 69.2428 41.4285 69.3086 41.3984C69.3742 41.3676 69.437 41.3297 69.4961 41.2852C69.6154 41.1945 69.718 41.0787 69.7985 40.9443C69.8379 40.8776 69.8715 40.8068 69.8988 40.7328C69.9256 40.6586 69.946 40.5818 69.9599 40.5033C69.989 40.3443 69.989 40.1803 69.9599 40.0213C69.946 39.9428 69.9255 39.866 69.8988 39.7918C69.8715 39.7178 69.8379 39.647 69.7985 39.5803C69.718 39.4458 69.6154 39.3301 69.4961 39.2393C69.437 39.1949 69.3742 39.157 69.3086 39.1262C69.2428 39.0961 69.1747 39.073 69.1051 39.0574C68.9641 39.0246 68.8186 39.0246 68.6776 39.0574C68.608 39.073 68.5399 39.0961 68.4741 39.1262C68.4085 39.157 68.3457 39.1949 68.2866 39.2393C68.1673 39.3301 68.0646 39.4458 67.9842 39.5803C67.9448 39.647 67.9112 39.7178 67.8839 39.7918C67.8572 39.866 67.8367 39.9428 67.8228 40.0213C67.7938 40.1803 67.7938 40.3443 67.8228 40.5033C67.8367 40.5818 67.8571 40.6586 67.8839 40.7328ZM69.9817 58.7049H67.801C67.5118 58.7049 67.2345 58.8345 67.03 59.065C66.8256 59.2956 66.7107 59.6083 66.7107 59.9344C66.7107 60.2605 66.8256 60.5732 67.03 60.8038C67.2345 61.0344 67.5118 61.1639 67.801 61.1639H69.9817C70.2708 61.1639 70.5482 61.0344 70.7527 60.8038C70.9571 60.5732 71.072 60.2605 71.072 59.9344C71.072 59.6083 70.9571 59.2956 70.7527 59.065C70.5482 58.8345 70.2708 58.7049 69.9817 58.7049ZM69.9817 63.623H67.801C67.5118 63.623 67.2345 63.7525 67.03 63.9831C66.8256 64.2136 66.7107 64.5264 66.7107 64.8525C66.7107 65.1785 66.8256 65.4913 67.03 65.7219C67.2345 65.9524 67.5118 66.082 67.801 66.082H69.9817C70.2708 66.082 70.5482 65.9524 70.7527 65.7219C70.9571 65.4913 71.072 65.1785 71.072 64.8525C71.072 64.5264 70.9571 64.2136 70.7527 63.9831C70.5482 63.7525 70.2708 63.623 69.9817 63.623Z"/>
</mask>
<path d="M69.9817 1H6.45166C5.00629 1.00182 3.62057 1.65009 2.59854 2.80259C1.5765 3.95508 1.00162 5.51767 1 7.14754L1 50.2623C1.00162 51.8922 1.5765 53.4548 2.59854 54.6072C3.62057 55.7597 5.00629 56.408 6.45166 56.4098H32.4016V61.1639H24.5814C24.0473 61.1634 23.5267 61.3526 23.0934 61.7048C22.6601 62.0569 22.3363 62.5541 22.1679 63.1256L20.9563 67.2239C20.8288 67.6552 20.794 68.1144 20.8548 68.5638C20.9156 69.0132 21.0702 69.4398 21.3059 69.8086C21.5416 70.1774 21.8517 70.4777 22.2105 70.6848C22.5694 70.892 22.9667 71 23.3698 71H53.0635C53.4666 71 53.864 70.892 54.2228 70.6848C54.5816 70.4777 54.8917 70.1774 55.1274 69.8086C55.3631 69.4398 55.5177 69.0132 55.5785 68.5638C55.6393 68.1144 55.6045 67.6552 55.4771 67.2239L54.2655 63.1256C54.097 62.5541 53.7732 62.0569 53.3399 61.7048C52.9066 61.3527 52.386 61.1634 51.8519 61.1639H44.0318V56.4098H62.3494V67.3115C62.3503 68.2894 62.6952 69.227 63.3085 69.9185C63.9217 70.61 64.7531 70.9989 65.6203 71H72.1623C73.0296 70.9989 73.861 70.61 74.4742 69.9185C75.0874 69.227 75.4324 68.2894 75.4333 67.3115V7.14754C75.4317 5.51767 74.8568 3.95508 73.8348 2.80259C72.8128 1.65009 71.427 1.00182 69.9817 1ZM51.8519 63.623C51.9282 63.6229 52.0026 63.6499 52.0645 63.7002C52.1264 63.7506 52.1727 63.8216 52.1968 63.9033L53.4083 68.0016C53.4265 68.0632 53.4315 68.1288 53.4228 68.193C53.4141 68.2572 53.392 68.3182 53.3583 68.3708C53.3247 68.4235 53.2804 68.4664 53.2291 68.496C53.1778 68.5256 53.1211 68.541 53.0635 68.541H23.3698C23.3123 68.541 23.2555 68.5256 23.2042 68.496C23.153 68.4664 23.1087 68.4235 23.075 68.3708C23.0413 68.3182 23.0192 68.2572 23.0105 68.193C23.0018 68.1288 23.0068 68.0632 23.025 68.0016L24.2366 63.9033C24.2606 63.8216 24.3069 63.7506 24.3687 63.7003C24.4306 63.65 24.505 63.6229 24.5813 63.623H51.8519ZM34.5822 61.1639V56.4098H41.8511V61.1639H34.5822ZM62.3494 37.9672V49.0328H7.54199V8.37705H68.8913V34.2787H65.6203C64.7531 34.2798 63.9217 34.6687 63.3085 35.3602C62.6952 36.0517 62.3503 36.9893 62.3494 37.9672ZM73.2527 67.3115C73.2524 67.6375 73.1374 67.95 72.933 68.1805C72.7286 68.411 72.4514 68.5406 72.1623 68.541H65.6203C65.3313 68.5406 65.0541 68.411 64.8497 68.1805C64.6453 67.95 64.5303 67.6375 64.53 67.3115V37.9672C64.5303 37.6412 64.6453 37.3287 64.8497 37.0982C65.0541 36.8677 65.3313 36.7381 65.6203 36.7377H72.1623C72.4514 36.7381 72.7286 36.8677 72.933 37.0982C73.1374 37.3287 73.2524 37.6412 73.2527 37.9672V67.3115ZM73.2527 34.4902C72.9026 34.35 72.5338 34.2785 72.1623 34.2787H71.072V7.14754C71.072 6.82146 70.9571 6.50873 70.7527 6.27815C70.5482 6.04757 70.2708 5.91803 69.9817 5.91803H6.45166C6.16249 5.91803 5.88516 6.04757 5.68068 6.27815C5.4762 6.50873 5.36133 6.82146 5.36133 7.14754V50.2623C5.36133 50.5884 5.4762 50.9011 5.68068 51.1317C5.88516 51.3623 6.16249 51.4918 6.45166 51.4918H62.3494V53.9508H6.45166C5.58443 53.9497 4.753 53.5608 4.13978 52.8693C3.52656 52.1778 3.18163 51.2402 3.18066 50.2623V7.14754C3.18163 6.16962 3.52656 5.23206 4.13978 4.54056C4.753 3.84906 5.58443 3.4601 6.45166 3.45902H69.9817C70.8489 3.4601 71.6803 3.84906 72.2936 4.54056C72.9068 5.23206 73.2517 6.16962 73.2527 7.14754V34.4902ZM67.8839 40.7328C67.9112 40.8068 67.9448 40.8776 67.9842 40.9443C68.0646 41.0787 68.1673 41.1945 68.2866 41.2852C68.3457 41.3297 68.4085 41.3676 68.4741 41.3984C68.5399 41.4285 68.608 41.4516 68.6776 41.4672C68.8186 41.5001 68.9641 41.5001 69.1051 41.4672C69.1747 41.4516 69.2428 41.4285 69.3086 41.3984C69.3742 41.3676 69.437 41.3297 69.4961 41.2852C69.6154 41.1945 69.718 41.0787 69.7985 40.9443C69.8379 40.8776 69.8715 40.8068 69.8988 40.7328C69.9256 40.6586 69.946 40.5818 69.9599 40.5033C69.989 40.3443 69.989 40.1803 69.9599 40.0213C69.946 39.9428 69.9255 39.866 69.8988 39.7918C69.8715 39.7178 69.8379 39.647 69.7985 39.5803C69.718 39.4458 69.6154 39.3301 69.4961 39.2393C69.437 39.1949 69.3742 39.157 69.3086 39.1262C69.2428 39.0961 69.1747 39.073 69.1051 39.0574C68.9641 39.0246 68.8186 39.0246 68.6776 39.0574C68.608 39.073 68.5399 39.0961 68.4741 39.1262C68.4085 39.157 68.3457 39.1949 68.2866 39.2393C68.1673 39.3301 68.0646 39.4458 67.9842 39.5803C67.9448 39.647 67.9112 39.7178 67.8839 39.7918C67.8572 39.866 67.8367 39.9428 67.8228 40.0213C67.7938 40.1803 67.7938 40.3443 67.8228 40.5033C67.8367 40.5818 67.8571 40.6586 67.8839 40.7328ZM69.9817 58.7049H67.801C67.5118 58.7049 67.2345 58.8345 67.03 59.065C66.8256 59.2956 66.7107 59.6083 66.7107 59.9344C66.7107 60.2605 66.8256 60.5732 67.03 60.8038C67.2345 61.0344 67.5118 61.1639 67.801 61.1639H69.9817C70.2708 61.1639 70.5482 61.0344 70.7527 60.8038C70.9571 60.5732 71.072 60.2605 71.072 59.9344C71.072 59.6083 70.9571 59.2956 70.7527 59.065C70.5482 58.8345 70.2708 58.7049 69.9817 58.7049ZM69.9817 63.623H67.801C67.5118 63.623 67.2345 63.7525 67.03 63.9831C66.8256 64.2136 66.7107 64.5264 66.7107 64.8525C66.7107 65.1785 66.8256 65.4913 67.03 65.7219C67.2345 65.9524 67.5118 66.082 67.801 66.082H69.9817C70.2708 66.082 70.5482 65.9524 70.7527 65.7219C70.9571 65.4913 71.072 65.1785 71.072 64.8525C71.072 64.5264 70.9571 64.2136 70.7527 63.9831C70.5482 63.7525 70.2708 63.623 69.9817 63.623Z" fill="white"/>
<path d="M69.9817 1H6.45166C5.00629 1.00182 3.62057 1.65009 2.59854 2.80259C1.5765 3.95508 1.00162 5.51767 1 7.14754L1 50.2623C1.00162 51.8922 1.5765 53.4548 2.59854 54.6072C3.62057 55.7597 5.00629 56.408 6.45166 56.4098H32.4016V61.1639H24.5814C24.0473 61.1634 23.5267 61.3526 23.0934 61.7048C22.6601 62.0569 22.3363 62.5541 22.1679 63.1256L20.9563 67.2239C20.8288 67.6552 20.794 68.1144 20.8548 68.5638C20.9156 69.0132 21.0702 69.4398 21.3059 69.8086C21.5416 70.1774 21.8517 70.4777 22.2105 70.6848C22.5694 70.892 22.9667 71 23.3698 71H53.0635C53.4666 71 53.864 70.892 54.2228 70.6848C54.5816 70.4777 54.8917 70.1774 55.1274 69.8086C55.3631 69.4398 55.5177 69.0132 55.5785 68.5638C55.6393 68.1144 55.6045 67.6552 55.4771 67.2239L54.2655 63.1256C54.097 62.5541 53.7732 62.0569 53.3399 61.7048C52.9066 61.3527 52.386 61.1634 51.8519 61.1639H44.0318V56.4098H62.3494V67.3115C62.3503 68.2894 62.6952 69.227 63.3085 69.9185C63.9217 70.61 64.7531 70.9989 65.6203 71H72.1623C73.0296 70.9989 73.861 70.61 74.4742 69.9185C75.0874 69.227 75.4324 68.2894 75.4333 67.3115V7.14754C75.4317 5.51767 74.8568 3.95508 73.8348 2.80259C72.8128 1.65009 71.427 1.00182 69.9817 1ZM51.8519 63.623C51.9282 63.6229 52.0026 63.6499 52.0645 63.7002C52.1264 63.7506 52.1727 63.8216 52.1968 63.9033L53.4083 68.0016C53.4265 68.0632 53.4315 68.1288 53.4228 68.193C53.4141 68.2572 53.392 68.3182 53.3583 68.3708C53.3247 68.4235 53.2804 68.4664 53.2291 68.496C53.1778 68.5256 53.1211 68.541 53.0635 68.541H23.3698C23.3123 68.541 23.2555 68.5256 23.2042 68.496C23.153 68.4664 23.1087 68.4235 23.075 68.3708C23.0413 68.3182 23.0192 68.2572 23.0105 68.193C23.0018 68.1288 23.0068 68.0632 23.025 68.0016L24.2366 63.9033C24.2606 63.8216 24.3069 63.7506 24.3687 63.7003C24.4306 63.65 24.505 63.6229 24.5813 63.623H51.8519ZM34.5822 61.1639V56.4098H41.8511V61.1639H34.5822ZM62.3494 37.9672V49.0328H7.54199V8.37705H68.8913V34.2787H65.6203C64.7531 34.2798 63.9217 34.6687 63.3085 35.3602C62.6952 36.0517 62.3503 36.9893 62.3494 37.9672ZM73.2527 67.3115C73.2524 67.6375 73.1374 67.95 72.933 68.1805C72.7286 68.411 72.4514 68.5406 72.1623 68.541H65.6203C65.3313 68.5406 65.0541 68.411 64.8497 68.1805C64.6453 67.95 64.5303 67.6375 64.53 67.3115V37.9672C64.5303 37.6412 64.6453 37.3287 64.8497 37.0982C65.0541 36.8677 65.3313 36.7381 65.6203 36.7377H72.1623C72.4514 36.7381 72.7286 36.8677 72.933 37.0982C73.1374 37.3287 73.2524 37.6412 73.2527 37.9672V67.3115ZM73.2527 34.4902C72.9026 34.35 72.5338 34.2785 72.1623 34.2787H71.072V7.14754C71.072 6.82146 70.9571 6.50873 70.7527 6.27815C70.5482 6.04757 70.2708 5.91803 69.9817 5.91803H6.45166C6.16249 5.91803 5.88516 6.04757 5.68068 6.27815C5.4762 6.50873 5.36133 6.82146 5.36133 7.14754V50.2623C5.36133 50.5884 5.4762 50.9011 5.68068 51.1317C5.88516 51.3623 6.16249 51.4918 6.45166 51.4918H62.3494V53.9508H6.45166C5.58443 53.9497 4.753 53.5608 4.13978 52.8693C3.52656 52.1778 3.18163 51.2402 3.18066 50.2623V7.14754C3.18163 6.16962 3.52656 5.23206 4.13978 4.54056C4.753 3.84906 5.58443 3.4601 6.45166 3.45902H69.9817C70.8489 3.4601 71.6803 3.84906 72.2936 4.54056C72.9068 5.23206 73.2517 6.16962 73.2527 7.14754V34.4902ZM67.8839 40.7328C67.9112 40.8068 67.9448 40.8776 67.9842 40.9443C68.0646 41.0787 68.1673 41.1945 68.2866 41.2852C68.3457 41.3297 68.4085 41.3676 68.4741 41.3984C68.5399 41.4285 68.608 41.4516 68.6776 41.4672C68.8186 41.5001 68.9641 41.5001 69.1051 41.4672C69.1747 41.4516 69.2428 41.4285 69.3086 41.3984C69.3742 41.3676 69.437 41.3297 69.4961 41.2852C69.6154 41.1945 69.718 41.0787 69.7985 40.9443C69.8379 40.8776 69.8715 40.8068 69.8988 40.7328C69.9256 40.6586 69.946 40.5818 69.9599 40.5033C69.989 40.3443 69.989 40.1803 69.9599 40.0213C69.946 39.9428 69.9255 39.866 69.8988 39.7918C69.8715 39.7178 69.8379 39.647 69.7985 39.5803C69.718 39.4458 69.6154 39.3301 69.4961 39.2393C69.437 39.1949 69.3742 39.157 69.3086 39.1262C69.2428 39.0961 69.1747 39.073 69.1051 39.0574C68.9641 39.0246 68.8186 39.0246 68.6776 39.0574C68.608 39.073 68.5399 39.0961 68.4741 39.1262C68.4085 39.157 68.3457 39.1949 68.2866 39.2393C68.1673 39.3301 68.0646 39.4458 67.9842 39.5803C67.9448 39.647 67.9112 39.7178 67.8839 39.7918C67.8572 39.866 67.8367 39.9428 67.8228 40.0213C67.7938 40.1803 67.7938 40.3443 67.8228 40.5033C67.8367 40.5818 67.8571 40.6586 67.8839 40.7328ZM69.9817 58.7049H67.801C67.5118 58.7049 67.2345 58.8345 67.03 59.065C66.8256 59.2956 66.7107 59.6083 66.7107 59.9344C66.7107 60.2605 66.8256 60.5732 67.03 60.8038C67.2345 61.0344 67.5118 61.1639 67.801 61.1639H69.9817C70.2708 61.1639 70.5482 61.0344 70.7527 60.8038C70.9571 60.5732 71.072 60.2605 71.072 59.9344C71.072 59.6083 70.9571 59.2956 70.7527 59.065C70.5482 58.8345 70.2708 58.7049 69.9817 58.7049ZM69.9817 63.623H67.801C67.5118 63.623 67.2345 63.7525 67.03 63.9831C66.8256 64.2136 66.7107 64.5264 66.7107 64.8525C66.7107 65.1785 66.8256 65.4913 67.03 65.7219C67.2345 65.9524 67.5118 66.082 67.801 66.082H69.9817C70.2708 66.082 70.5482 65.9524 70.7527 65.7219C70.9571 65.4913 71.072 65.1785 71.072 64.8525C71.072 64.5264 70.9571 64.2136 70.7527 63.9831C70.5482 63.7525 70.2708 63.623 69.9817 63.623Z" stroke="#D9703C" stroke-width="2" mask="url(#path-1-outside-1_230_226)"/>
</svg>
