<svg width="62" height="69" viewBox="0 0 62 69" fill="none" xmlns="http://www.w3.org/2000/svg">
<mask id="path-1-outside-1_230_235" maskUnits="userSpaceOnUse" x="0.719238" y="0.90625" width="61" height="69" fill="black">
<rect fill="white" x="0.719238" y="0.90625" width="61" height="69"/>
<path d="M55.4429 28.2394H14.2729L24.0698 24.5594L24.0739 24.5578L41.3349 18.0741L41.3436 18.0708L57.3286 12.0663C57.7531 11.9069 58.1429 11.6628 58.4759 11.3479C58.8089 11.033 59.0785 10.6535 59.2694 10.2311C59.4603 9.80863 59.5686 9.35151 59.5883 8.88584C59.608 8.42016 59.5385 7.95505 59.384 7.51706L58.2295 4.24159C57.9166 3.35733 57.2765 2.63727 56.4498 2.23939C55.6232 1.8415 54.6773 1.79827 53.8198 2.11918L22.4328 13.9097L22.4313 13.9103L3.98376 20.8402C3.55927 20.9995 3.16935 21.2436 2.83626 21.5585C2.50317 21.8733 2.23344 22.2528 2.04246 22.6753C1.85148 23.0977 1.743 23.5549 1.72321 24.0206C1.70342 24.4863 1.77271 24.9515 1.92713 25.3896L2.50877 27.0394C2.16242 27.5734 1.92318 28.1736 1.80517 28.8046C1.74864 28.9309 1.71932 29.0684 1.71924 29.2076V63.159C1.72063 64.4425 2.21527 65.673 3.09463 66.5805C3.974 67.4881 5.16628 67.9986 6.40989 68H55.4429C56.6865 67.9986 57.8788 67.4881 58.7581 66.5805C59.6375 65.673 60.1321 64.4425 60.1335 63.159V33.0804C60.1321 31.7969 59.6375 30.5664 58.7581 29.6589C57.8788 28.7514 56.6865 28.2409 55.4429 28.2394ZM44.3075 30.1758H51.76L50.3306 36.3723H42.8779L44.3075 30.1758ZM34.9262 30.1758H42.3787L40.9492 36.3723H33.4966L34.9262 30.1758ZM25.5449 30.1758H32.9974L31.5679 36.3723H24.1153L25.5449 30.1758ZM16.1636 30.1758H23.6161L22.1866 36.3723H14.734L16.1636 30.1758ZM54.4617 3.93861C54.8516 3.79281 55.2816 3.81254 55.6574 3.99349C56.0332 4.17444 56.3241 4.50182 56.4663 4.90384L57.6208 8.17918C57.6911 8.37824 57.7227 8.58965 57.7138 8.80132C57.7049 9.01299 57.6557 9.22078 57.5689 9.4128C57.4822 9.60483 57.3596 9.77733 57.2082 9.92044C57.0569 10.0636 56.8796 10.1745 56.6867 10.2469L49.9842 12.7646L49.2236 5.90637L54.4617 3.93861ZM47.4107 6.58747L48.1712 13.4455L41.8101 15.835L40.9472 9.01544L47.4107 6.58747ZM39.1408 9.69395L40.0036 16.5135L33.361 19.0086L32.623 12.1423L39.1408 9.69395ZM30.8086 12.8239L31.5465 19.6903L24.5602 22.3146L23.7526 15.4746L30.8086 12.8239ZM21.9427 16.1545L22.7504 22.9944L16.2192 25.4477L15.4592 18.59L21.9427 16.1545ZM3.7426 23.4942C3.82906 23.3018 3.95163 23.129 4.1032 22.9857C4.25478 22.8425 4.43237 22.7316 4.62569 22.6596L13.6464 19.271L14.4064 26.1285L10.6026 27.5573C10.3135 26.9602 9.90785 26.4314 9.41108 26.0041C8.91431 25.5768 8.3372 25.2602 7.71609 25.0743C7.09497 24.8884 6.4433 24.8372 5.80208 24.924C5.16086 25.0107 4.54398 25.2335 3.99027 25.5783L3.69019 24.7271C3.61945 24.5282 3.58766 24.3169 3.59666 24.1052C3.60565 23.8936 3.65526 23.6859 3.7426 23.4942ZM6.40989 26.8194C7.03846 26.8203 7.64872 27.0379 8.14369 27.4378C8.63866 27.8376 8.98995 28.3967 9.14173 29.0262L9.14298 29.0327C9.2823 29.6196 9.24081 30.2366 9.02429 30.798C8.80777 31.3594 8.42701 31.8371 7.93503 32.1646C7.44304 32.4921 6.86434 32.6531 6.27951 32.6252C5.69469 32.5973 5.13286 32.3818 4.67227 32.0089C4.21169 31.6359 3.87528 31.1239 3.7099 30.5443C3.54453 29.9647 3.55841 29.3463 3.74963 28.7752C3.94085 28.2041 4.29988 27.7088 4.77671 27.3583C5.25354 27.0077 5.82444 26.8193 6.40989 26.8194ZM3.5955 33.5942C4.26215 34.1114 5.05045 34.4357 5.87906 34.5336C6.70767 34.6315 7.54658 34.4995 8.30925 34.1511C9.07191 33.8028 9.73071 33.2507 10.2177 32.5519C10.7046 31.8531 11.0021 31.0329 11.0794 30.1758H14.2349L12.8052 36.3723H3.5955V33.5942ZM3.5955 46.0542H15.9163V57.6726H3.5955V46.0542ZM58.2573 63.159C58.2564 63.9291 57.9596 64.6674 57.432 65.2119C56.9044 65.7565 56.189 66.0628 55.4429 66.0636H6.40989C5.66372 66.0628 4.94835 65.7565 4.42073 65.2119C3.89311 64.6674 3.59633 63.9291 3.5955 63.159V59.609H58.2573V63.159ZM17.7925 57.6726V46.0542H29.9882V57.6726H17.7925ZM31.8645 57.6726V46.0542H44.0602V57.6726H31.8645ZM58.2573 57.6726H45.9365V46.0542H58.2573V57.6726ZM58.2573 44.1178H3.5955V38.3087H13.5429L13.5471 38.3089L13.5499 38.3087H22.9242L22.9284 38.3089L22.9313 38.3087H32.3056L32.3097 38.3089L32.3126 38.3087H41.6869L41.691 38.3089L41.6939 38.3087H51.0682L51.0723 38.3089L51.0752 38.3087H58.2573V44.1178ZM58.2573 36.3723H52.2592L53.6888 30.1758H55.4429C56.189 30.1767 56.9044 30.483 57.432 31.0275C57.9596 31.572 58.2564 32.3103 58.2573 33.0804V36.3723Z"/>
</mask>
<path d="M55.4429 28.2394H14.2729L24.0698 24.5594L24.0739 24.5578L41.3349 18.0741L41.3436 18.0708L57.3286 12.0663C57.7531 11.9069 58.1429 11.6628 58.4759 11.3479C58.8089 11.033 59.0785 10.6535 59.2694 10.2311C59.4603 9.80863 59.5686 9.35151 59.5883 8.88584C59.608 8.42016 59.5385 7.95505 59.384 7.51706L58.2295 4.24159C57.9166 3.35733 57.2765 2.63727 56.4498 2.23939C55.6232 1.8415 54.6773 1.79827 53.8198 2.11918L22.4328 13.9097L22.4313 13.9103L3.98376 20.8402C3.55927 20.9995 3.16935 21.2436 2.83626 21.5585C2.50317 21.8733 2.23344 22.2528 2.04246 22.6753C1.85148 23.0977 1.743 23.5549 1.72321 24.0206C1.70342 24.4863 1.77271 24.9515 1.92713 25.3896L2.50877 27.0394C2.16242 27.5734 1.92318 28.1736 1.80517 28.8046C1.74864 28.9309 1.71932 29.0684 1.71924 29.2076V63.159C1.72063 64.4425 2.21527 65.673 3.09463 66.5805C3.974 67.4881 5.16628 67.9986 6.40989 68H55.4429C56.6865 67.9986 57.8788 67.4881 58.7581 66.5805C59.6375 65.673 60.1321 64.4425 60.1335 63.159V33.0804C60.1321 31.7969 59.6375 30.5664 58.7581 29.6589C57.8788 28.7514 56.6865 28.2409 55.4429 28.2394ZM44.3075 30.1758H51.76L50.3306 36.3723H42.8779L44.3075 30.1758ZM34.9262 30.1758H42.3787L40.9492 36.3723H33.4966L34.9262 30.1758ZM25.5449 30.1758H32.9974L31.5679 36.3723H24.1153L25.5449 30.1758ZM16.1636 30.1758H23.6161L22.1866 36.3723H14.734L16.1636 30.1758ZM54.4617 3.93861C54.8516 3.79281 55.2816 3.81254 55.6574 3.99349C56.0332 4.17444 56.3241 4.50182 56.4663 4.90384L57.6208 8.17918C57.6911 8.37824 57.7227 8.58965 57.7138 8.80132C57.7049 9.01299 57.6557 9.22078 57.5689 9.4128C57.4822 9.60483 57.3596 9.77733 57.2082 9.92044C57.0569 10.0636 56.8796 10.1745 56.6867 10.2469L49.9842 12.7646L49.2236 5.90637L54.4617 3.93861ZM47.4107 6.58747L48.1712 13.4455L41.8101 15.835L40.9472 9.01544L47.4107 6.58747ZM39.1408 9.69395L40.0036 16.5135L33.361 19.0086L32.623 12.1423L39.1408 9.69395ZM30.8086 12.8239L31.5465 19.6903L24.5602 22.3146L23.7526 15.4746L30.8086 12.8239ZM21.9427 16.1545L22.7504 22.9944L16.2192 25.4477L15.4592 18.59L21.9427 16.1545ZM3.7426 23.4942C3.82906 23.3018 3.95163 23.129 4.1032 22.9857C4.25478 22.8425 4.43237 22.7316 4.62569 22.6596L13.6464 19.271L14.4064 26.1285L10.6026 27.5573C10.3135 26.9602 9.90785 26.4314 9.41108 26.0041C8.91431 25.5768 8.3372 25.2602 7.71609 25.0743C7.09497 24.8884 6.4433 24.8372 5.80208 24.924C5.16086 25.0107 4.54398 25.2335 3.99027 25.5783L3.69019 24.7271C3.61945 24.5282 3.58766 24.3169 3.59666 24.1052C3.60565 23.8936 3.65526 23.6859 3.7426 23.4942ZM6.40989 26.8194C7.03846 26.8203 7.64872 27.0379 8.14369 27.4378C8.63866 27.8376 8.98995 28.3967 9.14173 29.0262L9.14298 29.0327C9.2823 29.6196 9.24081 30.2366 9.02429 30.798C8.80777 31.3594 8.42701 31.8371 7.93503 32.1646C7.44304 32.4921 6.86434 32.6531 6.27951 32.6252C5.69469 32.5973 5.13286 32.3818 4.67227 32.0089C4.21169 31.6359 3.87528 31.1239 3.7099 30.5443C3.54453 29.9647 3.55841 29.3463 3.74963 28.7752C3.94085 28.2041 4.29988 27.7088 4.77671 27.3583C5.25354 27.0077 5.82444 26.8193 6.40989 26.8194ZM3.5955 33.5942C4.26215 34.1114 5.05045 34.4357 5.87906 34.5336C6.70767 34.6315 7.54658 34.4995 8.30925 34.1511C9.07191 33.8028 9.73071 33.2507 10.2177 32.5519C10.7046 31.8531 11.0021 31.0329 11.0794 30.1758H14.2349L12.8052 36.3723H3.5955V33.5942ZM3.5955 46.0542H15.9163V57.6726H3.5955V46.0542ZM58.2573 63.159C58.2564 63.9291 57.9596 64.6674 57.432 65.2119C56.9044 65.7565 56.189 66.0628 55.4429 66.0636H6.40989C5.66372 66.0628 4.94835 65.7565 4.42073 65.2119C3.89311 64.6674 3.59633 63.9291 3.5955 63.159V59.609H58.2573V63.159ZM17.7925 57.6726V46.0542H29.9882V57.6726H17.7925ZM31.8645 57.6726V46.0542H44.0602V57.6726H31.8645ZM58.2573 57.6726H45.9365V46.0542H58.2573V57.6726ZM58.2573 44.1178H3.5955V38.3087H13.5429L13.5471 38.3089L13.5499 38.3087H22.9242L22.9284 38.3089L22.9313 38.3087H32.3056L32.3097 38.3089L32.3126 38.3087H41.6869L41.691 38.3089L41.6939 38.3087H51.0682L51.0723 38.3089L51.0752 38.3087H58.2573V44.1178ZM58.2573 36.3723H52.2592L53.6888 30.1758H55.4429C56.189 30.1767 56.9044 30.483 57.432 31.0275C57.9596 31.572 58.2564 32.3103 58.2573 33.0804V36.3723Z" fill="white"/>
<path d="M55.4429 28.2394H14.2729L24.0698 24.5594L24.0739 24.5578L41.3349 18.0741L41.3436 18.0708L57.3286 12.0663C57.7531 11.9069 58.1429 11.6628 58.4759 11.3479C58.8089 11.033 59.0785 10.6535 59.2694 10.2311C59.4603 9.80863 59.5686 9.35151 59.5883 8.88584C59.608 8.42016 59.5385 7.95505 59.384 7.51706L58.2295 4.24159C57.9166 3.35733 57.2765 2.63727 56.4498 2.23939C55.6232 1.8415 54.6773 1.79827 53.8198 2.11918L22.4328 13.9097L22.4313 13.9103L3.98376 20.8402C3.55927 20.9995 3.16935 21.2436 2.83626 21.5585C2.50317 21.8733 2.23344 22.2528 2.04246 22.6753C1.85148 23.0977 1.743 23.5549 1.72321 24.0206C1.70342 24.4863 1.77271 24.9515 1.92713 25.3896L2.50877 27.0394C2.16242 27.5734 1.92318 28.1736 1.80517 28.8046C1.74864 28.9309 1.71932 29.0684 1.71924 29.2076V63.159C1.72063 64.4425 2.21527 65.673 3.09463 66.5805C3.974 67.4881 5.16628 67.9986 6.40989 68H55.4429C56.6865 67.9986 57.8788 67.4881 58.7581 66.5805C59.6375 65.673 60.1321 64.4425 60.1335 63.159V33.0804C60.1321 31.7969 59.6375 30.5664 58.7581 29.6589C57.8788 28.7514 56.6865 28.2409 55.4429 28.2394ZM44.3075 30.1758H51.76L50.3306 36.3723H42.8779L44.3075 30.1758ZM34.9262 30.1758H42.3787L40.9492 36.3723H33.4966L34.9262 30.1758ZM25.5449 30.1758H32.9974L31.5679 36.3723H24.1153L25.5449 30.1758ZM16.1636 30.1758H23.6161L22.1866 36.3723H14.734L16.1636 30.1758ZM54.4617 3.93861C54.8516 3.79281 55.2816 3.81254 55.6574 3.99349C56.0332 4.17444 56.3241 4.50182 56.4663 4.90384L57.6208 8.17918C57.6911 8.37824 57.7227 8.58965 57.7138 8.80132C57.7049 9.01299 57.6557 9.22078 57.5689 9.4128C57.4822 9.60483 57.3596 9.77733 57.2082 9.92044C57.0569 10.0636 56.8796 10.1745 56.6867 10.2469L49.9842 12.7646L49.2236 5.90637L54.4617 3.93861ZM47.4107 6.58747L48.1712 13.4455L41.8101 15.835L40.9472 9.01544L47.4107 6.58747ZM39.1408 9.69395L40.0036 16.5135L33.361 19.0086L32.623 12.1423L39.1408 9.69395ZM30.8086 12.8239L31.5465 19.6903L24.5602 22.3146L23.7526 15.4746L30.8086 12.8239ZM21.9427 16.1545L22.7504 22.9944L16.2192 25.4477L15.4592 18.59L21.9427 16.1545ZM3.7426 23.4942C3.82906 23.3018 3.95163 23.129 4.1032 22.9857C4.25478 22.8425 4.43237 22.7316 4.62569 22.6596L13.6464 19.271L14.4064 26.1285L10.6026 27.5573C10.3135 26.9602 9.90785 26.4314 9.41108 26.0041C8.91431 25.5768 8.3372 25.2602 7.71609 25.0743C7.09497 24.8884 6.4433 24.8372 5.80208 24.924C5.16086 25.0107 4.54398 25.2335 3.99027 25.5783L3.69019 24.7271C3.61945 24.5282 3.58766 24.3169 3.59666 24.1052C3.60565 23.8936 3.65526 23.6859 3.7426 23.4942ZM6.40989 26.8194C7.03846 26.8203 7.64872 27.0379 8.14369 27.4378C8.63866 27.8376 8.98995 28.3967 9.14173 29.0262L9.14298 29.0327C9.2823 29.6196 9.24081 30.2366 9.02429 30.798C8.80777 31.3594 8.42701 31.8371 7.93503 32.1646C7.44304 32.4921 6.86434 32.6531 6.27951 32.6252C5.69469 32.5973 5.13286 32.3818 4.67227 32.0089C4.21169 31.6359 3.87528 31.1239 3.7099 30.5443C3.54453 29.9647 3.55841 29.3463 3.74963 28.7752C3.94085 28.2041 4.29988 27.7088 4.77671 27.3583C5.25354 27.0077 5.82444 26.8193 6.40989 26.8194ZM3.5955 33.5942C4.26215 34.1114 5.05045 34.4357 5.87906 34.5336C6.70767 34.6315 7.54658 34.4995 8.30925 34.1511C9.07191 33.8028 9.73071 33.2507 10.2177 32.5519C10.7046 31.8531 11.0021 31.0329 11.0794 30.1758H14.2349L12.8052 36.3723H3.5955V33.5942ZM3.5955 46.0542H15.9163V57.6726H3.5955V46.0542ZM58.2573 63.159C58.2564 63.9291 57.9596 64.6674 57.432 65.2119C56.9044 65.7565 56.189 66.0628 55.4429 66.0636H6.40989C5.66372 66.0628 4.94835 65.7565 4.42073 65.2119C3.89311 64.6674 3.59633 63.9291 3.5955 63.159V59.609H58.2573V63.159ZM17.7925 57.6726V46.0542H29.9882V57.6726H17.7925ZM31.8645 57.6726V46.0542H44.0602V57.6726H31.8645ZM58.2573 57.6726H45.9365V46.0542H58.2573V57.6726ZM58.2573 44.1178H3.5955V38.3087H13.5429L13.5471 38.3089L13.5499 38.3087H22.9242L22.9284 38.3089L22.9313 38.3087H32.3056L32.3097 38.3089L32.3126 38.3087H41.6869L41.691 38.3089L41.6939 38.3087H51.0682L51.0723 38.3089L51.0752 38.3087H58.2573V44.1178ZM58.2573 36.3723H52.2592L53.6888 30.1758H55.4429C56.189 30.1767 56.9044 30.483 57.432 31.0275C57.9596 31.572 58.2564 32.3103 58.2573 33.0804V36.3723Z" stroke="#D9703C" stroke-width="2" mask="url(#path-1-outside-1_230_235)"/>
</svg>
