<svg width="84" height="67" viewBox="0 0 84 67" fill="none" xmlns="http://www.w3.org/2000/svg">
<path d="M13.8373 65.6396L13.836 65.6346L29.174 60.3471C29.2146 60.3354 29.2545 60.3216 29.2937 60.3058C29.331 60.2869 29.3674 60.266 29.4027 60.2433C29.4405 60.2226 29.4773 60.1998 29.5128 60.1751C29.5462 60.1499 29.5784 60.1231 29.6093 60.0946C29.6306 60.0744 29.6513 60.0534 29.6712 60.0317C29.6916 60.0108 29.7112 59.9892 29.7301 59.9669L65.4171 23.1317C65.4391 23.1105 65.4603 23.0885 65.4808 23.0656L68.0388 20.4273L71.8767 16.4681C73.1268 15.1714 73.829 13.4169 73.8295 11.5887C73.83 9.76046 73.1288 8.00738 71.8794 6.71317L69.3297 4.07792C68.0751 2.78911 66.3762 2.06652 64.6051 2.06829C62.8339 2.07007 61.1347 2.79607 59.8793 4.08739L56.1051 7.98043C56.0828 8 56.0611 8.02037 56.0401 8.0415L53.4828 10.6824L17.7327 47.5862C17.7236 47.5948 17.7145 47.6036 17.7056 47.6125L17.6683 47.6498C17.5807 47.7408 17.5065 47.8448 17.4484 47.9583C17.4142 48.0228 17.3854 48.0902 17.3623 48.1597L13.5489 59.9451L13.5466 59.9565C13.5375 59.9809 13.5291 60.0057 13.5215 60.0307L12.2397 63.9917L12.241 63.9967C12.2276 64.0352 12.216 64.0744 12.2061 64.114C12.2068 64.1165 12.2074 64.119 12.2081 64.1215C12.1605 64.3317 12.1644 64.5507 12.2193 64.7588L12.2206 64.7639C12.2439 64.8461 12.275 64.9259 12.3135 65.0018L12.3148 65.0068C12.3921 65.1595 12.4981 65.2948 12.6265 65.4048C12.7231 65.4882 12.8319 65.5587 12.948 65.609C13.0265 65.6415 13.1079 65.6658 13.1911 65.6815C13.2316 65.6902 13.2724 65.6968 13.3136 65.7014C13.3983 65.7091 13.4837 65.708 13.5683 65.698C13.6521 65.6892 13.7349 65.6716 13.8155 65.6457C13.8211 65.6441 13.8268 65.6426 13.8325 65.6409L13.8373 65.6396ZM17.6121 61.5876L16.1548 60.0892L19.1078 50.9722L26.4475 58.5493L17.6121 61.5876ZM28.7832 57.2776L25.4518 53.8392L59.4837 18.7086L62.8133 22.1502L28.7832 57.2776ZM23.6715 51.9997L20.3431 48.5632L54.3739 13.4383L57.6967 16.8737L23.6715 51.9997ZM64.5927 20.3115L56.1546 11.6047L56.9308 10.8056L65.3689 19.5125L64.5927 20.3115ZM67.1518 17.6675L58.7149 8.95493L61.657 5.9168C63.3047 4.21421 65.8992 4.2135 67.5466 5.91221L70.1011 8.54612C70.4922 8.94258 70.8028 9.41557 71.0147 9.93749C71.2266 10.4594 71.3356 11.0198 71.3354 11.586C71.3352 12.1521 71.2257 12.7127 71.0134 13.235C70.8011 13.7573 70.4902 14.2309 70.0988 14.628L67.1518 17.6675Z" fill="white" stroke="#D9703C"/>
</svg>
