<svg width="80" height="68" viewBox="0 0 80 68" fill="none" xmlns="http://www.w3.org/2000/svg">
<path d="M23.1287 9.08977L23.1287 9.08979L23.1314 9.08403L25.6477 3.70436C26.5823 1.94249 28.7706 0.50354 30.7472 0.50354H49.4062C51.3828 0.50354 53.5712 1.94249 54.5057 3.70436L57.022 9.08403L57.022 9.08405L57.0247 9.08977C57.1624 9.37457 57.4517 9.65193 57.7374 9.84895C58.0234 10.0462 58.4192 10.2417 58.8197 10.2417H72.94C76.5143 10.2417 79.5001 13.3057 79.5001 17.0453V60.6823C79.337 64.4373 76.3398 67.4965 72.7719 67.4965H7.21346C3.63918 67.4965 0.65332 64.4325 0.65332 60.6929V17.0453C0.65332 13.3057 3.63918 10.2417 7.21346 10.2417H21.3337C21.5209 10.2417 21.7122 10.1763 21.8565 10.1153C22.0155 10.0482 22.1821 9.95817 22.3377 9.85913C22.4933 9.76008 22.6483 9.6454 22.7809 9.52488C22.905 9.41218 23.045 9.26288 23.1287 9.08977ZM51.0358 5.70413L51.0358 5.70411L51.033 5.69839C50.8954 5.41359 50.6061 5.13623 50.3204 4.93921C50.0343 4.74191 49.6386 4.5465 49.2381 4.5465H30.5791C30.392 4.5465 30.2007 4.61186 30.0563 4.67282C29.8974 4.73993 29.7308 4.82999 29.5752 4.92903C29.4196 5.02808 29.2646 5.14276 29.1319 5.26328C29.0079 5.37598 28.8679 5.52528 28.7842 5.69839L28.7842 5.69837L28.7815 5.70413L26.2652 11.0838C25.3306 12.8457 23.1423 14.2846 21.1656 14.2846H7.21346C5.57668 14.2846 4.36008 15.568 4.36008 17.2191V60.8668C4.36008 62.518 5.57668 63.8013 7.21346 63.8013H72.7719C74.4087 63.8013 75.6253 62.518 75.6253 60.8668V17.2191C75.6253 15.568 74.4086 14.2846 72.7719 14.2846H58.6516C56.675 14.2846 54.4866 12.8457 53.5521 11.0838L51.0358 5.70413Z" fill="white" stroke="#D9703C"/>
<path d="M39.9927 57.7584C28.6859 57.7584 19.4804 48.2602 19.4804 36.5215C19.4804 24.7828 28.6859 15.2846 39.9927 15.2846C51.2995 15.2846 60.505 24.7828 60.505 36.5215C60.505 48.2602 51.2995 57.7584 39.9927 57.7584ZM39.9927 18.9798C30.6234 18.9798 23.0191 26.8712 23.0191 36.5215C23.0191 46.1719 30.6234 54.0632 39.9927 54.0632C49.362 54.0632 56.9664 46.1719 56.9664 36.5215C56.9664 26.8712 49.362 18.9798 39.9927 18.9798ZM65.2118 19.4798C65.2118 20.6109 64.4112 21.4143 63.3584 21.4143C62.3056 21.4143 61.505 20.6109 61.505 19.4798C61.505 18.3487 62.3056 17.5453 63.3584 17.5453C64.3889 17.5453 65.2118 18.4989 65.2118 19.4798ZM10.0669 5.54651H18.4804V8.1467H10.0669V5.54651Z" fill="white" stroke="#D9703C"/>
<path d="M39.993 26.7834V24.3489C33.6052 24.3489 28.2261 29.7396 28.2261 36.5215H30.5795C30.5795 31.1308 34.7819 26.7834 39.993 26.7834Z" fill="white"/>
</svg>
