<svg width="62" height="63" viewBox="0 0 62 63" fill="none" xmlns="http://www.w3.org/2000/svg">
<path fill-rule="evenodd" clip-rule="evenodd" d="M22.2113 20.2763C22.2113 22.3029 20.6859 23.9239 18.2356 23.9239H18.1904C15.8331 23.9239 14.3076 22.3029 14.3076 20.2763C14.3076 18.2057 15.8783 16.6299 18.2821 16.6299C20.6846 16.6299 22.1661 18.2057 22.2113 20.2763ZM21.7489 26.8056V47.9141H14.7222V26.8056H21.7489ZM47.0837 47.9141V35.8111C47.0837 29.327 43.6181 26.3096 38.9952 26.3096C35.2649 26.3096 33.5961 28.3582 32.6635 29.7958V26.8056H25.6368C25.7298 28.7871 25.6368 47.9141 25.6368 47.9141H32.6635V36.125C32.6635 35.4947 32.7087 34.8656 32.8947 34.4136C33.4023 33.1529 34.5584 31.8483 36.4985 31.8483C39.043 31.8483 40.0596 33.7845 40.0596 36.621V47.9141H47.0837Z" fill="white"/>
</svg>
