<svg width="110" height="110" viewBox="0 0 110 110" fill="none" xmlns="http://www.w3.org/2000/svg">
<path fill-rule="evenodd" clip-rule="evenodd" d="M0 0H110V110H0V0Z" fill="#E4469C"/>
<path fill-rule="evenodd" clip-rule="evenodd" d="M9.34497 9.28711H102.159V101.532H9.34497V9.28711Z" fill="#252653"/>
<path d="M41.4065 29.6152H32.1915C31.9603 29.6152 31.7729 29.8026 31.7729 30.0338V80.2943C31.7729 80.5252 31.9603 80.7132 32.1915 80.7132H41.4065C41.6377 80.7132 41.8251 80.5252 41.8251 80.2943V30.0338C41.8251 29.8026 41.6377 29.6152 41.4065 29.6152Z" fill="#E4469C"/>
<path fill-rule="evenodd" clip-rule="evenodd" d="M68.8928 49.0845V72.9629C60.32 73.5979 56.95 67.5363 56.8274 61.352C56.7768 58.7037 57.2964 56.0192 58.3067 53.8616C60.3272 49.5536 64.6569 48.7887 68.8928 49.0845ZM79.4498 75.6834V29.406L68.5609 29.1968L68.4742 40.7138C68.4742 40.7499 68.1278 40.7066 68.0557 40.7138C66.7351 40.8292 61.0849 39.8334 55.4924 43.6436C50.8813 46.7826 46.631 51.3865 46.4867 61.6552C46.3134 74.0381 54.2872 81.0236 65.7249 81.5934C69.0155 81.7519 72.5225 81.3194 75.5966 80.0778C76.2103 79.8325 77.2345 79.4 78.1154 78.9887C79.3638 78.4037 79.991 77.9855 79.6159 76.7009L79.4498 75.6834Z" fill="#E4469C"/>
</svg>
