<svg width="152" height="151" viewBox="0 0 152 151" fill="none" xmlns="http://www.w3.org/2000/svg">
<path fill-rule="evenodd" clip-rule="evenodd" d="M80.0524 26.1263V119.748L25.3527 110.098V35.7758L80.0524 26.1263ZM82.6516 36.9341H118.978C120.985 36.9341 121.371 37.3354 121.371 39.3692V106.496C121.371 108.529 120.985 108.931 118.978 108.931H82.6516V102.601H96.5169V92.8788H82.6516V89.9603H96.5169V80.2288H82.6516V77.3102H96.5169V67.5787H82.6516V64.6602H96.5169V54.9378H82.6516V52.0193H96.5169V42.2878H82.6516V36.9341ZM12.7152 135.198H133.479L133.497 12.2906H12.6973L12.7152 135.198Z" fill="#1E7145"/>
<path fill-rule="evenodd" clip-rule="evenodd" d="M58.8577 55.678L54.3862 65.9787L50.9119 56.3016L45.3225 56.5526L50.8717 70.6513L44.6228 84.4423L50.1157 84.8553L54.5229 74.9352L58.6245 85.4302L64.9458 85.7784L58.0937 70.5946L64.6482 55.2569L58.8577 55.678ZM96.0454 97.4477H110.2V88.8152H96.0454V97.4477ZM96.0454 86.2238H110.2V77.5832H96.0454V86.2238ZM96.0454 74.9919H110.2V66.3512H96.0454V74.9919ZM96.0454 52.536H110.2V43.8954H96.0454V52.536ZM96.0454 63.7599H110.2V55.1274H96.0454V63.7599Z" fill="#1E7145"/>
</svg>
