<svg width="152" height="152" viewBox="0 0 152 152" fill="none" xmlns="http://www.w3.org/2000/svg">
<path fill-rule="evenodd" clip-rule="evenodd" d="M9.76245 10.1649H140.256V140.659H9.76245V10.1649Z" fill="#87BCF6"/>
<path fill-rule="evenodd" clip-rule="evenodd" d="M20.8657 21.1995H131.143V130.801H20.8657V21.1995Z" fill="#252653"/>
<path fill-rule="evenodd" clip-rule="evenodd" d="M107.987 61.9307C98.1762 56.9826 81.2861 59.3796 81.2861 72.2889C81.2861 81.9025 87.9377 85.6862 96.0703 88.8622C107.627 93.3736 96.3956 101.9 82.2877 93.0826C82.2877 93.0826 81.7827 92.8343 81.5344 93.0826C81.2861 93.3308 81.2861 93.5791 81.2861 93.8359V103.098C86.217 105.624 89.8981 106.908 95.5909 106.848C113.953 106.66 116.599 89.0762 106.831 82.3134C105.059 81.0807 100.316 78.6238 98.8182 78.0502C91.0538 75.0883 91.7129 70.8765 94.1784 68.7534C96.9006 66.3993 104.451 69.9605 107.627 71.9465C109.553 73.1364 109.87 71.6555 109.861 70.3543L109.836 64.1992C109.836 62.7353 109.331 62.6155 107.987 61.9307ZM51.2813 77.3054V54.7569C51.2813 54.6456 51.6751 54.2604 51.7778 54.2604C61.3314 53.7724 66.7674 55.6386 67.2554 65.8428C67.8118 77.5537 57.9928 77.802 51.2813 77.802V77.3054ZM39.7588 45.9909V106.608H51.2813V87.0731C65.4405 88.0832 78.2129 83.0068 78.2129 66.639C78.2129 60.0388 76.1584 53.3958 71.2874 49.3808C64.4817 43.7651 48.5762 45.015 39.7588 45.9909Z" fill="#87BCF6"/>
</svg>
