<svg width="152" height="151" viewBox="0 0 152 151" fill="none" xmlns="http://www.w3.org/2000/svg">
<path fill-rule="evenodd" clip-rule="evenodd" d="M30.7179 43.2633L85.9232 32.955V125.538L30.7 117.197L30.7179 43.2633ZM88.1783 62.8599L88.2231 57.0684L119.114 57.0775V107.517H88.1783L88.1962 102.372H109.647V97.8826H88.1783V94.0216H109.647V89.8509H88.1783V85.662C101.834 87.9295 104.474 78.4499 104.277 74.1062H92.2769V62.2225C90.863 62.3955 89.288 62.4957 88.1783 62.8599ZM88.1783 50.958L126.077 50.9763L126.059 96.9174H122.587V54.1908H88.1783V50.958ZM18.4043 140.928H139.017L138.999 18.2119H18.4043V140.928Z" fill="#D04525"/>
<path fill-rule="evenodd" clip-rule="evenodd" d="M54.4907 66.1963C58.6789 65.7946 60.7217 66.4699 60.5251 70.9144C60.3541 74.718 58.2344 75.4274 54.4309 75.2137L54.4907 66.1963ZM49.4221 61.1364L49.311 90.4279L54.2599 90.7441L54.4138 80.5814C58.525 80.1968 61.696 80.1284 63.8158 77.795C65.7645 75.6496 66.7304 71.829 66.2688 68.0084C65.1235 58.6833 57.6959 60.9825 49.4221 61.1364ZM90.7739 68.8631H101.928C101.928 62.5381 98.6117 58.0081 90.791 58.0081L90.7739 68.8631Z" fill="#D04525"/>
</svg>
