<svg width="110" height="110" viewBox="0 0 110 110" fill="none" xmlns="http://www.w3.org/2000/svg">
<mask id="mask0_323_115" style="mask-type:luminance" maskUnits="userSpaceOnUse" x="0" y="0" width="110" height="110">
<path d="M110 0H0V110H110V0Z" fill="white"/>
</mask>
<g mask="url(#mask0_323_115)">
<path fill-rule="evenodd" clip-rule="evenodd" d="M11.2302 22.4555L61.5783 13.2153V96.2056L11.2138 88.7281L11.2302 22.4555ZM63.635 40.0215L63.6758 34.8301L91.8491 34.8382V80.0512H63.635L63.6513 75.4393H83.2143V71.4151H63.635V67.9542H83.2143V64.2157H63.635V60.4608C76.0894 62.4934 78.497 53.996 78.3175 50.1025H67.3729V39.4502C66.0834 39.6052 64.647 39.6951 63.635 40.0215ZM63.635 29.3529L98.1986 29.3692L98.1822 70.5499H95.0156V32.2506H63.635V29.3529ZM0 110H110L109.984 0H0V110Z" fill="#D04525"/>
<path fill-rule="evenodd" clip-rule="evenodd" d="M39.3067 48.2121C42.3625 47.919 43.8529 48.4116 43.7095 51.6544C43.5848 54.4295 42.0382 54.9471 39.2631 54.7912L39.3067 48.2121ZM35.6087 44.5202L35.5276 65.8916L39.1383 66.1223L39.2506 58.7076C42.2502 58.4269 44.5638 58.377 46.1104 56.6746C47.5323 55.1093 48.237 52.3217 47.9003 49.5341C47.0646 42.7304 41.6453 44.408 35.6087 44.5202ZM65.7794 50.1577H73.9177C73.9177 45.543 71.498 42.2378 65.7919 42.2378L65.7794 50.1577Z" fill="#D04525"/>
</g>
</svg>
