<svg width="151" height="152" viewBox="0 0 151 152" fill="none" xmlns="http://www.w3.org/2000/svg">
<path fill-rule="evenodd" clip-rule="evenodd" d="M9.70117 10.1649H139.331V140.659H9.70117V10.1649Z" fill="#FF7C00"/>
<path fill-rule="evenodd" clip-rule="evenodd" d="M20.7307 21.1995H130.278V130.801H20.7307V21.1995Z" fill="#261300"/>
<path d="M108.338 62.9066H97.9459C97.6782 62.9066 97.4612 63.1251 97.4612 63.3946V106.343C97.4612 106.612 97.6782 106.831 97.9459 106.831H108.338C108.605 106.831 108.822 106.612 108.822 106.343V63.3946C108.822 63.1251 108.605 62.9066 108.338 62.9066Z" fill="#FF7C00"/>
<path d="M103.142 57.1026C106.476 57.1026 109.18 54.5002 109.18 51.2899C109.18 48.0797 106.476 45.4773 103.142 45.4773C99.8072 45.4773 97.104 48.0797 97.104 51.2899C97.104 54.5002 99.8072 57.1026 103.142 57.1026Z" fill="#FF7C00"/>
<path fill-rule="evenodd" clip-rule="evenodd" d="M75.0026 91.4732L79.2631 105.675C79.4842 106.514 79.9179 106.72 80.5047 106.711H91.4151C92.257 106.72 92.3166 106.463 92.189 105.898L74.1693 45.3917C74.1352 45.2804 74.0502 45.2033 73.8801 45.2033L58.7687 45.1605C58.1735 45.1605 58.1649 45.4687 58.216 46.0508C58.4031 48.1567 58.301 49.3381 57.8588 50.9903L41.9055 105.932C41.7354 106.454 41.778 106.711 42.4583 106.72L52.7565 106.711C53.845 106.677 53.9045 106.377 54.0916 105.829L57.6632 91.4732H75.0026ZM72.8001 80.4301H60.2909L66.3542 55.7414L72.8001 80.4301Z" fill="#FF7C00"/>
</svg>
