<svg width="111" height="110" viewBox="0 0 111 110" fill="none" xmlns="http://www.w3.org/2000/svg">
<path fill-rule="evenodd" clip-rule="evenodd" d="M0.835938 0H110.836V110H0.835938V0Z" fill="#FF7C00"/>
<path fill-rule="evenodd" clip-rule="evenodd" d="M10.1953 9.30176H103.154V101.69H10.1953V9.30176Z" fill="#261300"/>
<path d="M84.5361 44.4585H75.7177C75.4905 44.4585 75.3064 44.6427 75.3064 44.8699V81.0732C75.3064 81.3 75.4905 81.4846 75.7177 81.4846H84.5361C84.7627 81.4846 84.9468 81.3 84.9468 81.0732V44.8699C84.9468 44.6427 84.7627 44.4585 84.5361 44.4585Z" fill="#FF7C00"/>
<path d="M80.1271 39.5661C82.9562 39.5661 85.2508 37.3725 85.2508 34.6663C85.2508 31.9603 82.9562 29.7666 80.1271 29.7666C77.2973 29.7666 75.0034 31.9603 75.0034 34.6663C75.0034 37.3725 77.2973 39.5661 80.1271 39.5661Z" fill="#FF7C00"/>
<path fill-rule="evenodd" clip-rule="evenodd" d="M56.2487 68.5388L59.8641 80.5102C60.0517 81.2174 60.4197 81.3911 60.9176 81.3835H70.1759C70.8903 81.3911 70.9409 81.1745 70.8326 80.6982L55.5416 29.6944C55.5127 29.6006 55.4405 29.5356 55.2962 29.5356L42.4731 29.4995C41.9681 29.4995 41.9608 29.7593 42.0041 30.25C42.1629 32.0252 42.0762 33.021 41.701 34.4137L28.1635 80.7268C28.0192 81.1669 28.0553 81.3835 28.6326 81.3911L37.3713 81.3835C38.295 81.3548 38.3455 81.102 38.5043 80.64L41.535 68.5388H56.2487ZM54.3798 59.23H43.7648L48.91 38.4187L54.3798 59.23Z" fill="#FF7C00"/>
</svg>
