<svg width="152" height="152" viewBox="0 0 152 152" fill="none" xmlns="http://www.w3.org/2000/svg">
<path fill-rule="evenodd" clip-rule="evenodd" d="M9.86523 10.2676H140.359V140.761H9.86523V10.2676Z" fill="#E4469C"/>
<path fill-rule="evenodd" clip-rule="evenodd" d="M20.9512 21.285H131.057V130.715H20.9512V21.285Z" fill="#252653"/>
<path d="M58.986 45.4003H48.0541C47.7799 45.4003 47.5576 45.6226 47.5576 45.8968V105.521C47.5576 105.795 47.7799 106.018 48.0541 106.018H58.986C59.2602 106.018 59.4825 105.795 59.4825 105.521V45.8968C59.4825 45.6226 59.2602 45.4003 58.986 45.4003Z" fill="#E4469C"/>
<path fill-rule="evenodd" clip-rule="evenodd" d="M91.5932 68.4966V96.8236C81.4232 97.5769 77.4254 90.386 77.2799 83.0496C77.2199 79.9079 77.8363 76.7233 79.0348 74.1637C81.4317 69.0531 86.5681 68.1457 91.5932 68.4966ZM104.117 100.051V45.1519L91.1994 44.9037L91.0966 58.5664C91.0966 58.6092 90.6857 58.5578 90.6001 58.5664C89.0335 58.7033 82.3306 57.522 75.6962 62.042C70.226 65.7658 65.1838 71.2275 65.0126 83.4092C64.8071 98.0991 74.2665 106.386 87.8351 107.062C91.7387 107.25 95.8991 106.737 99.5459 105.264C100.274 104.973 101.489 104.46 102.534 103.972C104.015 103.278 104.759 102.782 104.314 101.258L104.117 100.051Z" fill="#E4469C"/>
</svg>
