<svg width="111" height="111" viewBox="0 0 111 111" fill="none" xmlns="http://www.w3.org/2000/svg">
<mask id="mask0_323_116" style="mask-type:luminance" maskUnits="userSpaceOnUse" x="0" y="0" width="111" height="111">
<path d="M110.09 0.873047H0.0900879V110.873H110.09V0.873047Z" fill="white"/>
</mask>
<g mask="url(#mask0_323_116)">
<path fill-rule="evenodd" clip-rule="evenodd" d="M11.6738 87.5442V22.7572L61.7012 13.6884V96.621L11.6738 87.5442ZM90.395 79.7733H63.9511L63.9348 56.3709L68.8014 59.7095C70.1219 60.7625 71.8013 60.5665 72.8854 59.7911L92.4411 45.7269L92.4821 77.2265C92.4739 79.357 92.5968 79.7733 90.395 79.7733ZM69.0133 55.0486L63.9348 51.2611V39.4579H86.6537C87.5179 39.4498 88.3574 39.4579 89.0993 39.4579C94.561 39.4334 92.0095 41.27 89.5232 43.0822L73.0566 55.0813C71.6056 56.1424 70.5458 56.3057 69.0133 55.0486ZM63.9348 33.4094H95.009C98.441 33.4094 98.441 34.5603 98.441 37.1316V67.8477C98.441 69.472 98.441 69.9781 96.7209 69.9781C94.9926 69.9781 94.9926 69.5373 95.0008 67.9701C95.0008 67.8721 94.9926 67.7497 94.9926 67.6762V37.156H63.9348V33.4094ZM0.0900879 110.873H110.082L110.09 0.873047L0.0900879 0.88121V110.873Z" fill="#1E70B6"/>
<path fill-rule="evenodd" clip-rule="evenodd" d="M35.4429 58.5139C33.2166 47.3012 44.3918 43.9712 46.0319 53.3317C48.0961 65.1056 37.1703 67.2196 35.4429 58.5139ZM49.3496 55.8697C49.3496 49.8519 46.7179 44.9814 40.8995 44.9814C32.225 44.9814 29.7617 56.668 34.0584 63.3781C35.7859 66.0721 40.4942 68.1302 44.6225 65.8414C47.5723 64.2075 49.3496 60.5282 49.3496 55.8697Z" fill="#1E70B6"/>
</g>
</svg>
