<svg width="152" height="151" viewBox="0 0 152 151" fill="none" xmlns="http://www.w3.org/2000/svg">
<path fill-rule="evenodd" clip-rule="evenodd" d="M31.1159 115.646L31.1606 42.4152L85.6958 32.9062V125.127L31.1159 115.646ZM117.031 90.9259H87.8504V85.1694H117.031V81.3349H87.8504V75.5875H117.031V71.753H87.8504V65.9965H117.031V62.1619H87.8504V56.4055H117.031V52.5709H87.8504L87.904 43.5173H123.227C125.122 43.4445 125.507 43.827 125.435 45.7671V112.594C125.462 113.751 125.113 114.744 123.227 114.525H87.904L87.8504 104.351H117.031V100.517H87.8504V94.7604H117.031V90.9259ZM18.1973 140.876H138.997L138.836 17.9686H18.1973V140.876Z" fill="#2B5797"/>
<path fill-rule="evenodd" clip-rule="evenodd" d="M69.022 61.998L64.7039 85.6248L60.2338 62.7448L54.1813 63.1001L49.89 84.796L46.2603 63.7741L40.9141 63.8378L46.4749 94.2777L52.0893 94.5874L56.7025 73.5473L59.161 84.213C59.8762 87.8381 60.6004 91.3084 61.262 95.0063L67.6095 95.6712L74.9673 61.7703L69.022 61.998Z" fill="#2B5797"/>
</svg>
