<svg width="111" height="110" viewBox="0 0 111 110" fill="none" xmlns="http://www.w3.org/2000/svg">
<path fill-rule="evenodd" clip-rule="evenodd" d="M12.1989 87.4196L12.2396 21.8794L61.8992 13.3689V95.9054L12.1989 87.4196ZM90.4331 65.2957H63.8611V60.1438H90.4331V56.7119H63.8611V51.5681H90.4331V48.1362H63.8611V42.9843H90.4331V39.5524H63.8611V34.4005H90.4331V30.9686H63.8611L63.91 22.8657H96.0744C97.8009 22.8005 98.1505 23.1429 98.0859 24.8792V84.6888C98.1096 85.724 97.7927 86.6125 96.0744 86.4169H63.91L63.8611 77.3114H90.4331V73.8795H63.8611V68.7276H90.4331V65.2957ZM0.435303 110H110.435L110.289 0H0.435303V110Z" fill="#2B5797"/>
<path fill-rule="evenodd" clip-rule="evenodd" d="M46.7161 39.406L42.7841 60.5517L38.7136 40.0744L33.2022 40.3924L29.2946 59.8098L25.9893 40.9956L21.1211 41.0526L26.1847 68.2959L31.2973 68.573L35.4979 49.7424L37.7367 59.2881C38.388 62.5325 39.0474 65.6384 39.6498 68.948L45.4298 69.5431L52.1298 39.2021L46.7161 39.406Z" fill="#2B5797"/>
</svg>
