<svg width="111" height="110" viewBox="0 0 111 110" fill="none" xmlns="http://www.w3.org/2000/svg">
<path fill-rule="evenodd" clip-rule="evenodd" d="M0.762451 0H110.762V110H0.762451V0Z" fill="#87BCF6"/>
<path fill-rule="evenodd" clip-rule="evenodd" d="M10.1221 9.30176H102.847V102.026H10.1221V9.30176Z" fill="#252653"/>
<path fill-rule="evenodd" clip-rule="evenodd" d="M83.5611 43.6358C75.291 39.4648 61.0534 41.4854 61.0534 52.3673C61.0534 60.4711 66.6604 63.6605 73.5158 66.3377C83.2576 70.1406 73.79 77.3279 61.8977 69.8953C61.8977 69.8953 61.472 69.686 61.2627 69.8953C61.0534 70.1045 61.0534 70.3138 61.0534 70.5303V78.3378C65.21 80.4671 68.3129 81.5494 73.1117 81.4989C88.5901 81.3404 90.8206 66.5181 82.5866 60.8174C81.0929 59.7783 77.0948 57.7073 75.8322 57.2238C69.2872 54.727 69.8427 51.1767 71.921 49.387C74.2157 47.4026 80.5804 50.4045 83.2576 52.0786C84.8811 53.0817 85.1483 51.8333 85.1408 50.7365L85.1197 45.5481C85.1197 44.3141 84.694 44.2131 83.5611 43.6358ZM35.7608 56.5959V37.5887C35.7608 37.4949 36.0927 37.1701 36.1793 37.1701C44.2326 36.7588 48.8148 38.3319 49.2262 46.9335C49.6952 56.8052 41.4183 57.0145 35.7608 57.0145V56.5959ZM26.0479 30.1994V81.2966H35.7608V64.8296C47.6963 65.6811 58.4629 61.4019 58.4629 47.6047C58.4629 42.041 56.731 36.4413 52.625 33.0569C46.8881 28.3231 33.4805 29.3767 26.0479 30.1994Z" fill="#87BCF6"/>
</svg>
