<svg width="152" height="152" viewBox="0 0 152 152" fill="none" xmlns="http://www.w3.org/2000/svg">
<path fill-rule="evenodd" clip-rule="evenodd" d="M9.7627 10.1649H140.257V140.659H9.7627V10.1649Z" fill="#99C4CD"/>
<path fill-rule="evenodd" clip-rule="evenodd" d="M20.8657 21.1995H131.134V130.801H20.8657V21.1995Z" fill="#252653"/>
<path fill-rule="evenodd" clip-rule="evenodd" d="M84.3251 72.2633L84.3508 106.908L96.4041 106.968L96.4469 77.1771L96.4041 75.8588C100.77 72.0407 103.604 70.7823 109.587 70.9279C110.075 70.9364 110.221 70.9364 110.221 70.3372V61.5797C110.264 60.0302 109.921 59.6108 108.149 59.6707C103.398 59.8248 102.02 60.21 98.724 63.0008C98.0135 63.6 95.9418 66.0911 95.9418 66.0911C95.9418 63.0693 95.257 61.0147 94.4181 60.4069C93.8445 59.9874 93.699 60.0131 92.86 60.0131H91.2592L84.582 59.919C83.8458 60.0474 83.7944 60.2186 83.8201 61.0575C83.9057 64.8413 84.3251 67.5122 84.3251 72.2633ZM41.7705 46.282V46.4789C41.7962 54.2347 41.9332 97.3629 41.9588 105.538V105.872C41.9503 107.062 42.8406 106.848 43.2172 106.839L74.7373 106.754C76.0043 106.728 76.3039 106.334 76.4751 105.555L78.093 97.4143C78.2129 96.8407 78.2129 96.1302 77.1086 96.1816H54.0892V46.1878C54.0635 45.6827 54.1662 44.9979 53.0534 45.0321L42.7978 45.2718H42.5666C41.6164 45.3232 41.7962 45.7255 41.7705 46.282Z" fill="#99C4CD"/>
</svg>
