<svg width="111" height="110" viewBox="0 0 111 110" fill="none" xmlns="http://www.w3.org/2000/svg">
<path fill-rule="evenodd" clip-rule="evenodd" d="M61.8332 12.3827V96.1716L12.024 87.536V21.0187L61.8332 12.3827ZM64.2001 22.0554H97.2782C99.1066 22.0554 99.4572 22.4145 99.4572 24.2348V84.3118C99.4572 86.1321 99.1066 86.4911 97.2782 86.4911H64.2001V80.8264H76.8258V72.125H64.2001V69.5129H76.8258V60.8034H64.2001V58.1914H76.8258V49.4818H64.2001V46.8698H76.8258V38.1685H64.2001V35.5564H76.8258V26.8468H64.2001V22.0554ZM0.516322 110H110.484L110.5 0H0.5L0.516322 110Z" fill="#1E7145"/>
<path fill-rule="evenodd" clip-rule="evenodd" d="M41.7608 38.8812L37.1241 49.268L33.5215 39.5099L27.7256 39.763L33.4798 53.9796L27 67.8859L32.6958 68.3023L37.2659 58.2993L41.519 68.882L48.0738 69.2332L40.9686 53.9224L47.7653 38.4566L41.7608 38.8812ZM80.3225 81H95V72.2953H80.3225V81ZM80.3225 69.6824H95V60.9694H80.3225V69.6824ZM80.3225 58.3565H95V49.6436H80.3225V58.3565ZM80.3225 35.7128H95V27H80.3225V35.7128ZM80.3225 47.0306H95V38.3259H80.3225V47.0306Z" fill="#1E7145"/>
</svg>
