<svg width="152" height="151" viewBox="0 0 152 151" fill="none" xmlns="http://www.w3.org/2000/svg">
<path fill-rule="evenodd" clip-rule="evenodd" d="M31.1526 114.963V42.5746L86.0918 32.4418V125.105L31.1526 114.963ZM117.603 106.281H88.5626L88.5447 80.1325L93.8891 83.8628C95.3394 85.0393 97.1835 84.8204 98.3741 83.954L119.85 68.2395L119.895 103.435C119.886 105.816 120.02 106.281 117.603 106.281ZM94.1219 78.655L88.5447 74.4231V61.235H113.494C114.443 61.2259 115.365 61.235 116.18 61.235C122.178 61.2076 119.376 63.2597 116.645 65.2844L98.5621 78.6915C96.9686 79.8771 95.8049 80.0596 94.1219 78.655ZM88.5447 54.4767H122.67C126.439 54.4767 126.439 55.7627 126.439 58.6357V92.9558C126.439 94.7708 126.439 95.3363 124.55 95.3363C122.652 95.3363 122.652 94.8438 122.661 93.0927C122.661 92.9832 122.652 92.8464 122.652 92.7643V58.663H88.5447V54.4767ZM18.4316 141.03H139.223L139.232 18.1227L18.4316 18.1318V141.03Z" fill="#1E70B6"/>
<path fill-rule="evenodd" clip-rule="evenodd" d="M49.147 79.1254C46.0909 63.7335 61.4314 59.1621 63.6829 72.0116C66.5164 88.1739 51.5183 91.076 49.147 79.1254ZM68.2371 75.4957C68.2371 67.2348 64.6245 60.549 56.6375 60.549C44.7297 60.549 41.3483 76.5915 47.2465 85.8027C49.6178 89.5008 56.0811 92.3258 61.7482 89.1841C65.7973 86.9412 68.2371 81.8905 68.2371 75.4957Z" fill="#1E70B6"/>
</svg>
