<svg width="111" height="110" viewBox="0 0 111 110" fill="none" xmlns="http://www.w3.org/2000/svg">
<path fill-rule="evenodd" clip-rule="evenodd" d="M0.897461 0H110.897V110H0.897461V0Z" fill="#99C4CD"/>
<path fill-rule="evenodd" clip-rule="evenodd" d="M10.2568 9.30176H103.207V101.69H10.2568V9.30176Z" fill="#252653"/>
<path fill-rule="evenodd" clip-rule="evenodd" d="M63.7498 52.3457L63.7714 81.5495L73.9317 81.6L73.9678 56.4878L73.9317 55.3765C77.612 52.1581 80.0009 51.0973 85.0442 51.22C85.4556 51.2272 85.5787 51.2272 85.5787 50.7221V43.34C85.6149 42.0338 85.3258 41.6803 83.8321 41.7308C79.8272 41.8607 78.6657 42.1854 75.8873 44.5379C75.2884 45.043 73.542 47.1429 73.542 47.1429C73.542 44.5956 72.9648 42.8637 72.2576 42.3514C71.7741 41.9977 71.6515 42.0194 70.9442 42.0194H69.5949L63.9663 41.9401C63.3457 42.0483 63.3024 42.1926 63.3241 42.8998C63.3962 46.0893 63.7498 48.3408 63.7498 52.3457ZM27.8784 30.4448V30.6108C27.9001 37.1485 28.0156 73.5034 28.0371 80.3946V80.6762C28.03 81.6793 28.7805 81.4989 29.0979 81.4913L55.6677 81.4196C56.7358 81.3977 56.9883 81.0656 57.1326 80.409L58.4964 73.5467C58.5975 73.0632 58.5975 72.4643 57.6666 72.5076H38.2624V30.3654C38.2408 29.9396 38.3274 29.3623 37.3893 29.3912L28.7444 29.5932H28.5495C27.7485 29.6366 27.9001 29.9757 27.8784 30.4448Z" fill="#99C4CD"/>
</svg>
